<svg version="1" xmlns="http://www.w3.org/2000/svg" width="346.667" height="346.667" viewBox="0 0 260.000000 260.000000"><path d="M136.3 3.7c-2.4.2-4.3.8-4.3 1.4 0 .5-1.1.9-2.5.9s-2.5.4-2.5 1c0 .5-.7.6-1.7.3-1.1-.4-1.4-.3-.9.5.5.8-.1 1.2-1.6 1.2-2.6 0-11.1 6.2-14.2 10.3-1.8 2.4-1.9 2.9-.6 3.7 1 .7 1.1 1 .3 1s-1.3 1.3-1.3 3c0 1.6-.4 3-.8 3-.5 0-1.7 1.7-2.8 3.7-1 2-2.5 4.5-3.3 5.5-.8.9-1.6 2.4-1.7 3.3-.1.9-1 2.5-1.8 3.4-.9 1-1.6 2.1-1.6 2.5 0 .4 1-.4 2.3-1.9 1.2-1.5 4.8-5.3 7.9-8.5 5.1-5.1 6.3-5.8 10.5-6.2 6.2-.6 20.3 2.2 22.5 4.4 1 1 2.5 1.8 3.3 1.8.8 0 2.2 1.1 3 2.4 2 3.1 6.5 4.9 9.8 4.1 2.5-.7 4.6.1 10.7 3.6 4 2.3 4.8 3.9 3.9 7.8-.4 2-.5 3.7-.1 3.8.4.2.5 2.6.4 5.3-.3 3.5-.9 5.3-2.2 6-2.1 1.1-1.6 5.8.8 7.6 2.1 1.5.6 3.4-2.1 2.6-1.2-.3-7.1-.7-13.2-.8-12.8-.1-13.4.2-16.6 9.3-1 3.1-2.3 6.1-2.9 6.8-.6.7-1.7 3.5-2.5 6.3-2.1 7-4.2 9.1-9 9.3-2.2.1-4.8-.1-5.7-.5-3.4-1.5-1.8 1.2 1.7 2.8 1.9.9 4 2.5 4.7 3.5.7 1 2.5 2.1 3.9 2.4 1.8.5 2.9 1.7 3.6 4.2 1.1 3.3 1 3.5-1.2 3.5-1.3 0-3 .7-3.8 1.5-.8.8-1.8 1.1-2.1.8-.4-.4-1.3-.8-2.1-.9-.8-.1-3.1-.5-5.2-.8-2.1-.3-4.4-.2-5.1.2-.9.6.2 1.1 3.4 1.6 6.8.9 15.2 3.7 15.8 5.3.3.7.1 1.3-.4 1.3s-.7.7-.4 1.5c.4.8 1 1.2 1.5.9.5-.3.6.2.3 1-1.1 2.9 2.4 2.8 8.1 0 3-1.6 5.4-3.3 5.4-3.9-.3-2.4.2-3.6 1.1-3 .7.4 1-.6.8-2.5-.1-1.7-.5-3.3-.9-3.6-.4-.2-.7-2.6-.7-5.2-.1-2.7-.8-6.8-1.8-9.1-1.3-3.2-1.5-5.6-1-9.9.4-3.1.7-6.7.7-8-.1-1.7.5-2.2 2.3-2.2 1.3 0 3.7-.3 5.3-.6 2.5-.5 3.1-.2 3.6 1.6.3 1.2 1.5 2.4 2.6 2.7 2.7.7 2.7 2.7-.1 4.6l-2.3 1.5 3.7 1.6c2.1.9 4.8 1.6 6.2 1.6 3.7 0 4.1 1.7.8 3.4-2.1 1.1-3.2 2.5-3.6 5-.4 1.9-1.3 4-2.2 4.7-2.1 1.7-5.6 8.8-4.9 9.8.3.5-.1 1.1-.7 1.4-1 .3-.9.9.3 2.3 3.3 3.9 2.7 6.3-3.8 15.2-2.1 2.8-2.6 3-3.9 1.8-.8-.8-1.4-2.4-1.4-3.5 0-1.2-.2-2.1-.4-2.1s-3 2.5-6.1 5.5c-3.2 3-6.1 5.5-6.6 5.5-.4 0-2 .5-3.6 1.2-1.5.6-3.5 1.3-4.3 1.5-3.2.9-15.9.1-19.9-1.2-2.1-.7-2.2-.6-1.2 1.4 1.2 2.2 6.3 5.8 11.9 8.2 4.6 2 4 3.5-1.7 4.3-5.2.7-7.5 0-13.4-4-3.1-2-3.6-2.1-2.9-.7 1.1 2 8.7 9 11.8 11 1.1.6 1.8 1.6 1.6 2.2-.1.6.3 1.1.9 1.1 2.2 0 7.9 5.6 7.9 7.7 0 2.9 3.9 3.6 14.6 2.9 8.2-.5 11.2.2 9.9 2.4-.5.8-.4 1.1.3.6.6-.3 1.2.1 1.4 1 .2 1.2 2-.4 5.8-5.1 9.4-11.7 12.1-11.5 9 .4-2.1 8.2-2.5 9-4.2 7.3-.7-.7-2.4-1.2-3.9-1.2-3.3 0-7 5-9.8 13.2-2.1 6.2-1.8 7.9 1 4.7 1.6-1.8 2-1.9 2.5-.6.3.8-.2 3-1.1 4.7-.9 1.8-1.5 3.4-1.2 3.6.2.2 1.5-1.6 2.8-4.1 2.5-4.7 5.9-6.2 5.9-2.5 0 1-2.1 7-4.6 13.2-3.8 9.2-11.4 30.2-11.4 31.5 0 .2 28.1.3 62.5.3H260v-39.4l-5.7-5.3c-3.1-2.9-6.6-5.6-7.7-5.9-1.2-.4-2.8-1.2-3.6-2-3.7-3.2-16.5-9.4-21.8-10.4-9.3-1.9-11-2.9-12.2-6.6-.6-1.8-1.6-3.6-2.1-4-1.8-1.1-14.2-3.4-18.2-3.4-3 0-4.6-.8-8.2-4.1-4.4-4.1-9.5-13.3-9.5-17.1 0-1.1 1.6-6.9 3.6-13 3-8.9 4-10.9 5.4-10.5 2.2.6 5-1 5-2.8 0-.8 3.3-5.8 7.3-11.2 9.9-13.1 12.2-20.4 7.6-23.6-2-1.4-2-1.6-.4-6.8 1.4-4.9 3.9-36.7 3.6-47.3 0-2.1-1.2-6.2-2.6-9.2-1.4-2.9-2.5-5.8-2.5-6.4 0-.7-2.8-4-6.3-7.5-6.4-6.4-11.3-9.1-22.6-12.7-3.6-1.1-9.2-3.3-12.5-4.9-6-2.9-8.7-3.2-20.3-2.2zm27.6 82.7c1.8 1.9.4 3.9-2.5 3.3-1.3-.2-2.1 0-1.8.4.3.5-3.2.9-7.7.9s-8-.2-7.7-.5c.3-.3 2.5-1.2 4.9-2l4.4-1.4-3.9.6c-3 .4-3.8.3-3.4-.8.2-.7 1.5-1.7 2.9-2.1 3.5-1 13.2 0 14.8 1.6z"/><path d="M115.5 69.9c-.3.6.3 1.5 1.4 2 1.6.9 1.8.8 1.4-.9-.6-2.1-1.8-2.6-2.8-1.1zM116.6 78.3c.4 1-1 1.4-5.5 1.5-6.4.1-12.4 2.2-8.7 3 1 .2 2.3-.1 2.9-.7 1.7-1.7 2.5-1.3 2.9 1.1.2 1.9 1 2.3 4.3 2.4 2.2.1 4.8.5 5.8.9.9.4 2.8.4 4.1.1 4.6-1.1 4.5-7.6-.1-7.6-1.3 0-3.3-.5-4.3-1-1.5-.8-1.8-.7-1.4.3zM112.5 90c-.7 1.2.2 1.2 3 0 1.9-.8 1.9-.9-.2-.9-1.2-.1-2.5.3-2.8.9zM104.5 129.1c-1.1 1.7 0 2 2.1.4 1.7-1.3 1.7-1.4.2-1.5-.9 0-2 .5-2.3 1.1zM68.4 167.6c-8 7.4-8.3 7.5-14 7.9-3.3.2-9.5 1.7-14.2 3.4-5.4 2-11 3.3-16.5 3.7-4.7.4-8.9 1.3-9.8 2-.9.8-4.3 1.8-7.5 2.2l-5.9.7-.3 36.3L0 260h95.8l-3.3-15.8c-1.8-8.6-4.5-19.6-5.9-24.5l-2.7-8.7 2-2.8c3.4-4.9 3.6-7.6.6-10.6-3.1-3.1-4-2.8-4.8 1.4-1.3 6.1-2.7 3-2.7-5.8 0-4.8-.5-13.1-1-18.5-.6-6.1-.6-10.6 0-12.2 1.6-4.3-1-2.9-9.6 5.1zm-4 34.2c.3.5-.9 1.7-2.7 2.7-1.8 1-3.6 2.5-4.2 3.2-1.5 1.9-5.4.5-5-1.8.6-3 1.4-3.9 3.2-3.2 1.4.6 1.4.8-.3 2.1-1.8 1.3-1.7 1.4.6.7 1.4-.4 3.4-1.6 4.5-2.6 2.1-2.1 3.1-2.3 3.9-1.1zM91.2 183.5c.3 1 2 5.5 8.7 22.7 1.4 3.7 2.9 6.8 3.4 6.8 1.2 0 .8-1.4-2.8-10.3-2.9-7.3-10.1-22.2-9.3-19.2zM114.1 244.5c.1 11.3.2 11.8 1.4 8 1.8-5.3 1.8-14.4 0-17.5-1.3-2.3-1.4-1.4-1.4 9.5z"/></svg>