<?xml version="1.0" encoding="utf-8"?><svg xmlns="http://www.w3.org/2000/svg" xmlns:xlink="http://www.w3.org/1999/xlink"><symbol viewBox="0 0 17 17" id="icon-close" xmlns="http://www.w3.org/2000/svg"><path fill-rule="evenodd" clip-rule="evenodd" d="M15.708 1.707A1 1 0 1 0 14.294.293L8.001 6.586 1.707.293A1 1 0 0 0 .293 1.707l6.293 6.294-6.293 6.293a1 1 0 1 0 1.414 1.414l6.294-6.293 6.293 6.293a1 1 0 0 0 1.414-1.414L9.415 8.001l6.293-6.294z"/></symbol><symbol fill="none" viewBox="0 0 80 80" id="icon-docs" xmlns="http://www.w3.org/2000/svg"><circle cx="40" cy="40" r="40" fill="#0196E6"/><path opacity=".15" d="M46.046 79.546L24.5 58V35H18l-2.5-2.5v-6L18 24h6v-1a4 4 0 0 1 4-4h21.5l29.578 29.578c-3.505 16.04-16.634 28.482-33.032 30.968z" fill="#333"/><path d="M58.752 27.71l-8.462-8.462a.842.842 0 0 0-.598-.248h-22a4.236 4.236 0 0 0-4.23 4.23H19.23A4.236 4.236 0 0 0 15 27.463v4.23a4.236 4.236 0 0 0 4.23 4.231h4.232v19.462a4.236 4.236 0 0 0 4.23 4.23h2.539a.845.845 0 1 0 0-1.692h-2.539a2.542 2.542 0 0 1-2.538-2.538V35.923H41.23a4.236 4.236 0 0 0 4.23-4.23V27.46a4.236 4.236 0 0 0-4.23-4.23H25.154c0-1.4 1.139-2.539 2.538-2.539H48v5.077A4.236 4.236 0 0 0 52.23 30h5.078v25.385c0 1.4-1.14 2.538-2.539 2.538h-2.538a.845.845 0 1 0 0 1.692h2.538A4.236 4.236 0 0 0 59 55.385V28.308a.842.842 0 0 0-.248-.599zm-17.521-2.787c1.4 0 2.538 1.139 2.538 2.539v4.23c0 1.4-1.139 2.539-2.538 2.539h-22a2.542 2.542 0 0 1-2.539-2.539v-4.23c0-1.4 1.14-2.539 2.539-2.539h22zm11 3.385a2.542 2.542 0 0 1-2.539-2.539v-4.726l7.265 7.265h-4.726z" fill="#fff"/><path d="M46.308 46.077H36.154a4.236 4.236 0 0 0-4.23 4.23v8.462A4.236 4.236 0 0 0 36.153 63h10.154a4.236 4.236 0 0 0 4.23-4.23v-8.462a4.236 4.236 0 0 0-4.23-4.231zm2.538 12.692c0 1.4-1.139 2.539-2.538 2.539H36.154a2.542 2.542 0 0 1-2.539-2.539v-8.461c0-1.4 1.14-2.539 2.539-2.539h10.154c1.4 0 2.538 1.14 2.538 2.539v8.461z" fill="#fff"/><path d="M42.923 49.957l-5.077 5.077v3.735h3.735l5.077-5.077-3.735-3.735zm-2.043 7.12h-1.342v-1.342l3.385-3.385 1.342 1.342-3.385 3.385z" fill="#fff"/></symbol><symbol fill="none" viewBox="0 0 169 72" id="logotip" xmlns="http://www.w3.org/2000/svg"><path fill-rule="evenodd" clip-rule="evenodd" d="M.014 22.573L42.435 72 168.989 0 .014 22.573z" fill="#8CC7FF"/><path d="M22.56 61.695c-.982 0-1.965-.11-2.92-.327-.956-.218-1.72-.518-2.293-.873l1.228-2.808c.546.327 1.174.6 1.911.79.737.192 1.474.3 2.184.3.655 0 1.146-.081 1.42-.217.272-.137.436-.328.436-.6 0-.273-.164-.436-.519-.545-.327-.11-.873-.218-1.61-.328a15.058 15.058 0 0 1-2.402-.463 3.758 3.758 0 0 1-1.693-1.036c-.464-.518-.71-1.227-.71-2.126 0-.764.219-1.418.683-2.018.437-.572 1.092-1.036 1.965-1.39.874-.327 1.884-.518 3.085-.518.846 0 1.692.082 2.539.272.846.164 1.528.41 2.102.736l-1.229 2.809a6.954 6.954 0 0 0-3.385-.873c-.655 0-1.119.082-1.42.218-.3.164-.463.355-.463.6 0 .273.163.463.491.572.328.11.874.219 1.638.328.983.136 1.774.3 2.402.49.628.191 1.201.518 1.665 1.036.464.491.71 1.2.71 2.1 0 .736-.218 1.39-.682 1.99-.437.572-1.12 1.036-1.993 1.363-.874.327-1.938.49-3.167.49l.028.028zm13.513 0c-1.255 0-2.402-.273-3.412-.79a5.92 5.92 0 0 1-2.375-2.182c-.573-.927-.846-1.963-.846-3.135 0-1.145.273-2.208.846-3.135.573-.927 1.365-1.636 2.375-2.154s2.157-.763 3.412-.763c1.283 0 2.43.245 3.44.763 1.01.518 1.802 1.227 2.375 2.154.573.927.846 1.963.846 3.135 0 1.172-.273 2.208-.846 3.135-.573.927-1.365 1.636-2.375 2.181-1.01.518-2.157.79-3.44.79zm0-3.272c.737 0 1.31-.245 1.775-.736.464-.49.682-1.2.682-2.072 0-.872-.218-1.554-.682-2.044-.465-.491-1.065-.736-1.775-.736-.737 0-1.31.245-1.774.736-.464.49-.683 1.172-.683 2.044 0 .873.219 1.581.683 2.072.464.491 1.065.736 1.774.736zm20.938-8.67l-4.86 11.751h-4.258l-4.831-11.75h4.23l2.813 7.17 2.975-7.17h3.93zm13.103 5.89c0 .027-.027.381-.055 1.008h-8.544c.164.6.519 1.063 1.01 1.39.492.328 1.12.491 1.884.491.573 0 1.064-.081 1.474-.245.41-.164.819-.409 1.255-.79l2.184 2.262c-1.146 1.282-2.811 1.908-5.023 1.908-1.364 0-2.593-.272-3.63-.79s-1.856-1.254-2.43-2.181c-.573-.927-.846-1.963-.846-3.135 0-1.145.273-2.181.846-3.108.546-.927 1.338-1.636 2.32-2.154.983-.518 2.103-.79 3.331-.79 1.174 0 2.239.245 3.194.736.955.49 1.72 1.172 2.266 2.099.546.927.846 2.017.846 3.271l-.082.028zm-6.279-3.163c-.627 0-1.173.191-1.583.545-.437.355-.71.846-.819 1.473h4.832c-.11-.627-.382-1.118-.819-1.473-.437-.354-.955-.545-1.583-.545h-.028zm16.297 8.533a3.94 3.94 0 0 1-1.283.491 7.424 7.424 0 0 1-1.583.163c-1.529 0-2.702-.381-3.549-1.117-.819-.764-1.228-1.881-1.228-3.353v-3.954h-1.72v-3.08h1.72v-3.054h4.122v3.054h2.703v3.08H76.61v3.899c0 .409.11.736.328.981.218.246.518.355.9.355.465 0 .901-.136 1.256-.382l1.01 2.89.027.027zm9.254-11.477c1.475 0 2.648.436 3.522 1.308.9.873 1.338 2.181 1.338 3.926v6.734h-4.122v-6.052c0-1.609-.656-2.4-1.939-2.4-.71 0-1.283.219-1.692.682-.437.464-.628 1.145-.628 2.072v5.67h-4.122v-11.75h3.931v1.282a4.788 4.788 0 0 1 1.638-1.09 5.728 5.728 0 0 1 2.075-.382zm7.453.19h4.122v11.75h-4.122v-11.75zm2.075-1.308c-.765 0-1.365-.218-1.83-.627-.463-.409-.682-.927-.682-1.554s.219-1.145.683-1.554c.464-.409 1.064-.627 1.829-.627.764 0 1.364.19 1.829.6.464.409.682.9.682 1.526 0 .655-.218 1.2-.682 1.609-.465.436-1.065.627-1.83.627zm10.073 8.942l-1.229 1.227v2.89h-4.122V45.392h4.122v8.424l4.204-4.09h4.886l-4.886 5.017 5.296 6.734h-4.996l-3.303-4.117h.028zm11.301 4.307c-.682 0-1.283-.218-1.747-.681-.464-.463-.71-1.036-.71-1.745 0-.736.246-1.308.71-1.745.464-.436 1.065-.681 1.774-.681.737 0 1.311.218 1.775.681.464.437.682 1.036.682 1.745 0 .709-.246 1.282-.71 1.745-.464.463-1.064.681-1.774.681zm12.066-12.131c1.474 0 2.648.436 3.521 1.308.901.873 1.338 2.181 1.338 3.926v6.734h-4.122v-6.052c0-1.609-.655-2.4-1.938-2.4-.71 0-1.283.219-1.693.682-.437.464-.628 1.145-.628 2.072v5.67h-4.122v-11.75h3.931v1.282a4.787 4.787 0 0 1 1.638-1.09 5.73 5.73 0 0 1 2.075-.382zm19.463 6.08c0 .027-.027.381-.054 1.008h-8.545c.164.6.519 1.063 1.01 1.39.492.328 1.12.491 1.884.491.573 0 1.065-.082 1.474-.245.41-.164.819-.41 1.256-.79l2.184 2.262c-1.147 1.281-2.812 1.908-5.023 1.908-1.365 0-2.593-.272-3.631-.79-1.037-.518-1.856-1.254-2.429-2.181-.574-.927-.847-1.963-.847-3.136 0-1.145.273-2.18.847-3.107.546-.927 1.337-1.636 2.32-2.154.983-.518 2.102-.79 3.33-.79 1.174 0 2.239.245 3.194.735.956.491 1.72 1.173 2.266 2.1.546.926.846 2.017.846 3.271l-.082.027zm-6.278-3.163c-.628 0-1.174.19-1.583.545-.437.355-.71.845-.819 1.472h4.831c-.109-.627-.382-1.117-.819-1.472-.436-.354-.955-.545-1.583-.545h-.027zm16.297 8.533a3.943 3.943 0 0 1-1.283.49 7.429 7.429 0 0 1-1.584.164c-1.528 0-2.702-.381-3.548-1.117-.819-.764-1.229-1.882-1.229-3.354v-3.953h-1.719v-3.08h1.719v-3.054h4.122v3.054h2.703v3.08h-2.703v3.899c0 .409.11.736.328.981.218.246.519.355.901.355a2.14 2.14 0 0 0 1.255-.382l1.011 2.89.027.027z" fill="#545E69"/><path d="M21.769 9.65h8.326v29.39h-8.326V9.65zm28.718 6.244c2.839 0 5.104.845 6.824 2.508 1.72 1.69 2.594 4.226 2.594 7.606v13.005h-7.999V27.29c0-3.108-1.255-4.662-3.74-4.662-1.365 0-2.484.436-3.303 1.336-.819.9-1.228 2.235-1.228 4.035v11.014h-7.998V16.248h7.616v2.481a9.113 9.113 0 0 1 3.194-2.126c1.228-.49 2.566-.736 4.04-.736v.027zm37.999.382l-8.872 23.01-8.763-.273-9.363-22.765h8.19l5.459 13.904 5.76-13.904h7.616l-.027.028zm24.732 11.423c0 .054-.055.708-.137 1.962h-16.57c.328 1.173.983 2.072 1.966 2.7.955.627 2.184.954 3.63.954 1.092 0 2.048-.164 2.84-.464.791-.3 1.61-.818 2.429-1.5l4.204 4.363c-2.211 2.453-5.46 3.707-9.718 3.707-2.675 0-4.996-.49-7.016-1.499-2.02-1.009-3.576-2.4-4.695-4.198-1.12-1.8-1.665-3.817-1.665-6.08 0-2.235.546-4.253 1.61-6.025 1.092-1.772 2.566-3.162 4.477-4.171 1.911-1.009 4.04-1.5 6.443-1.5 2.265 0 4.34.464 6.169 1.418 1.856.927 3.303 2.29 4.395 4.062 1.092 1.772 1.611 3.871 1.611 6.325l.027-.054zm-12.148-6.134c-1.228 0-2.266.354-3.084 1.035-.82.71-1.365 1.663-1.584 2.863h9.336c-.218-1.2-.737-2.154-1.583-2.863-.819-.708-1.856-1.035-3.085-1.035zm24.132 17.856c-1.911 0-3.795-.218-5.624-.654-1.856-.436-3.33-1.009-4.449-1.69l2.402-5.453c1.037.655 2.266 1.145 3.712 1.527 1.42.382 2.84.573 4.259.573 1.283 0 2.211-.137 2.757-.41.546-.272.819-.654.819-1.144 0-.491-.328-.873-.983-1.064-.655-.218-1.692-.409-3.139-.6-1.829-.218-3.358-.517-4.641-.872-1.283-.354-2.375-1.036-3.303-2.017-.928-.982-1.392-2.345-1.392-4.117 0-1.445.437-2.753 1.31-3.871.874-1.145 2.13-2.018 3.795-2.699 1.665-.654 3.658-.982 5.978-.982 1.665 0 3.303.164 4.914.491 1.638.327 2.975.818 4.067 1.418l-2.402 5.425a13.326 13.326 0 0 0-6.552-1.69c-1.255 0-2.183.136-2.784.436s-.874.682-.874 1.145c0 .545.328.9.956 1.118.655.218 1.72.436 3.194.654 1.883.273 3.439.6 4.668.954 1.228.355 2.293 1.036 3.221 1.99.901.955 1.365 2.318 1.365 4.063 0 1.417-.437 2.698-1.31 3.843-.874 1.146-2.157 2.018-3.849 2.672-1.693.654-3.74.954-6.115.954zm30.437-1.308c-.682.409-1.501.736-2.457.954-.955.218-1.992.327-3.084.327-2.976 0-5.269-.736-6.852-2.18-1.611-1.446-2.402-3.627-2.402-6.516v-7.634h-3.331v-5.97h3.331v-5.916h7.998v5.915h5.214v5.971h-5.214v7.552c0 .817.218 1.445.655 1.908.437.463 1.01.682 1.747.682.928 0 1.747-.246 2.43-.71l1.965 5.59v.027z" fill="#fff"/><path d="M21.769 9.596h8.38v29.498h-8.435V9.596h.055zm8.271.11h-8.216v29.28h8.216V9.705zm20.447 6.16c1.42 0 2.702.219 3.849.628a8.404 8.404 0 0 1 3.03 1.908c.873.845 1.528 1.909 1.965 3.19.437 1.281.655 2.753.655 4.47v13.06H51.88V27.343c0-1.554-.3-2.699-.928-3.462-.6-.764-1.529-1.145-2.757-1.145-.683 0-1.284.109-1.83.327a3.91 3.91 0 0 0-1.419.981c-.41.437-.71 1.01-.928 1.663-.218.655-.3 1.445-.3 2.345V39.12H35.61V16.248h7.725v2.4a9.06 9.06 0 0 1 1.393-1.145 9.596 9.596 0 0 1 1.747-.9 9.282 9.282 0 0 1 1.938-.546 10.77 10.77 0 0 1 2.102-.19h-.027zm3.821.737c-1.119-.41-2.402-.627-3.821-.627-.738 0-1.42.054-2.102.19-.683.11-1.31.3-1.911.546-.6.245-1.174.545-1.72.9a10.32 10.32 0 0 0-1.474 1.226l-.082.11v-2.563h-7.507V39.04h7.89V28.08c0-.9.108-1.69.3-2.372.218-.681.518-1.254.955-1.69.41-.463.9-.79 1.474-1.009.546-.218 1.174-.327 1.884-.327 1.255 0 2.21.382 2.839 1.173.627.79.955 1.962.955 3.516V39.04h7.89V26.09c0-1.69-.22-3.162-.656-4.416-.437-1.255-1.065-2.318-1.938-3.136a8.124 8.124 0 0 0-2.976-1.88v-.055zm34.26-.273l-8.9 23.064c-2.948-.082-5.896-.19-8.844-.273-3.14-7.633-6.279-15.24-9.418-22.873h8.326l5.432 13.822 5.733-13.822h7.725l-.027.082h-.028zm-8.982 22.955l8.845-22.9h-7.507L75.137 30.37l-5.514-13.985h-8.08l9.335 22.655 8.708.272v-.027zm33.686-11.532c0 .027 0 .218-.027.573-.027.327-.055.79-.082 1.417v.055H96.621c.163.545.409 1.036.71 1.472.327.436.709.818 1.2 1.145.492.3 1.01.545 1.611.709a7.55 7.55 0 0 0 1.993.245 8.95 8.95 0 0 0 1.528-.109c.464-.082.901-.19 1.311-.354a8.27 8.27 0 0 0 1.201-.6 8.662 8.662 0 0 0 1.201-.9l.027-.027c1.42 1.472 2.839 2.972 4.286 4.444l-.027.027c-1.119 1.227-2.484 2.154-4.122 2.78-1.638.628-3.494.928-5.651.928-1.338 0-2.593-.137-3.767-.382a12.946 12.946 0 0 1-3.276-1.145 12.733 12.733 0 0 1-2.702-1.826 11.365 11.365 0 0 1-2.02-2.4c-.546-.9-.983-1.854-1.256-2.89a12.42 12.42 0 0 1-.41-3.244c0-1.117.137-2.18.41-3.19a11.06 11.06 0 0 1 1.228-2.862c.546-.9 1.201-1.69 1.938-2.399.737-.709 1.611-1.309 2.566-1.8.956-.517 1.966-.872 3.058-1.144a15.215 15.215 0 0 1 3.412-.382c1.147 0 2.239.109 3.249.354 1.037.246 2.02.6 2.948 1.064a10.77 10.77 0 0 1 2.511 1.717 10.879 10.879 0 0 1 1.911 2.372c.546.9.955 1.881 1.228 2.917.273 1.063.41 2.208.41 3.408l-.055.027zm-.136.545c.027-.327.027-.518.027-.545 0-1.2-.136-2.344-.409-3.38a11.347 11.347 0 0 0-1.201-2.89 11.404 11.404 0 0 0-1.911-2.345 10.605 10.605 0 0 0-2.484-1.717 13.36 13.36 0 0 0-2.921-1.064c-1.038-.245-2.102-.354-3.249-.354-1.201 0-2.32.136-3.385.382a13.023 13.023 0 0 0-3.03 1.117 10.68 10.68 0 0 0-2.539 1.8 10.13 10.13 0 0 0-1.91 2.372c-.546.872-.929 1.826-1.202 2.835a11.954 11.954 0 0 0-.41 3.162c0 1.118.137 2.209.41 3.217a11.06 11.06 0 0 0 1.229 2.863c.546.9 1.228 1.69 1.993 2.372a10.948 10.948 0 0 0 2.675 1.799c1.01.49 2.102.872 3.248 1.118a18.11 18.11 0 0 0 3.74.381c2.129 0 3.986-.3 5.596-.926a10.396 10.396 0 0 0 4.04-2.727l-4.122-4.28c-.382.327-.791.627-1.173.873-.41.245-.819.463-1.202.627a6.594 6.594 0 0 1-1.31.354 8.943 8.943 0 0 1-1.529.109 7.887 7.887 0 0 1-2.02-.245 5.953 5.953 0 0 1-1.638-.71 4.58 4.58 0 0 1-1.228-1.172 4.96 4.96 0 0 1-.737-1.58l-.027-.082h16.597l.082-1.364zm-12.066-6.624c-.6 0-1.174.081-1.692.272-.52.164-.956.436-1.365.79-.41.355-.737.764-1.01 1.228a5.334 5.334 0 0 0-.546 1.526h9.199a5.036 5.036 0 0 0-.546-1.526 4.841 4.841 0 0 0-1.01-1.227c-.409-.355-.873-.6-1.365-.79a5.499 5.499 0 0 0-1.692-.273h.027zm-1.72.163a5.681 5.681 0 0 1 1.72-.272c.628 0 1.201.081 1.72.272.519.164.983.436 1.419.79.41.355.765.764 1.038 1.255a5.28 5.28 0 0 1 .573 1.636v.054h-9.472v-.054c.109-.6.3-1.145.573-1.636.273-.49.6-.9 1.037-1.254.41-.355.9-.627 1.42-.79h-.028zm25.852 17.694a24.43 24.43 0 0 1-2.839-.164 25.25 25.25 0 0 1-2.812-.49c-.928-.219-1.774-.464-2.512-.764-.737-.273-1.392-.6-1.965-.954l-.027-.028a471.041 471.041 0 0 0 2.429-5.561l.055.027c.519.327 1.092.6 1.692.872a18.85 18.85 0 0 0 1.993.655c.71.19 1.42.327 2.129.436.71.082 1.42.136 2.102.136.655 0 1.201-.027 1.638-.109.464-.054.819-.163 1.092-.3.273-.136.464-.272.601-.463.136-.19.191-.382.191-.627a.8.8 0 0 0-.246-.6c-.164-.164-.409-.3-.71-.409a7.48 7.48 0 0 0-1.283-.3c-.518-.109-1.146-.19-1.856-.3a50.826 50.826 0 0 1-2.539-.381 20.5 20.5 0 0 1-2.129-.491 7.112 7.112 0 0 1-1.802-.79 7.326 7.326 0 0 1-1.528-1.255 5.048 5.048 0 0 1-1.065-1.772c-.246-.681-.355-1.472-.355-2.372 0-1.472.437-2.78 1.31-3.925a7.171 7.171 0 0 1 1.611-1.527c.628-.463 1.365-.845 2.211-1.172a13.572 13.572 0 0 1 2.757-.736 20.174 20.174 0 0 1 3.249-.246c.819 0 1.665.055 2.484.137a25.51 25.51 0 0 1 2.457.381c.819.164 1.556.382 2.238.6a13.06 13.06 0 0 1 1.857.818l.054.027a472.11 472.11 0 0 0-2.429 5.507l-.055-.027c-1.01-.545-2.047-.982-3.139-1.254a13.868 13.868 0 0 0-3.385-.41c-.628 0-1.174.028-1.638.11-.464.082-.819.19-1.119.327-.301.136-.492.3-.656.49-.136.192-.218.383-.218.6 0 .246.082.464.218.655.164.19.383.327.71.409.328.109.737.218 1.283.327.519.109 1.174.218 1.911.327.928.136 1.802.3 2.566.464.792.163 1.474.327 2.102.518a6.74 6.74 0 0 1 1.747.79 7.077 7.077 0 0 1 1.502 1.227c.464.49.818 1.063 1.037 1.745a7.7 7.7 0 0 1 .355 2.344 6.2 6.2 0 0 1-1.311 3.872 6.75 6.75 0 0 1-1.637 1.526 10.17 10.17 0 0 1-2.239 1.145c-.846.327-1.802.573-2.812.736-1.01.164-2.129.246-3.33.246l.055-.027zm-2.839-.273a24.43 24.43 0 0 0 2.839.163 20.58 20.58 0 0 0 3.303-.245 15.959 15.959 0 0 0 2.784-.709 10.5 10.5 0 0 0 2.211-1.145 7.727 7.727 0 0 0 1.611-1.5c.873-1.117 1.283-2.398 1.283-3.816 0-.872-.109-1.636-.328-2.29a4.92 4.92 0 0 0-1.01-1.718 8.783 8.783 0 0 0-1.474-1.226 7.022 7.022 0 0 0-1.72-.764c-.627-.19-1.31-.354-2.074-.518-.765-.163-1.638-.3-2.566-.463a33.673 33.673 0 0 1-1.911-.327 10.655 10.655 0 0 1-1.283-.327c-.328-.11-.573-.273-.737-.464a1.066 1.066 0 0 1-.246-.709 1.1 1.1 0 0 1 .246-.681 1.96 1.96 0 0 1 .682-.518c.3-.137.683-.273 1.147-.327.464-.082 1.01-.11 1.638-.11 1.173 0 2.32.137 3.412.41 1.092.272 2.129.681 3.112 1.226l2.348-5.316c-.546-.3-1.12-.572-1.775-.79a15.646 15.646 0 0 0-2.238-.6 25.45 25.45 0 0 0-2.457-.382 24.729 24.729 0 0 0-2.457-.136 19.65 19.65 0 0 0-3.221.245c-.983.164-1.911.41-2.73.736-.819.327-1.556.709-2.184 1.172a6.935 6.935 0 0 0-1.583 1.5c-.874 1.118-1.283 2.399-1.283 3.844 0 .872.109 1.663.355 2.345a4.502 4.502 0 0 0 1.037 1.744c.464.491.956.9 1.501 1.227.546.327 1.147.6 1.775.763.628.191 1.337.355 2.102.491.764.137 1.61.273 2.511.382.71.109 1.338.19 1.857.3.518.109.955.218 1.283.3.327.109.6.245.764.436.164.19.273.409.273.681 0 .273-.082.491-.219.71-.136.19-.354.38-.627.517-.273.136-.656.245-1.12.3-.464.055-1.01.11-1.665.11a18.6 18.6 0 0 1-2.129-.137c-.71-.082-1.42-.246-2.129-.436-.71-.191-1.393-.41-1.993-.682a10.526 10.526 0 0 1-1.665-.845l-2.348 5.37c.546.328 1.174.655 1.911.928.737.272 1.583.545 2.484.736a24.79 24.79 0 0 0 2.785.49l-.082.055zm33.303-1.036a6.112 6.112 0 0 1-1.119.572 9.55 9.55 0 0 1-1.337.41c-.492.108-.983.19-1.502.245-.519.054-1.037.082-1.61.082-1.502 0-2.812-.191-3.959-.546a7.831 7.831 0 0 1-2.921-1.636c-.819-.736-1.419-1.635-1.801-2.753-.41-1.09-.601-2.372-.601-3.817V23.2h-3.33v-6.08h3.33v-5.915h8.108v5.916h5.214v6.08h-5.214v7.497c0 .408.054.763.164 1.063.109.3.272.572.464.818.218.218.464.381.737.517.273.11.6.164.955.164a4.86 4.86 0 0 0 1.283-.163c.41-.11.764-.3 1.119-.518l.055-.028c.682 1.909 1.337 3.79 2.02 5.698l-.027.027-.028-.054zm-1.173.463a9.605 9.605 0 0 0 1.064-.518l-1.938-5.48a3.95 3.95 0 0 1-1.092.491 5.06 5.06 0 0 1-1.31.191c-.382 0-.71-.054-1.01-.19-.301-.11-.546-.3-.792-.546a2.379 2.379 0 0 1-.491-.845 3.396 3.396 0 0 1-.164-1.09V23.09h5.214v-5.86h-5.214v-5.916h-7.889v5.916h-3.331v5.861h3.331v7.688c0 1.445.191 2.7.6 3.762.41 1.064.983 1.963 1.775 2.7.791.736 1.747 1.254 2.893 1.635 1.147.355 2.457.545 3.931.545.546 0 1.065-.027 1.584-.081.518-.055 1.01-.137 1.501-.246a8.56 8.56 0 0 0 1.338-.409z" fill="#34383D"/><path d="M22.916 10.005l7.643-.49c.11 0 .246 0 .355.054a.72.72 0 0 1 .3.19.716.716 0 0 1 .191.3c.027.11.055.219.055.355l-1.83 27.672c-.026.218-.108.409-.272.545a.83.83 0 0 1-.573.218l-6.962-.055c-.109 0-.218-.027-.327-.054a.98.98 0 0 1-.273-.191c-.082-.082-.136-.19-.191-.273a1.366 1.366 0 0 1-.055-.327l1.147-27.126c0-.218.109-.409.245-.545a.786.786 0 0 1 .547-.245v-.028zm7.67-.136l-7.643.49a.439.439 0 0 0-.3.137.438.438 0 0 0-.137.3L21.36 37.922c0 .055 0 .136.027.19.027.055.054.11.109.164.055.055.11.082.164.11.054.027.109.027.19.027l6.962.054a.452.452 0 0 0 .327-.136.437.437 0 0 0 .137-.3l1.829-27.671c0-.082 0-.137-.027-.191-.028-.055-.055-.11-.11-.164a.571.571 0 0 0-.163-.109c-.055-.027-.137-.027-.192-.027h-.027zm20.556 6.161c1.42 0 2.702.137 3.822.491 1.119.354 2.129.9 3.002 1.772.901.873 1.447 1.936 1.775 3.244.327 1.282.41 2.781.355 4.499l-.464 12.35c0 .218-.11.436-.273.572a.882.882 0 0 1-.574.218l-6.47-.109a.727.727 0 0 1-.327-.082.98.98 0 0 1-.273-.19.65.65 0 0 1-.164-.3 1.366 1.366 0 0 1-.054-.328l.764-10.877c0-.191.027-.382.027-.573 0-1.227-.3-2.18-.846-2.808-.546-.627-1.338-1.009-2.348-1.063h-.382c-.655 0-1.256.109-1.774.327a4.376 4.376 0 0 0-1.392.954 4.151 4.151 0 0 0-.874 1.609c-.191.654-.3 1.417-.328 2.317l-.327 10.496c0 .11-.027.218-.082.327a.98.98 0 0 1-.191.273.566.566 0 0 1-.273.163 1.37 1.37 0 0 1-.328.055l-6.988-.245a.852.852 0 0 1-.573-.246c-.137-.163-.246-.354-.219-.6l.383-21.1a.88.88 0 0 1 .218-.573.786.786 0 0 1 .546-.245l6.142-.382c.11 0 .246 0 .355.054.11.055.218.11.3.191a.704.704 0 0 1 .191.3c.028.11.055.218.055.354l-.055.628c0 .081 0 .19.055.245.027.082.11.136.19.19.083.055.165.055.247.055a.441.441 0 0 0 .245-.082c.41-.272.847-.545 1.31-.79.465-.246.956-.464 1.365-.654 1.12-.437 2.403-.437 3.713-.437h.519zm3.712.818c-1.092-.327-2.32-.463-3.712-.463h-.519c-1.256 0-2.539-.027-3.576.409-.41.163-.873.381-1.338.627-.436.245-.873.49-1.255.763a.826.826 0 0 1-.437.136.801.801 0 0 1-.437-.109.94.94 0 0 1-.327-.327.678.678 0 0 1-.082-.463l.054-.627c0-.082 0-.137-.027-.191a.549.549 0 0 0-.11-.164c-.054-.054-.108-.081-.163-.109-.055-.027-.136-.027-.191-.027l-6.142.382a.438.438 0 0 0-.3.136.451.451 0 0 0-.137.327l-.382 21.101c0 .136.054.245.136.327a.452.452 0 0 0 .328.137l6.988.245c.055 0 .137 0 .191-.027a.57.57 0 0 0 .164-.11.474.474 0 0 0 .11-.136c.027-.054.027-.109.027-.19l.327-10.496c.028-.9.137-1.718.328-2.4.218-.708.519-1.28.955-1.744a4.44 4.44 0 0 1 1.502-1.064c.573-.245 1.2-.354 1.91-.354.137 0 .274 0 .41.027 1.092.082 1.993.464 2.593 1.2.6.709.956 1.717.956 3.053 0 .191 0 .382-.028.6l-.764 10.878c0 .081 0 .136.027.19.028.055.055.11.11.164.054.055.109.082.163.11.055.026.11.026.191.026l6.47.11a.452.452 0 0 0 .328-.137.451.451 0 0 0 .136-.327l.464-12.35c.055-1.663-.027-3.135-.327-4.39-.3-1.226-.847-2.262-1.693-3.08a6.844 6.844 0 0 0-2.866-1.69l-.055.027zm33.905.436l-9.446 21.129a.886.886 0 0 1-.273.354.736.736 0 0 1-.409.136l-7.48.518c-.19 0-.355-.027-.491-.109a.752.752 0 0 1-.328-.381l-9.008-21.92a.714.714 0 0 1-.055-.408.957.957 0 0 1 .164-.382.802.802 0 0 1 .328-.273c.136-.054.273-.081.41-.081l7.533.654c.164 0 .3.055.41.164.11.081.218.218.273.354l4.722 11.368c.028.082.11.164.164.218a.461.461 0 0 0 .273.082c.11 0 .191-.027.273-.082a.424.424 0 0 0 .164-.218l4.231-11.477a.705.705 0 0 1 .3-.382c.137-.081.3-.136.465-.163l7.015-.218c.137 0 .273.027.41.081a.954.954 0 0 1 .3.273c.082.11.137.245.137.382 0 .136 0 .272-.082.409v-.028zm-9.773 20.992l9.445-21.128c.027-.082.055-.163.027-.245a.31.31 0 0 0-.082-.218.464.464 0 0 0-.163-.164c-.082-.027-.137-.055-.219-.055l-7.015.219a.462.462 0 0 0-.273.081.423.423 0 0 0-.164.219L76.31 28.462a.705.705 0 0 1-.3.382c-.137.081-.3.136-.465.163a.921.921 0 0 1-.464-.136.705.705 0 0 1-.3-.382l-4.723-11.368c-.027-.082-.081-.164-.163-.191-.055-.055-.137-.082-.246-.082l-7.534-.654c-.082 0-.164 0-.246.027a.367.367 0 0 0-.191.164c-.055.081-.082.136-.082.218 0 .082 0 .163.027.245l9.009 21.92a.49.49 0 0 0 .19.217c.083.055.192.082.274.055l7.48-.518a.441.441 0 0 0 .245-.082c.055-.054.11-.11.164-.19v.026zm34.641-11.232c0 .11 0 .764-.054 1.663 0 .218-.11.41-.246.546-.137.136-.355.218-.573.245l-15.205.163a.516.516 0 0 0-.219.055c-.054.027-.136.082-.164.164-.054.081-.081.136-.081.218 0 .082 0 .163.054.218.219.463.492.954.82 1.336.3.354.6.681.927.9.847.545 2.129.545 3.44.545h.3a8.63 8.63 0 0 0 1.501-.11 8.59 8.59 0 0 0 1.283-.327l.137-.054c.546-.218.846-.327 1.338-.709a.896.896 0 0 1 .518-.164c.191 0 .355.082.519.191l3.276 2.754c.082.082.163.163.218.272a.72.72 0 0 1 .082.328c0 .109 0 .218-.055.327-.027.109-.109.19-.191.272-1.092 1.118-2.293 2.018-3.74 2.645-1.446.627-3.112 1.009-5.132 1.009a18.87 18.87 0 0 1-3.794-.382 13.141 13.141 0 0 1-3.303-1.145 11.439 11.439 0 0 0-.82-.41c-1.719-.844-3.248-1.58-4.23-3.162a11.07 11.07 0 0 1-1.256-2.971 12.82 12.82 0 0 1-.437-3.408c0-1.118.055-2.4.219-3.653.19-1.227.518-2.426 1.064-3.326 1.038-1.718 3.003-2.754 4.832-3.708l.355-.19c.955-.519 1.993-.9 3.085-1.146a15.64 15.64 0 0 1 3.439-.381c1.147 0 2.239.109 3.276.354s2.047.6 2.975 1.063a11.628 11.628 0 0 1 2.539 1.745 11.15 11.15 0 0 1 1.938 2.4c.546.899.901 1.744 1.092 2.644.191.9.273 1.908.273 3.135v.054zm-.355 0c0-1.2-.054-2.18-.245-3.053-.191-.872-.519-1.663-1.038-2.535a10.292 10.292 0 0 0-1.883-2.318 10.609 10.609 0 0 0-2.457-1.69 11.815 11.815 0 0 0-2.894-1.036 15.135 15.135 0 0 0-3.221-.354 14.93 14.93 0 0 0-3.358.381 12.818 12.818 0 0 0-3.002 1.118l-.355.19c-1.802.955-3.713 1.964-4.695 3.572-.52.873-.847 2.018-1.01 3.19-.192 1.2-.219 2.48-.219 3.599 0 1.145.137 2.262.41 3.326.272 1.035.682 1.99 1.2 2.862.929 1.5 2.43 2.236 4.095 3.026.246.136.52.246.82.41.982.49 2.074.872 3.22 1.117a17.87 17.87 0 0 0 3.713.382c1.966 0 3.576-.355 4.968-.982 1.393-.627 2.566-1.5 3.631-2.59.055-.054.082-.109.109-.163.027-.055.027-.11.027-.191a.397.397 0 0 0-.054-.191c-.027-.054-.055-.11-.109-.136l-3.276-2.754a.41.41 0 0 0-.3-.109.411.411 0 0 0-.301.11c-.518.408-.846.517-1.419.735l-.137.055a6.86 6.86 0 0 1-1.337.354 9.51 9.51 0 0 1-1.556.11h-.301c-1.364 0-2.702 0-3.63-.6a4.278 4.278 0 0 1-1.01-.982 9.42 9.42 0 0 1-.874-1.418 1.095 1.095 0 0 1-.082-.409.65.65 0 0 1 .137-.381.945.945 0 0 1 .3-.273.906.906 0 0 1 .41-.109l15.205-.163a.452.452 0 0 0 .327-.137.451.451 0 0 0 .137-.327c.054-.9.054-1.527.054-1.636zm-11.683-5.316c-.601 0-1.365.027-2.048.136-.682.11-1.283.3-1.665.627-.273.219-.519.573-.71.955a7.798 7.798 0 0 0-.573 1.58.3.3 0 0 0 0 .219c.028.082.055.136.082.19a.72.72 0 0 0 .164.137.287.287 0 0 0 .218.027l7.944-.327c.082 0 .136-.027.191-.054.055-.027.109-.082.164-.137.054-.054.082-.109.082-.163a.235.235 0 0 0 0-.191c-.082-.436-.137-.818-.273-1.145-.137-.327-.3-.627-.601-.872-.409-.328-.846-.6-1.337-.764a5.172 5.172 0 0 0-1.638-.245v.027zm-2.102-.218c.71-.109 1.474-.136 2.102-.136.628 0 1.228.082 1.747.272.546.191 1.01.464 1.447.818.354.3.573.627.709 1.009.137.382.219.763.301 1.227a.53.53 0 0 1-.028.354.653.653 0 0 1-.163.3 1.058 1.058 0 0 1-.273.218.732.732 0 0 1-.328.082l-7.944.327a.873.873 0 0 1-.382-.082.852.852 0 0 1-.3-.245.9.9 0 0 1-.164-.736 8.626 8.626 0 0 1 .6-1.663c.219-.436.492-.818.792-1.063.437-.382 1.12-.573 1.857-.71l.027.028zm26.233 18.075a25.24 25.24 0 0 1-2.866-.164 24.246 24.246 0 0 1-2.812-.49 27.073 27.073 0 0 1-2.184-.627c-.655-.246-1.255-.491-1.801-.79a.792.792 0 0 1-.382-.464.904.904 0 0 1 .027-.6l1.883-4.253a.989.989 0 0 1 .192-.273.647.647 0 0 1 .3-.163c.109-.028.218-.055.327-.055.11 0 .219.055.328.11.437.245.928.463 1.419.653a27.34 27.34 0 0 0 1.611.518c.71.191 1.42.328 2.102.41.71.081 1.392.136 2.102.136.628 0 1.174-.028 1.638-.11a3.74 3.74 0 0 0 1.037-.272 1.29 1.29 0 0 0 .546-.436c.109-.164.164-.355.164-.573 0-.218-.055-.381-.191-.518-.137-.163-.355-.272-.655-.381-.382-.11-1.12-.191-1.966-.246-.546-.054-1.146-.081-1.747-.163-1.31-.164-2.184-.464-3.03-.736-.328-.11-.655-.218-1.037-.327a8.424 8.424 0 0 1-1.829-.791 6.938 6.938 0 0 1-1.556-1.281c-.464-.491-.983-1.118-1.392-1.827-.41-.736-.71-1.554-.71-2.48 0-1.337.873-2.482 1.692-3.518a5.44 5.44 0 0 0 .301-.409c.436-.572.955-1.2 1.583-1.744a7.082 7.082 0 0 1 2.211-1.39c1.556-.6 3.44-.6 5.542-.6h.6c.819 0 1.665.054 2.484.136a25.51 25.51 0 0 1 2.457.381c.683.137 1.256.273 1.774.437.519.163.983.327 1.447.545a.804.804 0 0 1 .41.436.762.762 0 0 1 0 .6l-1.584 4.362a1.113 1.113 0 0 1-.191.3.808.808 0 0 1-.3.19c-.109.055-.218.055-.328.055a.725.725 0 0 1-.327-.082 13.24 13.24 0 0 0-2.812-.981 13.76 13.76 0 0 0-3.03-.327c-.327 0-.682 0-.983-.028-.791-.027-1.446-.054-1.856.137a1.96 1.96 0 0 0-.655.6c-.164.245-.273.517-.273.736 0 .19.109.327.273.463.218.19.546.327.873.436.137.055.273.11.437.137.573.218 1.338.49 2.512.654.546.082 1.064.163 1.556.218 1.283.163 2.484.327 3.385.6a7.98 7.98 0 0 1 1.774.79 7.338 7.338 0 0 1 1.529 1.254c.819.873.791 1.99.764 3.38v1.474c.027 1.199.055 2.29-.71 3.27-.901 1.173-2.347 1.718-4.067 2.372h-.027c-.847.328-1.748.655-2.758.9s-2.074.409-3.275.409h.054zm-2.811-.518c.928.11 1.883.164 2.811.164a12.74 12.74 0 0 0 3.194-.41c.983-.245 1.856-.572 2.703-.899h.027c1.665-.627 3.057-1.172 3.904-2.263.682-.9.655-1.935.627-3.053v-1.472c.028-1.336.055-2.372-.682-3.136a7.513 7.513 0 0 0-1.447-1.199 7.296 7.296 0 0 0-1.692-.763c-.874-.246-2.048-.41-3.331-.573-.518-.082-1.037-.136-1.556-.218a12.22 12.22 0 0 1-2.566-.682c-.163-.054-.3-.109-.409-.136a2.95 2.95 0 0 1-1.01-.518.942.942 0 0 1-.382-.736c0-.273.136-.627.355-.927.191-.272.491-.545.791-.709.464-.245 1.174-.218 2.02-.19.301 0 .628.027.983.027 1.065 0 2.102.109 3.112.354 1.01.218 1.965.573 2.894 1.009a.502.502 0 0 0 .191.054c.054 0 .136 0 .191-.027.054-.027.109-.054.164-.109.054-.055.081-.109.109-.164l1.583-4.361c.055-.11.027-.246 0-.328a.534.534 0 0 0-.246-.245 7.689 7.689 0 0 0-1.392-.518c-.519-.164-1.092-.273-1.747-.409a25.25 25.25 0 0 0-2.429-.382 24.729 24.729 0 0 0-2.457-.136h-.601c-2.075 0-3.931 0-5.405.573a6.921 6.921 0 0 0-2.102 1.335c-.6.546-1.092 1.146-1.529 1.69-.081.11-.191.273-.327.41-.792 1.008-1.611 2.072-1.611 3.298 0 .846.273 1.636.655 2.29.383.682.901 1.282 1.338 1.773.464.49.955.872 1.474 1.2a7.71 7.71 0 0 0 1.747.762l1.065.328c.846.272 1.692.572 2.975.736.546.081 1.147.109 1.72.163.846.082 1.611.136 2.047.273.355.109.628.272.819.463.192.218.301.464.301.764s-.082.545-.246.763a1.732 1.732 0 0 1-.682.545 4.84 4.84 0 0 1-1.147.327 14.16 14.16 0 0 1-1.692.11c-.71 0-1.42-.055-2.13-.137a20.156 20.156 0 0 1-2.156-.436 23.68 23.68 0 0 1-1.665-.518c-.519-.19-1.01-.409-1.475-.654a.393.393 0 0 0-.191-.055c-.054 0-.136 0-.191.027-.054.028-.109.055-.163.11a.351.351 0 0 0-.11.163l-1.883 4.253a.53.53 0 0 0-.028.354c.028.11.11.191.219.273.518.273 1.092.518 1.747.763.655.218 1.365.437 2.156.627.929.218 1.857.382 2.785.491l-.027-.109zm32.566-.354a5.3 5.3 0 0 1-.791.3 11.91 11.91 0 0 1-.956.245c-.764.163-1.829.163-2.757.136h-.846c-1.502 0-2.839-.054-4.013-.272-1.201-.218-2.211-.655-3.03-1.39-1.638-1.5-1.774-4.036-1.884-6.953l-.327-7.088a.511.511 0 0 0-.055-.19c-.027-.055-.054-.11-.109-.137a.573.573 0 0 0-.164-.11c-.054-.026-.109-.026-.191-.026l-1.965.163c-.11 0-.246 0-.355-.054a.71.71 0 0 1-.301-.191.855.855 0 0 1-.191-.273c-.054-.109-.054-.218-.054-.327l.136-4.853c0-.109.028-.218.082-.327a.985.985 0 0 1 .191-.273.705.705 0 0 1 .301-.19c.109-.028.218-.055.354-.028l2.621.682h.137c.054-.027.136-.054.191-.11.054-.054.109-.108.136-.19.027-.054.027-.109.027-.136l-.928-5.453a.544.544 0 0 1 .055-.354 1.18 1.18 0 0 1 .218-.3 1.12 1.12 0 0 1 .301-.19c.109-.028.218-.055.327-.055l6.442.381c.219 0 .41.11.546.246a.915.915 0 0 1 .246.545l.273 4.417a.44.44 0 0 0 .137.3.437.437 0 0 0 .3.136l3.985.272c.219.027.437.11.574.273a.955.955 0 0 1 .218.6l-.246 4.416a.7.7 0 0 1-.218.518.846.846 0 0 1-.519.245l-3.74.382a.438.438 0 0 0-.3.137c-.082.081-.109.19-.136.3-.055.708-.137 1.39-.219 2.044-.327 2.535-.573 4.58 1.174 6.461.191.218.437.382.71.464.273.109.573.163.928.163.328 0 .601 0 .819-.027a2.3 2.3 0 0 0 .655-.163c.109-.055.218-.055.328-.055a.72.72 0 0 1 .327.082.988.988 0 0 1 .273.19.563.563 0 0 1 .164.273l1.556 4.335c.082.19.055.409 0 .6a.802.802 0 0 1-.409.436l-.028-.027zm-.873-.055c.273-.082.491-.163.737-.273a.532.532 0 0 0 .245-.245.345.345 0 0 0 0-.327l-1.556-4.335a.555.555 0 0 0-.109-.163.345.345 0 0 0-.164-.11.393.393 0 0 0-.191-.054c-.054 0-.109 0-.191.027a2.418 2.418 0 0 1-.764.191c-.273.028-.546.028-.874.028-.382 0-.737-.055-1.037-.191a2.227 2.227 0 0 1-.819-.573c-1.883-1.99-1.61-4.117-1.283-6.761.082-.654.164-1.309.219-2.017a.921.921 0 0 1 .245-.518.846.846 0 0 1 .519-.246l3.74-.381a.438.438 0 0 0 .3-.137c.082-.082.109-.19.136-.3l.246-4.389c0-.136-.027-.245-.109-.327a.623.623 0 0 0-.328-.164l-3.985-.272a1.002 1.002 0 0 1-.546-.246.92.92 0 0 1-.246-.545l-.273-4.416a.436.436 0 0 0-.136-.3.439.439 0 0 0-.301-.137l-6.442-.381c-.082 0-.136 0-.191.027a.57.57 0 0 0-.164.11c-.054.054-.109.108-.136.163-.028.054-.028.081-.028.136l.929 5.453a.519.519 0 0 1-.055.354 1.244 1.244 0 0 1-.218.3.654.654 0 0 1-.328.19c-.109.028-.218.055-.355.028l-2.62-.682h-.137c-.055.028-.136.055-.191.11a.555.555 0 0 0-.109.163c-.028.055-.028.109-.055.19l-.136 4.853c0 .082 0 .137.027.191.027.055.055.11.109.164a.573.573 0 0 0 .164.109c.055.027.136.027.191.027l1.965-.163c.11 0 .219 0 .328.027a.82.82 0 0 1 .3.163c.082.082.164.164.191.273a.72.72 0 0 1 .082.327l.328 7.088c.136 2.836.246 5.29 1.774 6.707.765.709 1.72 1.09 2.867 1.309 1.146.218 2.484.272 3.958.272h.846c.928.028 1.966.055 2.675-.109.355-.082.655-.163.928-.245l.028.027z" fill="#34383D"/><path d="M22.697 9.733l7.453-.6c.109 0 .218 0 .327.027a.56.56 0 0 1 .273.164.566.566 0 0 1 .164.272c.027.11.055.191.055.3l-1.884 27.726a.643.643 0 0 1-.191.436.742.742 0 0 1-.437.218l-6.06 1.01c-.11.026-.218 0-.328-.028a.567.567 0 0 1-.272-.164c-.082-.081-.164-.163-.192-.245-.054-.11-.054-.19-.054-.327l.491-28.108c0-.19.082-.354.191-.49a.64.64 0 0 1 .492-.219l-.028.028zm7.48-.437l-7.452.6a.542.542 0 0 0-.355.164.814.814 0 0 0-.164.381l-.491 28.108c0 .082.027.164.054.245a.489.489 0 0 0 .137.191c.054.055.136.11.218.11a.38.38 0 0 0 .246 0l6.06-1.01a.623.623 0 0 0 .328-.163.503.503 0 0 0 .136-.327l1.884-27.726c0-.082 0-.164-.028-.245a.486.486 0 0 0-.136-.191.83.83 0 0 0-.191-.137c-.082-.027-.164-.027-.246-.027v.027zm21.238 7.198c1.42 0 2.593.027 3.63.3a5.72 5.72 0 0 1 2.84 1.58c.9.9 1.665 2.073 2.129 3.49.41 1.282.6 2.781.437 4.39l-1.174 11.859a.705.705 0 0 1-.246.463.785.785 0 0 1-.491.191l-6.252.164c-.109 0-.19 0-.3-.055a.645.645 0 0 1-.245-.163.644.644 0 0 1-.164-.246.978.978 0 0 1-.055-.3l.027-10.523c0-1.527-.109-2.672-.546-3.435-.436-.736-1.146-1.09-2.375-1.09-.327 0-.682-.028-1.01-.055-1.064-.082-2.129-.136-2.73.49-.463.519-.382 1.418-.272 2.427.082.709.136 1.445.054 2.181l-1.337 9.95a.83.83 0 0 1-.219.437.644.644 0 0 1-.437.19l-6.933.6c-.11 0-.219 0-.3-.027a.566.566 0 0 1-.273-.163.566.566 0 0 1-.164-.273c-.028-.109-.055-.19-.055-.3l1.147-21.21c0-.163.082-.327.19-.463a.776.776 0 0 1 .438-.246l5.35-.9c.11-.027.218 0 .328.028.109.027.19.082.273.163.081.082.163.164.19.273.055.11.055.218.055.327l-.027.818c0 .11.027.218.082.3a.83.83 0 0 0 .218.218c.11.055.191.082.3.055.11 0 .192-.055.3-.11.465-.326 1.01-.681 1.53-.954.518-.3 1.037-.545 1.474-.736.791-.3 1.828-.109 2.839.082.627.136 1.255.245 1.801.245l-.027.028zm3.603.463c-1.01-.245-2.184-.272-3.603-.272-.573 0-1.201-.137-1.829-.246-1.01-.19-2.02-.381-2.757-.109-.41.164-.928.41-1.447.709-.519.3-1.037.627-1.501.954a.653.653 0 0 1-.383.137c-.136 0-.273-.028-.409-.082a.974.974 0 0 1-.3-.273.652.652 0 0 1-.082-.409l.027-.818c0-.081 0-.163-.055-.245a.488.488 0 0 0-.136-.19c-.054-.055-.136-.11-.218-.11a.38.38 0 0 0-.246 0l-5.35.9a.506.506 0 0 0-.328.19.518.518 0 0 0-.137.355l-1.146 21.21c0 .082 0 .164.027.245a.488.488 0 0 0 .137.191.831.831 0 0 0 .19.137.756.756 0 0 0 .246.027l6.934-.6a.39.39 0 0 0 .328-.163.621.621 0 0 0 .164-.328l1.337-9.95c.082-.71.027-1.445-.054-2.127-.11-1.063-.191-1.99.327-2.563.655-.708 1.775-.627 2.867-.572.327.027.682.055 1.01.055 1.283 0 2.074.408 2.511 1.199.437.79.573 1.963.573 3.517l-.027 10.523c0 .082.027.164.054.218a.827.827 0 0 0 .137.191.49.49 0 0 0 .191.136.532.532 0 0 0 .218.028l6.252-.164a.52.52 0 0 0 .355-.136.44.44 0 0 0 .163-.355l1.174-11.859a10.633 10.633 0 0 0-.437-4.334c-.436-1.39-1.173-2.563-2.074-3.436-.846-.817-1.72-1.28-2.757-1.526l.054-.055zm32.622.682l-7.507 21.646a.813.813 0 0 1-.273.382.921.921 0 0 1-.465.136l-8.98-.463a.671.671 0 0 1-.41-.137.83.83 0 0 1-.246-.354l-7.398-21.374c-.027-.109-.054-.218-.027-.327a1.5 1.5 0 0 1 .11-.327.705.705 0 0 1 .245-.245.728.728 0 0 1 .328-.082l7.561-.41c.164 0 .355.055.464.137.137.11.246.245.273.41l3.222 12.213a.71.71 0 0 0 .19.3c.082.081.192.109.328.136a.582.582 0 0 0 .328-.082c.109-.055.163-.163.218-.273l4.64-11.94a.886.886 0 0 1 .274-.355c.136-.082.273-.136.436-.109l6.006.19a.65.65 0 0 1 .328.083c.109.054.19.136.245.245.082.109.11.218.137.327.027.11 0 .218-.027.355v-.082zM79.942 39.23l7.507-21.647c.027-.081.027-.163.027-.272 0-.082-.055-.164-.11-.246a.367.367 0 0 0-.19-.163.797.797 0 0 0-.246-.055l-6.006-.19a.65.65 0 0 0-.327.081.743.743 0 0 0-.219.273l-4.64 11.94a.645.645 0 0 1-.3.355c-.137.082-.274.136-.438.11a.67.67 0 0 1-.436-.164c-.11-.11-.219-.218-.246-.382l-3.221-12.214a.422.422 0 0 0-.218-.3.55.55 0 0 0-.355-.109l-7.562.41a.441.441 0 0 0-.246.081c-.081.055-.136.11-.19.164a.44.44 0 0 0-.083.245c0 .082 0 .164.028.245l7.398 21.374c.027.11.109.191.19.273a.573.573 0 0 0 .3.109l8.982.463a.757.757 0 0 0 .355-.081c.109-.055.164-.164.218-.273l.028-.027zM113.9 27.07v.055c0 .218.028 1.145 0 2.1 0 .108-.027.19-.054.272-.027.082-.109.163-.164.245-.082.082-.164.11-.246.164a.984.984 0 0 1-.3.054l-15.587-.708c-.082 0-.191 0-.273.054-.082.027-.137.082-.219.164-.054.081-.109.163-.109.245-.027.082 0 .164 0 .273.164.572.355 1.226.6 1.772.246.545.547 1.008.902 1.254.928.6 2.675.6 4.122.6h.027c.874 0 1.665-.328 2.348-.6.163-.055.3-.136.436-.191l.983-.409c.328-.164.628-.354.956-.6a.588.588 0 0 1 .464-.136.74.74 0 0 1 .464.164l3.412 2.862c.082.082.136.164.191.245.055.082.055.191.082.3a.958.958 0 0 1-.055.3.776.776 0 0 1-.163.245c-1.12 1.064-2.512 1.909-4.122 2.454-1.611.545-3.413.845-5.406.845-1.337 0-2.538-.081-3.63-.327a12.11 12.11 0 0 1-3.167-1.09c-.628-.328-1.31-.546-1.965-.791-1.42-.49-2.73-.927-3.494-2.181-.983-1.608-.983-3.708-.956-5.78v-.79c0-1.118.055-2.318.273-3.435.191-1.118.546-2.209 1.092-3.108.546-.9 1.31-1.636 2.184-2.29.874-.627 1.829-1.172 2.784-1.69.273-.137.519-.273.737-.41 1.638-.9 3.249-1.772 5.351-1.772 1.201 0 2.429.11 3.603.355 1.065.218 2.102.545 3.003 1.009.928.463 1.72 1.145 2.402 1.935.683.79 1.256 1.663 1.802 2.563.546.9.983 1.717 1.283 2.617.3.9.464 1.881.464 3.108l-.055.055zm-.191.055v-.054c0-1.2-.163-2.181-.436-3.054-.301-.9-.71-1.69-1.256-2.563-.546-.872-1.119-1.771-1.775-2.535-.655-.763-1.419-1.418-2.347-1.881-.874-.436-1.884-.763-2.948-.981a17.68 17.68 0 0 0-3.576-.355c-2.048 0-3.631.873-5.269 1.745-.246.136-.519.273-.764.409-.956.49-1.911 1.036-2.757 1.663-.847.627-1.584 1.363-2.13 2.235-.546.873-.873 1.936-1.064 3.027a20.488 20.488 0 0 0-.273 3.407v.79c-.028 2.018-.028 4.118.928 5.672.737 1.2 2.02 1.635 3.412 2.099.655.218 1.338.463 1.993.79 1.01.491 2.02.846 3.112 1.064 1.092.218 2.266.3 3.603.3 1.966 0 3.767-.273 5.323-.818 1.584-.546 2.949-1.364 4.04-2.427a.482.482 0 0 0 .137-.19c.027-.082.055-.137.027-.219a.517.517 0 0 0-.054-.218.494.494 0 0 0-.137-.19l-3.412-2.863a.574.574 0 0 0-.71-.027 6.292 6.292 0 0 1-.983.6c-.327.163-.655.3-.982.435-.137.055-.301.11-.437.191-.71.3-1.501.627-2.43.627h-.027c-1.474 0-3.221 0-4.231-.654-.41-.245-.71-.736-.983-1.336a15.667 15.667 0 0 1-.628-1.8c-.027-.108-.027-.245-.027-.354.027-.109.082-.218.136-.327a.694.694 0 0 1 .273-.218c.11-.054.219-.081.355-.054L113 29.77c.081 0 .163 0 .218-.027.055-.027.136-.054.191-.109a.734.734 0 0 0 .137-.163.518.518 0 0 0 .054-.218c.027-.955.027-1.882 0-2.1l.109-.027zm-12.147-5.807c-.628 0-1.42.137-2.13.327-.655.191-1.255.464-1.638.791-.272.245-.518.6-.737 1.009-.245.49-.436 1.063-.6 1.635a.378.378 0 0 0 0 .246.548.548 0 0 0 .11.218c.054.082.108.136.19.163a.797.797 0 0 0 .246.055h7.725a.518.518 0 0 0 .219-.055.483.483 0 0 0 .191-.136c.054-.054.109-.136.109-.19.027-.083.027-.137.027-.219 0-.109-.027-.245-.027-.381-.055-.846-.109-1.636-.655-2.1a8.176 8.176 0 0 0-1.365-.954c-.492-.245-1.065-.436-1.665-.436v.027zm-2.184.164c.737-.218 1.528-.355 2.184-.355.627 0 1.201.191 1.747.464.518.272.982.627 1.419.981.601.518.655 1.336.737 2.236 0 .136.028.245.028.381 0 .11 0 .219-.028.3a.722.722 0 0 1-.164.273 1.453 1.453 0 0 1-.245.19.981.981 0 0 1-.3.055H97.03a.727.727 0 0 1-.327-.081c-.11-.055-.192-.11-.246-.219-.082-.081-.11-.19-.137-.3a.664.664 0 0 1 0-.327 8.62 8.62 0 0 1 .601-1.663c.218-.436.491-.79.792-1.063.41-.354 1.01-.627 1.692-.818l-.027-.054zm26.315 18.048a24.42 24.42 0 0 1-2.839-.164 24.283 24.283 0 0 1-2.812-.49 26.966 26.966 0 0 1-2.183-.628c-.656-.245-1.256-.49-1.775-.79a.744.744 0 0 1-.355-.41.763.763 0 0 1 .028-.545l1.883-4.253a.951.951 0 0 1 .164-.245c.082-.055.164-.109.273-.163.109-.028.191-.055.3-.028.109 0 .191.027.301.082.436.245.928.464 1.446.654.519.191 1.065.382 1.638.518.71.191 1.42.327 2.13.436.709.082 1.392.137 2.101.137.628 0 1.202-.028 1.638-.11.437-.054.819-.163 1.065-.3.3-.135.628-.326.846-.572.164-.163.273-.354.273-.545 0-.273-.382-.327-.791-.409a4.236 4.236 0 0 1-.628-.136c-.382-.137-1.065-.327-1.857-.518a11.56 11.56 0 0 0-1.692-.3c-1.147-.136-1.966-.518-2.703-.845-.436-.191-.873-.382-1.337-.518-.655-.191-1.174-.436-1.638-.764-.464-.327-.901-.736-1.365-1.226-.464-.491-.955-1.036-1.338-1.663a4.338 4.338 0 0 1-.627-2.29c0-1.364.764-2.345 1.556-3.38l.218-.273c.218-.3.464-.655.682-1.037.656-1.063 1.42-2.29 2.676-2.78 1.446-.573 3.33-.546 5.323-.546h1.01c1.201 0 2.375.273 3.549.573.436.11.873.218 1.337.3 1.201.245 1.775.627 2.402 1.063.11.082.246.164.383.245a.759.759 0 0 1 .3.355.68.68 0 0 1 0 .463l-1.338 4.39a.646.646 0 0 1-.164.3.958.958 0 0 1-.273.19c-.109.055-.218.055-.327.055a.528.528 0 0 1-.328-.11l-.027-.026c-1.747-1.01-3.521-2.018-5.569-2.018-.573 0-1.119.055-1.583.136-.519.11-.983.246-1.283.41-.273.136-.41.326-.464.545-.082.218-.082.49-.082.709 0 .245.055.381.191.517.137.137.355.218.682.3.219.082.437.191.71.327.519.273 1.174.628 2.157.791.846.136 1.72.136 2.484.164.928.027 1.774.027 2.457.245.628.19 1.201.545 1.747 1.009.518.436 1.01.954 1.474 1.445.464.49.764 1.09.955 1.799.191.681.246 1.472.246 2.345 0 .708-.055 1.39-.246 2.044a4.97 4.97 0 0 1-.9 1.827c-.874 1.145-2.321 1.69-4.013 2.344h-.028c-.846.328-1.747.655-2.729.9-.983.245-2.075.409-3.276.409l-.055.055zm-2.839-.355c.928.11 1.884.164 2.839.164 1.174 0 2.239-.164 3.221-.41.983-.245 1.884-.572 2.73-.899h.027c1.666-.627 3.085-1.172 3.931-2.29a4.68 4.68 0 0 0 .874-1.772c.164-.627.218-1.281.218-1.99 0-.873-.054-1.636-.245-2.317-.191-.682-.464-1.255-.901-1.718-.464-.49-.928-.982-1.447-1.418-.519-.436-1.065-.79-1.665-.954-.655-.19-1.502-.218-2.43-.218-.791-.027-1.665-.027-2.511-.163-1.01-.164-1.693-.518-2.211-.818a5.096 5.096 0 0 0-.683-.328c-.327-.109-.573-.218-.737-.354-.164-.164-.245-.354-.245-.654 0-.246 0-.518.081-.764.082-.272.246-.49.574-.654.327-.163.764-.3 1.337-.409a9.613 9.613 0 0 1 1.611-.136c2.102 0 3.876 1.008 5.651 2.017l.027.027a.442.442 0 0 0 .246.082c.081 0 .163 0 .245-.027a.598.598 0 0 0 .219-.136c.054-.055.109-.137.109-.218l1.337-4.39a.756.756 0 0 0 0-.354c-.054-.11-.109-.218-.218-.273-.136-.081-.246-.163-.382-.245-.628-.409-1.201-.79-2.348-1.036a22.73 22.73 0 0 1-1.337-.3c-1.147-.273-2.321-.572-3.495-.572h-1.01c-1.965-.028-3.849-.028-5.241.518-1.201.463-1.938 1.663-2.593 2.726-.246.381-.464.763-.71 1.063l-.218.273c-.792 1.008-1.529 1.963-1.529 3.271 0 .873.246 1.581.601 2.181.354.627.846 1.145 1.31 1.636.464.49.873.872 1.338 1.2.464.327.955.545 1.583.736a7.52 7.52 0 0 1 1.365.545c.737.327 1.528.681 2.648.845.573.082 1.173.19 1.719.327.792.19 1.475.382 1.884.518.191.055.409.11.601.136.518.082.955.164.955.6 0 .245-.136.464-.328.655-.245.245-.573.436-.9.6-.273.136-.656.245-1.12.3a13.92 13.92 0 0 1-1.665.108 18.6 18.6 0 0 1-2.129-.136c-.71-.082-1.42-.245-2.157-.436-.573-.164-1.146-.328-1.638-.518-.518-.191-1.01-.41-1.446-.655-.082-.027-.137-.054-.219-.054-.082 0-.163 0-.218.027a.436.436 0 0 0-.191.11.493.493 0 0 0-.137.19l-1.883 4.253a.7.7 0 0 0-.028.409.498.498 0 0 0 .273.3c.519.272 1.092.545 1.748.763.655.245 1.364.436 2.156.627.928.218 1.856.382 2.784.49l-.027-.08zm32.894-.927c-.409.136-.9.218-1.392.327-.273.055-.573.11-.819.164-.491.109-.982.245-1.447.354-3.139.818-6.114 1.581-9.308-1.308-1.201-1.09-1.147-2.672-1.092-4.58a31.6 31.6 0 0 0 0-2.263l-.41-7.58a.47.47 0 0 0-.191-.38.45.45 0 0 0-.409-.137l-1.938.082c-.109 0-.219 0-.301-.055a.49.49 0 0 1-.245-.163.64.64 0 0 1-.164-.246.987.987 0 0 1-.055-.3l.191-4.116a.68.68 0 0 1 .219-.491.683.683 0 0 1 .491-.218l1.911-.11c.137 0 .273-.081.382-.163a.54.54 0 0 0 .164-.381l-.027-4.444c0-.191.082-.382.191-.49.109-.137.3-.219.491-.246l6.17-.573c.109 0 .218 0 .327.027.109.028.191.11.273.191a.563.563 0 0 1 .164.273c.027.109.055.218.027.327l-.464 4.39c0 .081 0 .163.027.217a.443.443 0 0 0 .11.191.485.485 0 0 0 .191.137c.082.027.136.054.218.054l5.023.055c.109 0 .191.027.3.054.082.027.164.11.246.164a.652.652 0 0 1 .164.245c.027.082.054.19.027.3l-.328 5.18a.63.63 0 0 1-.081.3c-.055.082-.11.163-.192.245a.838.838 0 0 1-.273.136.995.995 0 0 1-.3.028l-3.658-.491h-.218a.436.436 0 0 0-.191.109.732.732 0 0 0-.137.164.517.517 0 0 0-.054.218c-.082.872-.246 1.717-.382 2.508-.437 2.399-.819 4.498.818 6.27l.219.218c.437.491 1.092 1.227 1.692 1.227.546 0 .983-.49 1.393-.954.081-.11.191-.164.3-.218a.533.533 0 0 1 .355-.028.812.812 0 0 1 .355.137.619.619 0 0 1 .218.3l1.938 4.389c.055.109.055.19.055.3 0 .109-.028.19-.055.3a.588.588 0 0 1-.191.245 2.443 2.443 0 0 1-.273.164l-.055-.055zm-1.419.136c.464-.081.955-.19 1.365-.3a.818.818 0 0 0 .218-.108.493.493 0 0 0 .137-.191c.027-.082.054-.164.054-.218a.517.517 0 0 0-.054-.218l-1.938-4.39c-.028-.081-.11-.163-.164-.218a.981.981 0 0 0-.246-.109.45.45 0 0 0-.273.027.42.42 0 0 0-.218.164c-.437.49-.874 1.009-1.529 1.009-.655 0-1.365-.764-1.829-1.282-.082-.082-.136-.163-.218-.218-1.72-1.826-1.311-3.953-.874-6.406.137-.791.3-1.636.382-2.509 0-.109.028-.19.082-.272.055-.082.109-.164.191-.218a.844.844 0 0 1 .273-.137c.082-.027.191-.027.301-.027l3.657.49c.082 0 .164 0 .219-.026a.442.442 0 0 0 .191-.11.7.7 0 0 0 .136-.163.503.503 0 0 0 .055-.218l.328-5.18c0-.082 0-.164-.028-.218a.433.433 0 0 0-.109-.191.485.485 0 0 0-.191-.136.515.515 0 0 0-.218-.055l-5.023-.054a.979.979 0 0 1-.3-.055 1.509 1.509 0 0 1-.246-.19.563.563 0 0 1-.164-.273c-.027-.11-.027-.191-.027-.3l.464-4.39c0-.081 0-.163-.027-.245-.028-.082-.082-.136-.137-.218a.596.596 0 0 0-.218-.136c-.082-.027-.164-.027-.246-.027l-6.169.572a.466.466 0 0 0-.355.19.65.65 0 0 0-.137.383l.028 4.443a.855.855 0 0 1-.192.518.683.683 0 0 1-.491.218l-1.911.11c-.136 0-.273.081-.382.163-.082.11-.164.218-.164.382l-.191 4.116c0 .082 0 .164.027.218a.494.494 0 0 0 .137.191c.055.055.109.11.191.137.082.027.137.027.218.027l1.939-.082c.191 0 .382.055.518.19a.84.84 0 0 1 .246.519l.409 7.579c.055.79.028 1.554 0 2.263-.054 1.853-.081 3.435 1.038 4.443 3.112 2.836 6.06 2.072 9.145 1.282a27.87 27.87 0 0 1 1.446-.355c.273-.054.546-.109.847-.163l.027-.027z" fill="#34383D"/><path d="M21.305 9.296l10.646-.572c-1.228 10.442-2.457 20.883-3.685 31.297-2.566-.272-5.105-.545-7.67-.818.19-9.978.409-19.929.6-29.907h.109zm10.455-.381l-10.346.572-.6 29.553 7.316.79 3.63-30.915zm19.655 6.461c2.238 0 3.521 1.418 4.777 2.835.355.41.71.79 1.092 1.145.218.218.437.41.655.6 1.556 1.445 3.057 2.863 3.003 5.861l-.355 13.986c-3.167-.082-6.36-.136-9.527-.218l1.91-11.123c.083-.49.137-.954.137-1.418 0-1.145-.245-2.18-.71-2.999-.463-.79-1.119-1.363-1.992-1.499-.164-.027-.3-.027-.492-.027-.6 0-1.283.245-1.938.6-.819.436-1.583 1.035-2.02 1.526-.41.436-.71.873-.928 1.418-.218.545-.328 1.227-.328 2.1l-.19 11.913c-2.594.054-5.187.081-7.78.136L35.09 15.676c3.058 0 6.088 0 9.145-.027l-1.037 4.307a19.237 19.237 0 0 1 1.856-1.636c.6-.463 1.229-.845 1.747-1.063.383-.164.847-.409 1.338-.681 1.065-.573 2.266-1.227 3.276-1.227v.027zm4.64 2.944c-1.255-1.39-2.484-2.78-4.64-2.78-.956 0-2.157.627-3.194 1.2-.491.272-.955.517-1.365.68-.519.219-1.12.6-1.72 1.037-.791.6-1.556 1.308-2.074 1.854l-.219.245 1.147-4.717-8.736.028 1.61 24.181 7.426-.136.191-11.723c.027-.9.137-1.58.355-2.153.218-.573.546-1.036.955-1.5.465-.49 1.256-1.118 2.075-1.554.682-.354 1.392-.6 2.02-.6.164 0 .355.028.519.055.928.163 1.638.736 2.13 1.581.463.845.736 1.909.736 3.08a8.9 8.9 0 0 1-.136 1.446L51.25 39.476l9.145.19.355-13.821c.082-2.917-1.42-4.308-2.948-5.753-.219-.218-.437-.409-.656-.627a22.262 22.262 0 0 1-1.091-1.172v.027zm31.857-1.5l-9.39 21.293c-3.058.627-6.142 1.254-9.2 1.88l-8.49-22.6a898.8 898.8 0 0 0 8.681.218l6.17 13.195 3.576-13.794c2.894-.11 5.787-.218 8.708-.3l-.055.136v-.027zm-9.527 21.13l9.282-21.075-8.272.3-3.657 14.177-6.334-13.55-8.326-.218 8.326 22.22 8.954-1.828.027-.027zm35.897-10.824v.082c0 .382.055 2.017-.027 3.162v.082l-16.76-.327c.081.354.136.681.163 1.009.082.736.164 1.417.791 1.826a8.737 8.737 0 0 0 2.021.927c.655.218 1.337.355 1.965.355.464 0 1.01-.082 1.583-.218a17.56 17.56 0 0 0 1.939-.573c.464-.19 1.173-.464 1.829-.818.464-.245.9-.518 1.255-.818l.082-.054c1.229 1.58 2.457 3.162 3.685 4.743l-.054.055c-1.119 1.254-2.621 2.263-4.395 2.944-1.72.682-3.713 1.036-5.815 1.036-1.201 0-2.484-.218-3.685-.518a20.71 20.71 0 0 1-3.958-1.5c-.464-.245-.956-.435-1.42-.654-1.501-.654-2.893-1.254-3.767-2.644-.764-1.254-.546-3.08-.355-4.825.082-.791.191-1.554.191-2.263 0-1.118.055-2.209.246-3.217.191-1.009.519-1.99 1.065-2.89.382-.627.6-1.281.791-1.908.382-1.145.71-2.181 1.966-2.836 1.037-.545 2.62-1.145 4.231-1.58 1.392-.383 2.812-.655 3.904-.655 1.146 0 2.238.218 3.275.572 1.038.327 2.02.791 2.949 1.282 1.01.518 2.047 1.145 2.975 1.935.764.655 1.447 1.39 1.966 2.209.546.9.9 1.826 1.091 2.835.219 1.009.273 2.1.273 3.326v-.082zm-.191.082v-.082c0-1.2-.082-2.29-.273-3.271-.191-.982-.546-1.881-1.064-2.781-.492-.818-1.174-1.527-1.911-2.181-.901-.764-1.938-1.39-2.921-1.909-.928-.463-1.884-.926-2.921-1.254-1.01-.327-2.102-.545-3.221-.545-1.092 0-2.484.273-3.876.627-1.611.436-3.167 1.036-4.177 1.581-1.201.627-1.529 1.636-1.884 2.727-.218.627-.436 1.281-.819 1.935-.546.873-.846 1.827-1.037 2.836-.191 1.008-.246 2.072-.246 3.19 0 .708-.082 1.499-.19 2.29-.219 1.717-.437 3.516.327 4.716.819 1.336 2.184 1.935 3.685 2.59.464.19.956.409 1.447.654a23.232 23.232 0 0 0 3.93 1.5c1.202.326 2.458.517 3.632.517 2.102 0 4.04-.354 5.759-1.036 1.72-.654 3.167-1.635 4.259-2.835l-3.467-4.498a6.436 6.436 0 0 1-1.201.763c-.655.355-1.365.654-1.856.845-.464.191-1.201.41-1.966.573-.573.136-1.146.218-1.61.218a6.399 6.399 0 0 1-2.02-.355c-.792-.245-1.53-.6-2.048-.954-.682-.463-.791-1.172-.873-1.963-.055-.354-.082-.736-.191-1.09l-.028-.11 16.816.328c.055-1.118.027-2.699 0-3.053l-.055.027zm-12.529-5.916c-.628 0-1.42.136-2.13.327-.655.19-1.255.463-1.638.79-.355.3-.655.764-.873 1.31-.3.654-.492 1.39-.628 2.044l9.063.027a11.153 11.153 0 0 1-.109-1.008c-.055-.846-.109-1.636-.655-2.1a8.176 8.176 0 0 0-1.365-.954c-.492-.245-1.065-.436-1.665-.436zm-2.184.163c.737-.218 1.528-.354 2.184-.354.627 0 1.201.19 1.747.464.518.272.982.627 1.419.981.601.518.655 1.336.737 2.236.027.354.055.736.109 1.09l.028.11c-3.167 0-6.334 0-9.5-.028l.027-.11c.137-.68.328-1.471.655-2.18.246-.546.546-1.036.928-1.363.41-.355 1.01-.627 1.693-.818l-.027-.027zm26.615 18.703c-.955 0-2.02-.082-3.112-.219a30.408 30.408 0 0 1-3.166-.545 16.662 16.662 0 0 1-2.484-.79 12.88 12.88 0 0 1-1.939-.982l-.054-.027 1.474-5.643.109.054c.737.463 2.211.79 3.494 1.09.492.11.956.219 1.338.328.71.19 1.474.381 2.238.518.765.136 1.529.218 2.212.218.546 0 1.091-.082 1.583-.191a6.41 6.41 0 0 0 1.501-.49c.219-.11.355-.273.464-.492.137-.272.164-.627.164-.9 0-.136-.109-.163-.273-.163-.082 0-.164 0-.273.027-.273.028-.6.055-.873-.054a5.997 5.997 0 0 1-.737-.3c-.737-.3-1.802-.736-2.812-.872-1.065-.137-1.775-.71-2.43-1.254-.464-.382-.901-.736-1.419-.9-.355-.109-.71-.164-1.01-.218-.819-.136-1.502-.273-2.184-.982-.464-.49-.819-1.008-1.065-1.635-.245-.627-.355-1.336-.355-2.236 0-.49-.109-1.036-.218-1.581-.218-1.036-.437-2.072.137-2.835a12.45 12.45 0 0 1 1.965-2.072c.601-.518 1.283-.954 2.02-1.227.737-.3 1.747-.49 2.839-.627 1.365-.164 2.866-.218 4.149-.218 1.556 0 3.549.409 5.132.736l.328.054c1.037.218 1.774.927 2.43 1.609.409.382.764.763 1.173.981l.055.028c-.737 1.935-1.474 3.87-2.211 5.78l-.082-.055c-.956-.518-1.993-.9-3.057-1.145-1.174-.273-2.43-.382-3.658-.382-.574 0-1.065-.109-1.475-.19-.518-.11-.928-.192-1.228-.028a1.847 1.847 0 0 0-.328.163c-.327.137-.491.219-.491.546 0 .272.164.3.437.327.164.027.355.054.6.109.192.055.41.164.628.245a7.43 7.43 0 0 0 2.157.682c.682.109 1.392.19 2.102.273 1.283.136 2.511.272 3.303.518.628.19 1.283.627 1.883 1.117.601.49 1.147 1.09 1.611 1.554.819.873.819 2.4.792 3.953v.627c0 .982-.601 1.472-1.256 2.045-.328.273-.71.6-.983.981-.218.3-.437.627-.628.955-.546.9-1.119 1.826-2.375 2.29l-.327.136c-1.611.627-3.467 1.336-5.705 1.336l-.11-.028zm-3.084-.382c1.092.136 2.156.19 3.084.19 2.212 0 4.041-.708 5.651-1.308l.328-.136c1.201-.464 1.747-1.336 2.293-2.236.191-.327.409-.654.628-.981.3-.41.682-.709 1.01-1.009.627-.518 1.201-1.009 1.201-1.908v-.627c.027-1.5.027-3-.737-3.817-.464-.49-1.01-1.063-1.611-1.554-.6-.49-1.201-.9-1.829-1.09-.792-.219-1.993-.355-3.276-.518-.709-.082-1.446-.164-2.129-.273-1.037-.164-1.692-.464-2.211-.682a3.487 3.487 0 0 0-.601-.245c-.218-.055-.382-.082-.546-.11-.354-.054-.6-.054-.6-.49s.191-.518.6-.709c.11-.054.219-.081.328-.163.355-.191.792-.082 1.338.027.409.082.9.19 1.446.19 1.229 0 2.485.11 3.686.383 1.064.245 2.074.6 3.002 1.117l2.102-5.452c-.409-.245-.764-.6-1.146-.982-.655-.654-1.365-1.363-2.348-1.554l-.327-.054c-1.584-.327-3.549-.736-5.078-.736-1.283 0-2.784.054-4.149.218-1.065.136-2.075.327-2.785.627-.709.273-1.364.709-1.965 1.2-.792.654-1.447 1.417-1.938 2.044-.546.709-.328 1.69-.109 2.7.109.544.245 1.09.245 1.608 0 .872.11 1.58.355 2.18.219.6.573 1.091 1.038 1.582.627.681 1.31.79 2.074.927.328.054.683.109 1.038.218.545.163 1.01.518 1.501.927.628.518 1.31 1.063 2.348 1.2 1.037.136 2.102.572 2.839.899.3.136.546.218.737.3.245.082.546.054.819.054.109 0 .191-.027.3-.027.273 0 .464.055.464.355s-.055.654-.191.981c-.109.245-.273.463-.546.572-.328.164-.874.355-1.529.491a7.447 7.447 0 0 1-1.61.191c-.71 0-1.475-.082-2.239-.218a27.605 27.605 0 0 1-2.266-.518 24.304 24.304 0 0 0-1.337-.327c-1.256-.273-2.648-.6-3.44-1.036l-1.365 5.289a11.76 11.76 0 0 0 1.857.927c.709.3 1.528.572 2.456.79.929.218 2.048.41 3.167.546l-.027.027zm34.395-1.2c-.518.328-1.747.573-2.729.764-.328.054-.656.136-.901.19-.246.055-.519.11-.792.191-3.44.818-6.934 1.663-10.346-1.472-1.065-.981-.846-2.508-.628-4.253.137-.954.273-1.963.219-2.971l-.383-7.47-3.576.218c.11-2.045.219-4.062.355-6.107l4.122.818-.982-6.161 7.752-.71-.983 5.835 6.743.19c-.109 1.636-.246 3.245-.355 4.88l-6.115.055c-.054.764-.109 1.5-.191 2.209-.3 2.862-.546 5.425 1.311 7.415l.218.218c.437.49 1.092 1.227 1.693 1.227.846 0 1.91-.736 2.593-1.2l.218-.163 2.867 6.27-.055.055-.055-.028zm-2.757.573c.928-.191 2.075-.41 2.594-.682l-2.703-5.916-.055.028c-.709.49-1.801 1.226-2.702 1.226-.655 0-1.365-.763-1.829-1.28-.082-.083-.137-.164-.218-.219-1.911-2.045-1.666-4.635-1.365-7.552.082-.736.163-1.5.191-2.29v-.082l6.115-.054.327-4.526-6.743-.19.983-5.807-7.316.681 1.01 6.243-4.149-.845-.328 5.698 3.576-.218.41 7.66c.055 1.037-.082 2.045-.218 3-.246 1.717-.437 3.19.546 4.116 3.357 3.053 6.797 2.236 10.182 1.418.245-.055.491-.11.791-.191.246-.055.574-.11.901-.19v-.028z" fill="#34383D"/></symbol><symbol viewBox="0 0 32 32" id="soc-fb" xmlns="http://www.w3.org/2000/svg"><path d="M32 2.759A2.757 2.757 0 0 0 29.244 0H2.756A2.757 2.757 0 0 0 0 2.759V29.24A2.757 2.757 0 0 0 2.756 32h9.156V20.235h-2.5V16.18h2.5v-2.44c0-1.733.421-3.044 1.265-3.934.843-.89 2.23-1.334 4.162-1.334h3.338v4.054h-2.088c-.383 0-.69.031-.92.093-.23.062-.397.174-.5.336-.103.161-.17.325-.198.492-.03.167-.044.403-.044.707v2.027h3.779l-.441 4.055h-3.338V32h12.317A2.757 2.757 0 0 0 32 29.241V2.76z"/></symbol><symbol viewBox="0 0 30 30" id="soc-inst" xmlns="http://www.w3.org/2000/svg"><path d="M17.59 10.145c0-.35.286-.635.635-.635h1.596c.35 0 .636.286.636.635v1.522a.637.637 0 0 1-.636.635h-1.596a.637.637 0 0 1-.635-.635v-1.522zm1.78 4.464c-.044-.353.21-.698.565-.698.292 0 .528.237.528.529v5.435a.563.563 0 0 1-.56.561H10.07a.563.563 0 0 1-.561-.561v-5.413a.55.55 0 0 1 .551-.55c.37 0 .636.36.592.728-.018.158-.028.32-.028.482 0 2.349 1.965 4.252 4.389 4.252 2.423 0 4.388-1.903 4.388-4.252 0-.173-.01-.345-.032-.513z"/><path d="M12.178 14.97c0-1.518 1.27-2.748 2.835-2.748 1.566 0 2.836 1.23 2.836 2.747 0 1.518-1.27 2.747-2.836 2.747-1.566 0-2.835-1.23-2.835-2.747z"/><path fill-rule="evenodd" clip-rule="evenodd" d="M30 2.586A2.585 2.585 0 0 0 27.416 0H2.584A2.585 2.585 0 0 0 0 2.586v24.828A2.585 2.585 0 0 0 2.584 30h24.832A2.585 2.585 0 0 0 30 27.414V2.586zm-9.753 5.355H9.753c-.997 0-1.812.738-1.812 1.812v10.494c0 1.074.815 1.812 1.812 1.812h10.494c.997 0 1.812-.738 1.812-1.812V9.753c0-1.074-.816-1.812-1.812-1.812z"/></symbol><symbol viewBox="0 0 30 30" id="soc-tg" xmlns="http://www.w3.org/2000/svg"><path fill-rule="evenodd" clip-rule="evenodd" d="M2.5 0A2.5 2.5 0 0 0 0 2.5v25A2.5 2.5 0 0 0 2.5 30h25a2.5 2.5 0 0 0 2.5-2.5v-25A2.5 2.5 0 0 0 27.5 0h-25zm8.47 16.09l-3.687-1.376a.435.435 0 0 1-.005-.813l15.13-5.836a.435.435 0 0 1 .583.493L20.275 21.62a.434.434 0 0 1-.68.263l-3.707-2.691a.613.613 0 0 0-.747.02l-2.055 1.676a.434.434 0 0 1-.69-.207l-1.427-4.59zm8.402-5.17l-7.206 4.438a.726.726 0 0 0-.317.816l.78 2.737c.055.194.336.174.363-.026l.203-1.501c.038-.283.173-.543.382-.738l5.946-5.527c.111-.103-.022-.278-.151-.199z"/></symbol><symbol viewBox="0 0 30 30" id="soc-vk" xmlns="http://www.w3.org/2000/svg"><path fill-rule="evenodd" clip-rule="evenodd" d="M30 2.586A2.585 2.585 0 0 0 27.416 0H2.584A2.585 2.585 0 0 0 0 2.586v24.828A2.585 2.585 0 0 0 2.584 30h24.832A2.585 2.585 0 0 0 30 27.414V2.586zm-5.471 17.385a2.2 2.2 0 0 1 .07.128c.023.052.049.14.07.271a.71.71 0 0 1-.003.343c-.026.103-.115.195-.263.28-.144.084-.355.127-.622.127l-2.106.03c-.399.006-.81.073-1.192-.04a2.61 2.61 0 0 1-.552-.223l-.211-.12a4.847 4.847 0 0 1-.74-.647c-.285-.29-.526-.548-.726-.782a3.393 3.393 0 0 0-.644-.586c-.23-.155-.426-.208-.596-.155a.488.488 0 0 0-.085.035.736.736 0 0 0-.182.145 1.4 1.4 0 0 0-.226.297c-.07.116-.13.29-.181.523-.056.23-.078.49-.07.78a.949.949 0 0 1-.037.28.556.556 0 0 1-.078.187l-.04.05c-.127.127-.312.201-.56.222h-1.214a4.986 4.986 0 0 1-1.544-.166 6.098 6.098 0 0 1-1.388-.534 13.201 13.201 0 0 1-1.089-.667 6.406 6.406 0 0 1-.744-.58l-.263-.244a6.05 6.05 0 0 1-.292-.304 24.874 24.874 0 0 1-.755-.919 25.007 25.007 0 0 1-1.122-1.523c-.367-.537-.8-1.244-1.296-2.127a29.433 29.433 0 0 1-1.373-2.757.799.799 0 0 1-.063-.272c0-.074.01-.127.033-.162l.04-.06c.108-.128.308-.192.604-.192l2.641-.019c.17-.001.342.001.499.065a.913.913 0 0 1 .12.052c.035.02.067.044.102.065.115.074.2.18.255.322.14.339.3.685.485 1.046.182.36.326.636.433.823l.17.293c.204.403.404.753.593 1.05.192.297.363.527.515.693.148.166.296.293.436.388.141.096.26.142.36.142a.86.86 0 0 0 .285-.05.163.163 0 0 0 .051-.049c.019-.028.063-.103.126-.223a1.53 1.53 0 0 0 .145-.473c.03-.195.063-.467.1-.817.014-.15.022-.222.024-.294.003-.096-.005-.192-.024-.473a4.691 4.691 0 0 0-.097-.735 1.925 1.925 0 0 0-.148-.463.815.815 0 0 0-.154-.22c-.182-.172-.451-.284-.808-.335-.093-.013-.074-.095.052-.244.118-.13.251-.23.4-.303.373-.177 1.214-.258 2.524-.244.578.007 1.052.05 1.426.13.14.036.259.082.355.138.096.06.17.142.218.244.049.103.086.213.111.322.026.113.038.265.038.46 0 .194-.004.381-.012.554-.003.075-.006.07-.01.063-.004-.008-.01-.018-.016.153-.01.3-.014.58-.014.834 0 .074-.004.216-.011.424l-.002.07c-.003.175-.006.314-.002.414.004.117.015.251.037.41.022.156.063.286.122.393.033.059.072.11.118.155.071.07.17.1.267.123l.033.008c.063.014.156-.021.274-.11.122-.085.256-.201.404-.346a5.18 5.18 0 0 0 .548-.675c.218-.308.459-.668.718-1.085.426-.7.8-1.456 1.133-2.269a.646.646 0 0 1 .218-.283l.018-.014a.26.26 0 0 1 .102-.049l.11-.025c.138-.027.283-.004.424-.005l2.83-.02c.274-.035.5-.025.677.025.174.05.285.106.326.166a.502.502 0 0 1 .089.212c.048.476-.49 1.428-1.61 2.852-.17.216-.4.502-.689.859-.548.671-.866 1.113-.951 1.321-.119.276-.07.548.148.817.118.14.402.415.85.823a.014.014 0 0 0 .01.004c.004 0 .008.001.01.004l.007.006.011.01.022.022c.993.88 1.666 1.626 2.018 2.23z"/></symbol></svg>