<?xml version="1.0" encoding="utf-8"?><svg xmlns="http://www.w3.org/2000/svg" xmlns:xlink="http://www.w3.org/1999/xlink"><symbol viewBox="0 0 17 17" id="icon-close" xmlns="http://www.w3.org/2000/svg"><path fill-rule="evenodd" clip-rule="evenodd" d="M15.708 1.707A1 1 0 1 0 14.294.293L8.001 6.586 1.707.293A1 1 0 0 0 .293 1.707l6.293 6.294-6.293 6.293a1 1 0 1 0 1.414 1.414l6.294-6.293 6.293 6.293a1 1 0 0 0 1.414-1.414L9.415 8.001l6.293-6.294z"/></symbol><symbol fill="none" viewBox="0 0 80 80" id="icon-docs" xmlns="http://www.w3.org/2000/svg"><circle cx="40" cy="40" r="40" fill="#0196E6"/><path opacity=".15" d="M46.046 79.546L24.5 58V35H18l-2.5-2.5v-6L18 24h6v-1a4 4 0 0 1 4-4h21.5l29.578 29.578c-3.505 16.04-16.634 28.482-33.032 30.968z" fill="#333"/><path d="M58.752 27.71l-8.462-8.462a.842.842 0 0 0-.598-.248h-22a4.236 4.236 0 0 0-4.23 4.23H19.23A4.236 4.236 0 0 0 15 27.463v4.23a4.236 4.236 0 0 0 4.23 4.231h4.232v19.462a4.236 4.236 0 0 0 4.23 4.23h2.539a.845.845 0 1 0 0-1.692h-2.539a2.542 2.542 0 0 1-2.538-2.538V35.923H41.23a4.236 4.236 0 0 0 4.23-4.23V27.46a4.236 4.236 0 0 0-4.23-4.23H25.154c0-1.4 1.139-2.539 2.538-2.539H48v5.077A4.236 4.236 0 0 0 52.23 30h5.078v25.385c0 1.4-1.14 2.538-2.539 2.538h-2.538a.845.845 0 1 0 0 1.692h2.538A4.236 4.236 0 0 0 59 55.385V28.308a.842.842 0 0 0-.248-.599zm-17.521-2.787c1.4 0 2.538 1.139 2.538 2.539v4.23c0 1.4-1.139 2.539-2.538 2.539h-22a2.542 2.542 0 0 1-2.539-2.539v-4.23c0-1.4 1.14-2.539 2.539-2.539h22zm11 3.385a2.542 2.542 0 0 1-2.539-2.539v-4.726l7.265 7.265h-4.726z" fill="#fff"/><path d="M46.308 46.077H36.154a4.236 4.236 0 0 0-4.23 4.23v8.462A4.236 4.236 0 0 0 36.153 63h10.154a4.236 4.236 0 0 0 4.23-4.23v-8.462a4.236 4.236 0 0 0-4.23-4.231zm2.538 12.692c0 1.4-1.139 2.539-2.538 2.539H36.154a2.542 2.542 0 0 1-2.539-2.539v-8.461c0-1.4 1.14-2.539 2.539-2.539h10.154c1.4 0 2.538 1.14 2.538 2.539v8.461z" fill="#fff"/><path d="M42.923 49.957l-5.077 5.077v3.735h3.735l5.077-5.077-3.735-3.735zm-2.043 7.12h-1.342v-1.342l3.385-3.385 1.342 1.342-3.385 3.385z" fill="#fff"/></symbol><symbol viewBox="0 0 32 32" id="soc-fb" xmlns="http://www.w3.org/2000/svg"><path d="M32 2.759A2.757 2.757 0 0 0 29.244 0H2.756A2.757 2.757 0 0 0 0 2.759V29.24A2.757 2.757 0 0 0 2.756 32h9.156V20.235h-2.5V16.18h2.5v-2.44c0-1.733.421-3.044 1.265-3.934.843-.89 2.23-1.334 4.162-1.334h3.338v4.054h-2.088c-.383 0-.69.031-.92.093-.23.062-.397.174-.5.336-.103.161-.17.325-.198.492-.03.167-.044.403-.044.707v2.027h3.779l-.441 4.055h-3.338V32h12.317A2.757 2.757 0 0 0 32 29.241V2.76z"/></symbol><symbol viewBox="0 0 30 30" id="soc-inst" xmlns="http://www.w3.org/2000/svg"><path d="M17.59 10.145c0-.35.286-.635.635-.635h1.596c.35 0 .636.286.636.635v1.522a.637.637 0 0 1-.636.635h-1.596a.637.637 0 0 1-.635-.635v-1.522zm1.78 4.464c-.044-.353.21-.698.565-.698.292 0 .528.237.528.529v5.435a.563.563 0 0 1-.56.561H10.07a.563.563 0 0 1-.561-.561v-5.413a.55.55 0 0 1 .551-.55c.37 0 .636.36.592.728-.018.158-.028.32-.028.482 0 2.349 1.965 4.252 4.389 4.252 2.423 0 4.388-1.903 4.388-4.252 0-.173-.01-.345-.032-.513z"/><path d="M12.178 14.97c0-1.518 1.27-2.748 2.835-2.748 1.566 0 2.836 1.23 2.836 2.747 0 1.518-1.27 2.747-2.836 2.747-1.566 0-2.835-1.23-2.835-2.747z"/><path fill-rule="evenodd" clip-rule="evenodd" d="M30 2.586A2.585 2.585 0 0 0 27.416 0H2.584A2.585 2.585 0 0 0 0 2.586v24.828A2.585 2.585 0 0 0 2.584 30h24.832A2.585 2.585 0 0 0 30 27.414V2.586zm-9.753 5.355H9.753c-.997 0-1.812.738-1.812 1.812v10.494c0 1.074.815 1.812 1.812 1.812h10.494c.997 0 1.812-.738 1.812-1.812V9.753c0-1.074-.816-1.812-1.812-1.812z"/></symbol><symbol viewBox="0 0 30 30" id="soc-tg" xmlns="http://www.w3.org/2000/svg"><path fill-rule="evenodd" clip-rule="evenodd" d="M2.5 0A2.5 2.5 0 0 0 0 2.5v25A2.5 2.5 0 0 0 2.5 30h25a2.5 2.5 0 0 0 2.5-2.5v-25A2.5 2.5 0 0 0 27.5 0h-25zm8.47 16.09l-3.687-1.376a.435.435 0 0 1-.005-.813l15.13-5.836a.435.435 0 0 1 .583.493L20.275 21.62a.434.434 0 0 1-.68.263l-3.707-2.691a.613.613 0 0 0-.747.02l-2.055 1.676a.434.434 0 0 1-.69-.207l-1.427-4.59zm8.402-5.17l-7.206 4.438a.726.726 0 0 0-.317.816l.78 2.737c.055.194.336.174.363-.026l.203-1.501c.038-.283.173-.543.382-.738l5.946-5.527c.111-.103-.022-.278-.151-.199z"/></symbol><symbol viewBox="0 0 30 30" id="soc-vk" xmlns="http://www.w3.org/2000/svg"><path fill-rule="evenodd" clip-rule="evenodd" d="M30 2.586A2.585 2.585 0 0 0 27.416 0H2.584A2.585 2.585 0 0 0 0 2.586v24.828A2.585 2.585 0 0 0 2.584 30h24.832A2.585 2.585 0 0 0 30 27.414V2.586zm-5.471 17.385a2.2 2.2 0 0 1 .07.128c.023.052.049.14.07.271a.71.71 0 0 1-.003.343c-.026.103-.115.195-.263.28-.144.084-.355.127-.622.127l-2.106.03c-.399.006-.81.073-1.192-.04a2.61 2.61 0 0 1-.552-.223l-.211-.12a4.847 4.847 0 0 1-.74-.647c-.285-.29-.526-.548-.726-.782a3.393 3.393 0 0 0-.644-.586c-.23-.155-.426-.208-.596-.155a.488.488 0 0 0-.085.035.736.736 0 0 0-.182.145 1.4 1.4 0 0 0-.226.297c-.07.116-.13.29-.181.523-.056.23-.078.49-.07.78a.949.949 0 0 1-.037.28.556.556 0 0 1-.078.187l-.04.05c-.127.127-.312.201-.56.222h-1.214a4.986 4.986 0 0 1-1.544-.166 6.098 6.098 0 0 1-1.388-.534 13.201 13.201 0 0 1-1.089-.667 6.406 6.406 0 0 1-.744-.58l-.263-.244a6.05 6.05 0 0 1-.292-.304 24.874 24.874 0 0 1-.755-.919 25.007 25.007 0 0 1-1.122-1.523c-.367-.537-.8-1.244-1.296-2.127a29.433 29.433 0 0 1-1.373-2.757.799.799 0 0 1-.063-.272c0-.074.01-.127.033-.162l.04-.06c.108-.128.308-.192.604-.192l2.641-.019c.17-.001.342.001.499.065a.913.913 0 0 1 .12.052c.035.02.067.044.102.065.115.074.2.18.255.322.14.339.3.685.485 1.046.182.36.326.636.433.823l.17.293c.204.403.404.753.593 1.05.192.297.363.527.515.693.148.166.296.293.436.388.141.096.26.142.36.142a.86.86 0 0 0 .285-.05.163.163 0 0 0 .051-.049c.019-.028.063-.103.126-.223a1.53 1.53 0 0 0 .145-.473c.03-.195.063-.467.1-.817.014-.15.022-.222.024-.294.003-.096-.005-.192-.024-.473a4.691 4.691 0 0 0-.097-.735 1.925 1.925 0 0 0-.148-.463.815.815 0 0 0-.154-.22c-.182-.172-.451-.284-.808-.335-.093-.013-.074-.095.052-.244.118-.13.251-.23.4-.303.373-.177 1.214-.258 2.524-.244.578.007 1.052.05 1.426.13.14.036.259.082.355.138.096.06.17.142.218.244.049.103.086.213.111.322.026.113.038.265.038.46 0 .194-.004.381-.012.554-.003.075-.006.07-.01.063-.004-.008-.01-.018-.016.153-.01.3-.014.58-.014.834 0 .074-.004.216-.011.424l-.002.07c-.003.175-.006.314-.002.414.004.117.015.251.037.41.022.156.063.286.122.393.033.059.072.11.118.155.071.07.17.1.267.123l.033.008c.063.014.156-.021.274-.11.122-.085.256-.201.404-.346a5.18 5.18 0 0 0 .548-.675c.218-.308.459-.668.718-1.085.426-.7.8-1.456 1.133-2.269a.646.646 0 0 1 .218-.283l.018-.014a.26.26 0 0 1 .102-.049l.11-.025c.138-.027.283-.004.424-.005l2.83-.02c.274-.035.5-.025.677.025.174.05.285.106.326.166a.502.502 0 0 1 .089.212c.048.476-.49 1.428-1.61 2.852-.17.216-.4.502-.689.859-.548.671-.866 1.113-.951 1.321-.119.276-.07.548.148.817.118.14.402.415.85.823a.014.014 0 0 0 .01.004c.004 0 .008.001.01.004l.007.006.011.01.022.022c.993.88 1.666 1.626 2.018 2.23z"/></symbol></svg>