<svg width="80" height="80" viewBox="0 0 80 80" fill="none" xmlns="http://www.w3.org/2000/svg">
<circle cx="40" cy="40" r="40" fill="#0196E6"/>
<path opacity="0.15" d="M46.046 79.546L24.5 58V35H18L15.5 32.5V26.5L18 24H24V23C24 20.7909 25.7909 19 28 19H49.5L79.078 48.578C75.5732 64.6184 62.4437 77.0599 46.046 79.546Z" fill="#333333"/>
<path d="M58.7521 27.7095L50.2905 19.2479C50.1323 19.0888 49.9174 19 49.6923 19H27.6923C25.3595 19 23.4615 20.8979 23.4615 23.2308H19.2308C16.8979 23.2308 15 25.1287 15 27.4615V31.6923C15 34.0252 16.8979 35.9231 19.2308 35.9231H23.4615V55.3846C23.4615 57.7175 25.3595 59.6154 27.6923 59.6154H30.2308C30.6987 59.6154 31.0769 59.2372 31.0769 58.7692C31.0769 58.3013 30.6987 57.9231 30.2308 57.9231H27.6923C26.2928 57.9231 25.1538 56.7842 25.1538 55.3846V35.9231H41.2308C43.5636 35.9231 45.4615 34.0252 45.4615 31.6923V27.4615C45.4615 25.1287 43.5636 23.2308 41.2308 23.2308H25.1538C25.1538 21.8312 26.2928 20.6923 27.6923 20.6923H48V25.7692C48 28.1021 49.8979 30 52.2308 30H57.3077V55.3846C57.3077 56.7842 56.1688 57.9231 54.7692 57.9231H52.2308C51.7628 57.9231 51.3846 58.3013 51.3846 58.7692C51.3846 59.2372 51.7628 59.6154 52.2308 59.6154H54.7692C57.1021 59.6154 59 57.7175 59 55.3846V28.3077C59 28.0826 58.9112 27.8677 58.7521 27.7095ZM41.2308 24.9231C42.6303 24.9231 43.7692 26.062 43.7692 27.4615V31.6923C43.7692 33.0918 42.6303 34.2308 41.2308 34.2308H19.2308C17.8312 34.2308 16.6923 33.0918 16.6923 31.6923V27.4615C16.6923 26.062 17.8312 24.9231 19.2308 24.9231H41.2308ZM52.2308 28.3077C50.8312 28.3077 49.6923 27.1688 49.6923 25.7692V21.0426L56.9574 28.3077H52.2308Z" fill="white"/>
<path d="M46.3077 46.0769H36.1538C33.821 46.0769 31.9231 47.9748 31.9231 50.3077V58.7692C31.9231 61.1021 33.821 63 36.1538 63H46.3077C48.6405 63 50.5385 61.1021 50.5385 58.7692V50.3077C50.5385 47.9748 48.6405 46.0769 46.3077 46.0769ZM48.8462 58.7692C48.8462 60.1688 47.7072 61.3077 46.3077 61.3077H36.1538C34.7543 61.3077 33.6154 60.1688 33.6154 58.7692V50.3077C33.6154 48.9082 34.7543 47.7692 36.1538 47.7692H46.3077C47.7072 47.7692 48.8462 48.9082 48.8462 50.3077V58.7692Z" fill="white"/>
<path d="M42.9231 49.9574L37.8462 55.0343V58.7692H41.5811L46.658 53.6923L42.9231 49.9574ZM40.8805 57.0769H39.5385V55.7349L42.9231 52.3503L44.2651 53.6923L40.8805 57.0769Z" fill="white"/>
</svg>
