<svg width="169" height="72" viewBox="0 0 169 72" fill="none" xmlns="http://www.w3.org/2000/svg">
<g>
<path fill-rule="evenodd" clip-rule="evenodd" d="M0.0136719 22.5733L42.435 72L168.989 0L0.0136719 22.5733Z" fill="#8CC7FF"/>
<path d="M22.5606 61.6948C21.5779 61.6948 20.5952 61.5858 19.6397 61.3677C18.6843 61.1496 17.9199 60.8497 17.3467 60.4953L18.5751 57.6872C19.1211 58.0144 19.7489 58.287 20.486 58.4778C21.223 58.6687 21.9601 58.7777 22.6698 58.7777C23.325 58.7777 23.8163 58.6959 24.0893 58.5596C24.3623 58.4233 24.5261 58.2325 24.5261 57.9599C24.5261 57.6872 24.3623 57.5237 24.0074 57.4146C23.6799 57.3056 23.1339 57.1965 22.3968 57.0875C21.4687 56.9784 20.6498 56.8148 19.9946 56.624C19.3394 56.4332 18.7662 56.0788 18.3021 55.588C17.838 55.07 17.5924 54.3612 17.5924 53.4616C17.5924 52.6982 17.8107 52.0439 18.2748 51.4442C18.7116 50.8716 19.3667 50.4082 20.2403 50.0538C21.1138 49.7266 22.1239 49.5358 23.325 49.5358C24.1712 49.5358 25.0175 49.6176 25.8637 49.8084C26.7099 49.972 27.3924 50.2173 27.9657 50.5445L26.7372 53.3525C25.6999 52.78 24.5534 52.4801 23.3523 52.4801C22.6971 52.4801 22.233 52.5619 21.9328 52.6982C21.6325 52.8618 21.4687 53.0526 21.4687 53.298C21.4687 53.5706 21.6325 53.7615 21.9601 53.8705C22.2876 53.9796 22.8336 54.0886 23.598 54.1977C24.5807 54.334 25.3723 54.4975 26.0002 54.6884C26.6281 54.8792 27.2013 55.2064 27.6654 55.7243C28.1294 56.2151 28.3751 56.9239 28.3751 57.8236C28.3751 58.5596 28.1567 59.2139 27.6927 59.8137C27.2559 60.3862 26.5735 60.8497 25.6999 61.1768C24.8264 61.504 23.7617 61.6675 22.5333 61.6675L22.5606 61.6948ZM36.0732 61.6948C34.8175 61.6948 33.671 61.4222 32.6609 60.9042C31.6509 60.3862 30.8593 59.6501 30.286 58.7232C29.7127 57.7963 29.4398 56.7603 29.4398 55.588C29.4398 54.443 29.7127 53.3798 30.286 52.4529C30.8593 51.5259 31.6509 50.8171 32.6609 50.2991C33.671 49.7811 34.8175 49.5358 36.0732 49.5358C37.3562 49.5358 38.5027 49.7811 39.5128 50.2991C40.5228 50.8171 41.3145 51.5259 41.8877 52.4529C42.461 53.3798 42.734 54.4158 42.734 55.588C42.734 56.7603 42.461 57.7963 41.8877 58.7232C41.3145 59.6501 40.5228 60.359 39.5128 60.9042C38.5027 61.4222 37.3562 61.6948 36.0732 61.6948ZM36.0732 58.4233C36.8103 58.4233 37.3835 58.178 37.8476 57.6872C38.3117 57.1965 38.53 56.4877 38.53 55.6153C38.53 54.7429 38.3117 54.0613 37.8476 53.5706C37.3835 53.0799 36.783 52.8345 36.0732 52.8345C35.3362 52.8345 34.7629 53.0799 34.2988 53.5706C33.8348 54.0613 33.6164 54.7429 33.6164 55.6153C33.6164 56.4877 33.8348 57.1965 34.2988 57.6872C34.7629 58.178 35.3635 58.4233 36.0732 58.4233ZM57.0109 49.7539L52.1518 61.504H47.8933L43.0615 49.7539H47.2928L50.1045 56.9239L53.08 49.7539H57.0109ZM70.114 55.6426C70.114 55.6698 70.0867 56.0242 70.0594 56.6513H61.5151C61.6789 57.251 62.0338 57.7145 62.5251 58.0416C63.0165 58.3688 63.6443 58.5324 64.4087 58.5324C64.982 58.5324 65.4733 58.4506 65.8828 58.287C66.2923 58.1234 66.7017 57.8781 67.1385 57.4964L69.3224 59.7592C68.1758 61.0405 66.5107 61.6675 64.2995 61.6675C62.9346 61.6675 61.7062 61.3949 60.6688 60.8769C59.6315 60.359 58.8126 59.6229 58.2393 58.6959C57.666 57.769 57.3931 56.7331 57.3931 55.5608C57.3931 54.4158 57.666 53.3798 58.2393 52.4529C58.7853 51.5259 59.5769 50.8171 60.5597 50.2991C61.5424 49.7811 62.6616 49.5085 63.89 49.5085C65.0639 49.5085 66.1285 49.7539 67.0839 50.2446C68.0393 50.7353 68.8037 51.4169 69.3497 52.3438C69.8956 53.2707 70.1959 54.3612 70.1959 55.6153L70.114 55.6426ZM63.8354 52.4801C63.2076 52.4801 62.6616 52.671 62.2521 53.0254C61.8154 53.3798 61.5424 53.8705 61.4332 54.4975H66.265C66.1558 53.8705 65.8828 53.3798 65.446 53.0254C65.0093 52.671 64.4906 52.4801 63.8627 52.4801H63.8354ZM80.1324 61.0133C79.7776 61.2313 79.3681 61.3949 78.8494 61.504C78.3581 61.613 77.8121 61.6675 77.2661 61.6675C75.7374 61.6675 74.5636 61.2859 73.7174 60.5498C72.8984 59.7864 72.4889 58.6687 72.4889 57.1965V53.2435H70.7692V50.1628H72.4889V47.1094H76.611V50.1628H79.3135V53.2435H76.611V57.142C76.611 57.5509 76.7202 57.8781 76.9385 58.1234C77.1569 58.3688 77.4572 58.4778 77.8394 58.4778C78.3035 58.4778 78.7402 58.3415 79.0951 58.0962L80.1051 60.986L80.1324 61.0133ZM89.3865 49.5358C90.8606 49.5358 92.0344 49.972 92.908 50.8444C93.8088 51.7168 94.2456 53.0254 94.2456 54.7702V61.504H90.1236V55.4517C90.1236 53.8432 89.4684 53.0526 88.1854 53.0526C87.4756 53.0526 86.9024 53.2707 86.4929 53.7342C86.0561 54.1977 85.865 54.8792 85.865 55.8061V61.4767H81.743V49.7266H85.674V51.008C86.138 50.5445 86.684 50.1628 87.3118 49.9175C87.9397 49.6721 88.6495 49.5358 89.3865 49.5358ZM96.8389 49.7266H100.961V61.4767H96.8389V49.7266ZM98.9136 48.418C98.1492 48.418 97.5487 48.1999 97.0846 47.791C96.6205 47.3821 96.4021 46.8641 96.4021 46.237C96.4021 45.61 96.6205 45.092 97.0846 44.6831C97.5487 44.2741 98.1492 44.056 98.9136 44.056C99.6779 44.056 100.278 44.2469 100.743 44.6558C101.207 45.0648 101.425 45.5555 101.425 46.1825C101.425 46.8368 101.207 47.3821 100.743 47.791C100.278 48.2272 99.6779 48.418 98.9136 48.418ZM108.987 57.3601L107.758 58.5869V61.4767H103.636V45.3919H107.758V53.816L111.962 49.7266H116.848L111.962 54.7429L117.258 61.4767H112.262L108.959 57.3601H108.987ZM120.288 61.6675C119.606 61.6675 119.005 61.4494 118.541 60.986C118.077 60.5225 117.831 59.95 117.831 59.2412C117.831 58.5051 118.077 57.9326 118.541 57.4964C119.005 57.0602 119.606 56.8148 120.315 56.8148C121.052 56.8148 121.626 57.0329 122.09 57.4964C122.554 57.9326 122.772 58.5324 122.772 59.2412C122.772 59.95 122.526 60.5225 122.062 60.986C121.598 61.4494 120.998 61.6675 120.288 61.6675ZM132.354 49.5358C133.828 49.5358 135.002 49.972 135.875 50.8444C136.776 51.7168 137.213 53.0254 137.213 54.7702V61.504H133.091V55.4517C133.091 53.8432 132.436 53.0526 131.153 53.0526C130.443 53.0526 129.87 53.2707 129.46 53.7342C129.023 54.1977 128.832 54.8792 128.832 55.8061V61.4767H124.71V49.7266H128.641V51.008C129.105 50.5445 129.651 50.1628 130.279 49.9175C130.907 49.6721 131.617 49.5358 132.354 49.5358ZM151.817 55.6153C151.817 55.6426 151.79 55.997 151.763 56.624H143.218C143.382 57.2238 143.737 57.6872 144.228 58.0144C144.72 58.3415 145.348 58.5051 146.112 58.5051C146.685 58.5051 147.177 58.4233 147.586 58.2597C147.996 58.0962 148.405 57.8508 148.842 57.4691L151.026 59.7319C149.879 61.0133 148.214 61.6403 146.003 61.6403C144.638 61.6403 143.41 61.3677 142.372 60.8497C141.335 60.3317 140.516 59.5956 139.943 58.6687C139.369 57.7418 139.096 56.7058 139.096 55.5335C139.096 54.3885 139.369 53.3525 139.943 52.4256C140.489 51.4987 141.28 50.7899 142.263 50.2719C143.246 49.7539 144.365 49.4813 145.593 49.4813C146.767 49.4813 147.832 49.7266 148.787 50.2173C149.743 50.7081 150.507 51.3896 151.053 52.3165C151.599 53.2435 151.899 54.334 151.899 55.588L151.817 55.6153ZM145.539 52.4529C144.911 52.4529 144.365 52.6437 143.956 52.9981C143.519 53.3525 143.246 53.8432 143.137 54.4703H147.968C147.859 53.8432 147.586 53.3525 147.149 52.9981C146.713 52.6437 146.194 52.4529 145.566 52.4529H145.539ZM161.836 60.986C161.481 61.2041 161.071 61.3677 160.553 61.4767C160.061 61.5858 159.515 61.6403 158.969 61.6403C157.441 61.6403 156.267 61.2586 155.421 60.5225C154.602 59.7592 154.192 58.6414 154.192 57.1693V53.2162H152.473V50.1356H154.192V47.0822H158.314V50.1356H161.017V53.2162H158.314V57.1147C158.314 57.5237 158.424 57.8508 158.642 58.0962C158.86 58.3415 159.161 58.4506 159.543 58.4506C160.034 58.4506 160.444 58.3143 160.798 58.0689L161.809 60.9587L161.836 60.986Z" fill="#545E69"/>
<path d="M21.769 9.65089H30.095V39.0398H21.769V9.65089ZM50.4867 15.894C53.3257 15.894 55.5914 16.7391 57.3112 18.4021C59.031 20.0924 59.9046 22.6278 59.9046 26.0083V39.0125H51.9062V27.2897C51.9062 24.1818 50.6505 22.6278 48.1664 22.6278C46.8014 22.6278 45.6822 23.064 44.8633 23.9637C44.0443 24.8633 43.6349 26.1992 43.6349 27.9985V39.0125H35.6365V16.2484H43.2527V18.7293C44.1535 17.8024 45.2182 17.0935 46.4466 16.6028C47.675 16.1121 49.0126 15.8667 50.4867 15.8667V15.894ZM88.4857 16.2757L79.6138 39.2851L70.8511 39.0125L61.4879 16.2484H69.6773L75.1369 30.1522L80.8968 16.2484H88.513L88.4857 16.2757ZM113.218 27.6986C113.218 27.7531 113.163 28.4074 113.081 29.6615H96.5114C96.839 30.8338 97.4941 31.7334 98.4768 32.3605C99.4323 32.9875 100.661 33.3147 102.107 33.3147C103.199 33.3147 104.155 33.1511 104.947 32.8512C105.738 32.5513 106.557 32.0333 107.376 31.3518L111.58 35.7137C109.369 38.1674 106.12 39.4214 101.862 39.4214C99.1866 39.4214 96.8662 38.9307 94.8462 37.922C92.8261 36.9133 91.2701 35.5229 90.1509 33.7236C89.0317 31.9243 88.4857 29.9069 88.4857 27.6441C88.4857 25.4086 89.0317 23.3911 90.0963 21.6191C91.1882 19.847 92.6623 18.4566 94.5732 17.4479C96.4841 16.4392 98.6133 15.9485 101.016 15.9485C103.281 15.9485 105.356 16.412 107.185 17.3662C109.041 18.2931 110.488 19.6562 111.58 21.4282C112.672 23.2003 113.191 25.2995 113.191 27.7531L113.218 27.6986ZM101.07 21.5646C99.8418 21.5646 98.8044 21.919 97.9855 22.6005C97.1665 23.3094 96.6206 24.2635 96.4022 25.4631H105.738C105.52 24.2635 105.001 23.3094 104.155 22.6005C103.336 21.8917 102.299 21.5646 101.07 21.5646ZM125.202 39.4214C123.291 39.4214 121.407 39.2033 119.578 38.7671C117.722 38.3309 116.248 37.7584 115.129 37.0769L117.531 31.6244C118.568 32.2787 119.797 32.7694 121.243 33.1511C122.663 33.5328 124.083 33.7236 125.502 33.7236C126.785 33.7236 127.713 33.5873 128.259 33.3147C128.805 33.042 129.078 32.6604 129.078 32.1696C129.078 31.6789 128.75 31.2972 128.095 31.1064C127.44 30.8883 126.403 30.6975 124.956 30.5066C123.127 30.2885 121.598 29.9886 120.315 29.6342C119.032 29.2798 117.94 28.5983 117.012 27.6168C116.084 26.6354 115.62 25.2722 115.62 23.5002C115.62 22.0553 116.057 20.7467 116.93 19.6289C117.804 18.4839 119.06 17.6115 120.725 16.93C122.39 16.2757 124.383 15.9485 126.703 15.9485C128.368 15.9485 130.006 16.1121 131.617 16.4392C133.255 16.7664 134.592 17.2571 135.684 17.8569L133.282 23.2821C131.262 22.1643 129.078 21.5918 126.73 21.5918C125.475 21.5918 124.547 21.7281 123.946 22.028C123.345 22.3279 123.072 22.7096 123.072 23.173C123.072 23.7183 123.4 24.0727 124.028 24.2908C124.683 24.5089 125.748 24.727 127.222 24.9451C129.105 25.2177 130.661 25.5449 131.89 25.8993C133.118 26.2537 134.183 26.9353 135.111 27.8894C136.012 28.8436 136.476 30.2067 136.476 31.9515C136.476 33.3692 136.039 34.6505 135.166 35.7955C134.292 36.9406 133.009 37.813 131.317 38.4672C129.624 39.1215 127.577 39.4214 125.202 39.4214ZM155.639 38.1128C154.957 38.5218 154.138 38.8489 153.182 39.067C152.227 39.2851 151.19 39.3942 150.098 39.3942C147.122 39.3942 144.829 38.6581 143.246 37.2132C141.635 35.7683 140.844 33.5873 140.844 30.6975V23.064H137.513V17.0935H140.844V11.1776H148.842V17.0935H154.056V23.064H148.842V30.6157C148.842 31.4335 149.06 32.0606 149.497 32.524C149.934 32.9875 150.507 33.2056 151.244 33.2056C152.172 33.2056 152.991 32.9602 153.674 32.4968L155.639 38.0856V38.1128Z" fill="white"/>
<path d="M21.769 9.59636H30.1495V39.0943H21.7144V9.59636H21.769ZM30.0403 9.70541H21.8235V38.9852H30.0403V9.70541ZM50.4866 15.8667C51.9061 15.8667 53.1891 16.0848 54.3356 16.4937C55.4822 16.9027 56.4922 17.557 57.3657 18.4021C58.2393 19.2472 58.8944 20.3105 59.3312 21.5918C59.768 22.8731 59.9864 24.3453 59.9864 26.0628V39.1215H51.8788V27.3442C51.8788 25.7902 51.5785 24.6452 50.9507 23.8819C50.3501 23.1185 49.422 22.7368 48.1936 22.7368C47.5111 22.7368 46.9105 22.8459 46.3646 23.064C45.8186 23.2821 45.3545 23.6092 44.9451 24.0454C44.5356 24.4816 44.2353 25.0541 44.0169 25.7084C43.7986 26.3627 43.7167 27.1533 43.7167 28.053V39.1215H35.6091V16.2484H43.3345V18.6475C43.7713 18.2113 44.2353 17.8296 44.7267 17.5025C45.2727 17.148 45.8459 16.8482 46.4738 16.6028C47.1016 16.3574 47.7295 16.1666 48.4119 16.0575C49.0944 15.9212 49.8041 15.8667 50.5139 15.8667H50.4866ZM54.3083 16.6028C53.1891 16.1939 51.9061 15.9758 50.4866 15.9758C49.7495 15.9758 49.0671 16.0303 48.3846 16.1666C47.7022 16.2756 47.0743 16.4665 46.4738 16.7118C45.8732 16.9572 45.3 17.2571 44.754 17.6115C44.2353 17.9659 43.744 18.3749 43.2799 18.8383L43.198 18.9474V16.3847H35.691V39.0398H43.5802V28.0803C43.5802 27.1806 43.6894 26.39 43.8804 25.7084C44.0988 25.0269 44.3991 24.4544 44.8359 24.0182C45.2454 23.5547 45.7367 23.2276 46.31 23.0095C46.8559 22.7914 47.4838 22.6823 48.1936 22.6823C49.4493 22.6823 50.4047 23.064 51.0326 23.8546C51.6604 24.6452 51.988 25.8175 51.988 27.3714V39.0398H59.8772V26.0901C59.8772 24.3998 59.6588 22.9277 59.222 21.6736C58.7852 20.4195 58.1574 19.3563 57.2838 18.5384C56.4376 17.6933 55.4276 17.0663 54.3083 16.6573V16.6028ZM88.5675 16.3302L79.6683 39.3942C76.7201 39.3124 73.7719 39.2033 70.8237 39.1215C67.6844 31.4881 64.5451 23.8819 61.4059 16.2484H69.7318L75.1641 30.0704L80.8967 16.2484H88.6221L88.5948 16.3302H88.5675ZM79.5864 39.2851L88.431 16.3847H80.924L75.1368 30.3703L69.6226 16.3847H61.5424L70.8783 39.0398L79.5864 39.3124V39.2851ZM113.272 27.7531C113.272 27.7804 113.272 27.9712 113.245 28.3256C113.218 28.6528 113.19 29.1162 113.163 29.7433V29.7978H96.6205C96.7843 30.343 97.0299 30.8338 97.3302 31.27C97.6578 31.7062 98.04 32.0878 98.5313 32.415C99.0227 32.7149 99.5414 32.9602 100.142 33.1238C100.742 33.2874 101.398 33.3692 102.135 33.3692C102.681 33.3692 103.199 33.3419 103.663 33.2601C104.127 33.1783 104.564 33.0693 104.974 32.9057C105.383 32.7421 105.765 32.5513 106.175 32.3059C106.584 32.0606 106.966 31.7607 107.376 31.4063L107.403 31.379C108.823 32.8512 110.242 34.3506 111.689 35.8228L111.662 35.8501C110.543 37.0769 109.178 38.0038 107.54 38.6308C105.902 39.2579 104.046 39.5577 101.889 39.5577C100.551 39.5577 99.2957 39.4214 98.1219 39.1761C96.948 38.9307 95.8561 38.549 94.8461 38.031C93.8361 37.5131 92.9352 36.9133 92.1436 36.2045C91.3519 35.4956 90.6968 34.705 90.1235 33.8054C89.5775 32.9057 89.1408 31.9515 88.8678 30.9156C88.5948 29.9068 88.4583 28.8164 88.4583 27.6713C88.4583 26.5536 88.5948 25.4903 88.8678 24.4816C89.1408 23.4729 89.5502 22.5187 90.0962 21.6191C90.6422 20.7194 91.2973 19.9288 92.0344 19.22C92.7714 18.5112 93.645 17.9114 94.6004 17.4207C95.5558 16.9027 96.5659 16.5483 97.6578 16.2756C98.7224 16.0303 99.8689 15.894 101.07 15.894C102.217 15.894 103.309 16.003 104.319 16.2484C105.356 16.4937 106.339 16.8482 107.267 17.3116C108.195 17.7751 109.041 18.3476 109.778 19.0292C110.515 19.7107 111.143 20.5013 111.689 21.401C112.235 22.3006 112.644 23.2821 112.917 24.3181C113.19 25.3813 113.327 26.5263 113.327 27.7259L113.272 27.7531ZM113.136 28.2984C113.163 27.9712 113.163 27.7804 113.163 27.7531C113.163 26.5536 113.027 25.4086 112.754 24.3726C112.481 23.3366 112.071 22.3552 111.553 21.4828C111.007 20.6104 110.379 19.8198 109.642 19.1382C108.905 18.4566 108.086 17.8841 107.158 17.4207C106.229 16.9572 105.274 16.6028 104.237 16.3574C103.199 16.1121 102.135 16.003 100.988 16.003C99.787 16.003 98.6678 16.1393 97.6032 16.3847C96.5386 16.6301 95.5285 17.0117 94.5731 17.5025C93.6177 17.9932 92.7714 18.593 92.0344 19.3018C91.2973 19.9833 90.6422 20.7739 90.1235 21.6736C89.5775 22.546 89.1954 23.5002 88.9224 24.5089C88.6494 25.5176 88.5129 26.5536 88.5129 27.6713C88.5129 28.7891 88.6494 29.8796 88.9224 30.8883C89.1954 31.897 89.6048 32.8512 90.1508 33.7508C90.6968 34.6505 91.3792 35.4411 92.1436 36.1227C92.9079 36.8315 93.8088 37.4313 94.8188 37.922C95.8288 38.4127 96.9207 38.7944 98.0673 39.0398C99.2411 39.2851 100.47 39.4214 101.807 39.4214C103.936 39.4214 105.793 39.1215 107.403 38.4945C108.987 37.8947 110.351 36.9678 111.443 35.7683L107.321 31.4881C106.939 31.8152 106.53 32.1151 106.148 32.3605C105.738 32.6058 105.329 32.8239 104.946 32.9875C104.537 33.1511 104.1 33.2601 103.636 33.3419C103.172 33.4237 102.653 33.451 102.107 33.451C101.37 33.451 100.715 33.3692 100.087 33.2056C99.4868 33.042 98.9135 32.7967 98.4494 32.4968C97.9581 32.1696 97.5486 31.788 97.221 31.3245C96.8934 30.861 96.6478 30.343 96.484 29.7433L96.4567 29.6615H113.054L113.136 28.2984ZM101.07 21.6736C100.47 21.6736 99.8962 21.7554 99.3776 21.9462C98.8589 22.1098 98.4221 22.3824 98.0127 22.7368C97.6032 23.0912 97.2756 23.5002 97.0026 23.9636C96.757 24.4271 96.5659 24.9178 96.4567 25.4903H105.656C105.547 24.9178 105.356 24.3998 105.11 23.9636C104.837 23.5002 104.51 23.0912 104.1 22.7368C103.691 22.3824 103.227 22.1371 102.735 21.9462C102.217 21.7827 101.671 21.6736 101.043 21.6736H101.07ZM99.3503 21.8372C99.8689 21.6736 100.442 21.5646 101.07 21.5646C101.698 21.5646 102.271 21.6463 102.79 21.8372C103.309 22.0008 103.773 22.2734 104.209 22.6278C104.619 22.9822 104.974 23.3911 105.247 23.8819C105.52 24.3726 105.711 24.9178 105.82 25.5176V25.5721H96.3475V25.5176C96.4567 24.9178 96.6478 24.3726 96.9207 23.8819C97.1937 23.3911 97.5213 22.9822 97.9581 22.6278C98.3675 22.2734 98.8589 22.0008 99.3776 21.8372H99.3503ZM125.202 39.5305C124.246 39.5305 123.291 39.476 122.363 39.3669C121.434 39.2579 120.479 39.0943 119.551 38.8762C118.623 38.6581 117.777 38.4127 117.039 38.1128C116.302 37.8402 115.647 37.5131 115.074 37.1586L115.047 37.1314C115.866 35.2775 116.685 33.4237 117.476 31.5699L117.531 31.5971C118.05 31.9243 118.623 32.1969 119.223 32.4695C119.851 32.7149 120.506 32.933 121.216 33.1238C121.926 33.3146 122.636 33.451 123.345 33.56C124.055 33.6418 124.765 33.6963 125.447 33.6963C126.102 33.6963 126.648 33.6691 127.085 33.5873C127.549 33.5327 127.904 33.4237 128.177 33.2874C128.45 33.1511 128.641 33.0148 128.778 32.8239C128.914 32.6331 128.969 32.4423 128.969 32.1969C128.969 31.9515 128.887 31.7607 128.723 31.5971C128.559 31.4335 128.314 31.2972 128.013 31.1882C127.686 31.0791 127.276 30.9701 126.73 30.8883C126.212 30.7792 125.584 30.6975 124.874 30.5884C123.973 30.4794 123.127 30.343 122.335 30.2067C121.571 30.0704 120.861 29.9068 120.206 29.716C119.551 29.5252 118.978 29.2798 118.404 28.9254C117.858 28.5983 117.34 28.1621 116.876 27.6713C116.412 27.1806 116.057 26.5808 115.811 25.8993C115.565 25.2177 115.456 24.4271 115.456 23.5274C115.456 22.0553 115.893 20.7467 116.766 19.6017C117.203 19.0292 117.749 18.5112 118.377 18.075C119.005 17.6115 119.742 17.2298 120.588 16.9027C121.434 16.5755 122.335 16.3302 123.345 16.1666C124.355 16.003 125.42 15.9212 126.594 15.9212C127.413 15.9212 128.259 15.9758 129.078 16.0575C129.897 16.1393 130.716 16.2756 131.535 16.4392C132.354 16.6028 133.091 16.8209 133.773 17.039C134.456 17.2844 135.084 17.557 135.63 17.8569L135.684 17.8841C134.865 19.7107 134.046 21.5646 133.255 23.3911L133.2 23.3639C132.19 22.8186 131.153 22.3824 130.061 22.1098C128.969 21.8372 127.85 21.7009 126.676 21.7009C126.048 21.7009 125.502 21.7281 125.038 21.8099C124.574 21.8917 124.219 22.0008 123.919 22.1371C123.618 22.2734 123.427 22.4369 123.263 22.6278C123.127 22.8186 123.045 23.0095 123.045 23.2276C123.045 23.4729 123.127 23.691 123.263 23.8819C123.427 24.0727 123.646 24.209 123.973 24.2908C124.301 24.3998 124.71 24.5089 125.256 24.6179C125.775 24.727 126.43 24.836 127.167 24.9451C128.095 25.0814 128.969 25.245 129.733 25.4086C130.525 25.5721 131.207 25.7357 131.835 25.9265C132.463 26.1174 133.036 26.3627 133.582 26.7171C134.128 27.0443 134.619 27.4532 135.084 27.944C135.548 28.4347 135.902 29.0072 136.121 29.6887C136.339 30.3703 136.476 31.1609 136.476 32.0333C136.476 33.4782 136.039 34.7596 135.165 35.9046C134.729 36.4771 134.183 36.9951 133.528 37.4313C132.872 37.8675 132.135 38.2764 131.289 38.5763C130.443 38.9034 129.487 39.1488 128.477 39.3124C127.467 39.476 126.348 39.5577 125.147 39.5577L125.202 39.5305ZM122.363 39.2579C123.291 39.3669 124.246 39.4214 125.202 39.4214C126.403 39.4214 127.495 39.3396 128.505 39.1761C129.515 39.0125 130.443 38.7671 131.289 38.4672C132.135 38.1401 132.872 37.7584 133.5 37.3222C134.128 36.886 134.674 36.368 135.111 35.8228C135.984 34.705 136.394 33.4237 136.394 32.0061C136.394 31.1337 136.285 30.3703 136.066 29.716C135.848 29.0617 135.493 28.4892 135.056 27.9985C134.592 27.5078 134.101 27.1261 133.582 26.7717C133.063 26.4445 132.49 26.1992 131.862 26.0083C131.235 25.8175 130.552 25.6539 129.788 25.4903C129.023 25.3268 128.15 25.1905 127.222 25.0269C126.485 24.9178 125.829 24.8088 125.311 24.6997C124.765 24.5907 124.355 24.4816 124.028 24.3726C123.7 24.2635 123.455 24.1 123.291 23.9091C123.127 23.7183 123.045 23.4729 123.045 23.2003C123.045 22.9549 123.127 22.7368 123.291 22.5187C123.455 22.3279 123.673 22.1371 123.973 22.0008C124.273 21.8644 124.656 21.7281 125.12 21.6736C125.584 21.5918 126.13 21.5646 126.758 21.5646C127.931 21.5646 129.078 21.7009 130.17 21.9735C131.262 22.2461 132.299 22.655 133.282 23.2003L135.63 17.8841C135.084 17.5842 134.51 17.3116 133.855 17.0935C133.173 16.8482 132.436 16.6573 131.617 16.4937C130.798 16.3302 129.979 16.1939 129.16 16.1121C128.341 16.0303 127.522 15.9758 126.703 15.9758C125.529 15.9758 124.465 16.0575 123.482 16.2211C122.499 16.3847 121.571 16.6301 120.752 16.9572C119.933 17.2844 119.196 17.666 118.568 18.1295C117.94 18.5657 117.394 19.0837 116.985 19.6289C116.111 20.7467 115.702 22.028 115.702 23.4729C115.702 24.3453 115.811 25.1359 116.057 25.8175C116.275 26.499 116.63 27.0716 117.094 27.5623C117.558 28.053 118.05 28.4619 118.595 28.7891C119.141 29.1162 119.742 29.3889 120.37 29.5524C120.998 29.7433 121.707 29.9068 122.472 30.0432C123.236 30.1795 124.082 30.3158 124.983 30.4248C125.693 30.5339 126.321 30.6157 126.84 30.7247C127.358 30.8338 127.795 30.9428 128.123 31.0246C128.45 31.1337 128.723 31.27 128.887 31.4608C129.051 31.6516 129.16 31.8697 129.16 32.1424C129.16 32.415 129.078 32.6331 128.941 32.8512C128.805 33.042 128.587 33.2329 128.314 33.3692C128.041 33.5055 127.658 33.6145 127.194 33.6691C126.73 33.7236 126.184 33.7781 125.529 33.7781C124.819 33.7781 124.11 33.7236 123.4 33.6418C122.69 33.56 121.98 33.3964 121.271 33.2056C120.561 33.0148 119.878 32.7967 119.278 32.524C118.677 32.2787 118.131 32.0061 117.613 31.6789L115.265 37.0496C115.811 37.3767 116.439 37.7039 117.176 37.9765C117.913 38.2491 118.759 38.5218 119.66 38.7126C120.588 38.9307 121.516 39.0943 122.445 39.2033L122.363 39.2579ZM155.666 38.2219C155.339 38.44 154.957 38.6308 154.547 38.7944C154.138 38.958 153.674 39.0943 153.21 39.2033C152.718 39.3124 152.227 39.3942 151.708 39.4487C151.189 39.5032 150.671 39.5305 150.098 39.5305C148.596 39.5305 147.286 39.3396 146.139 38.9852C144.993 38.6308 144.01 38.0583 143.218 37.3495C142.399 36.6134 141.799 35.7137 141.417 34.596C141.007 33.5055 140.816 32.2242 140.816 30.7792V23.2003H137.486V17.1208H140.816V11.2048H148.924V17.1208H154.138V23.2003H148.924V30.6975C148.924 31.1064 148.978 31.4608 149.088 31.7607C149.197 32.0606 149.36 32.3332 149.552 32.5786C149.77 32.7967 150.016 32.9602 150.289 33.0965C150.562 33.2056 150.889 33.2601 151.244 33.2601C151.708 33.2601 152.118 33.2056 152.527 33.0965C152.937 32.9875 153.291 32.7967 153.646 32.5786L153.701 32.5513C154.383 34.4597 155.038 36.3408 155.721 38.2491L155.694 38.2764L155.666 38.2219ZM154.493 38.6853C154.875 38.5218 155.23 38.3582 155.557 38.1674L153.619 32.6876C153.291 32.9057 152.909 33.0693 152.527 33.1783C152.118 33.2874 151.681 33.3692 151.217 33.3692C150.835 33.3692 150.507 33.3146 150.207 33.1783C149.906 33.0693 149.661 32.8785 149.415 32.6331C149.197 32.3877 149.033 32.1151 148.924 31.788C148.815 31.4608 148.76 31.1064 148.76 30.6975V23.0912H153.974V17.2298H148.76V11.3139H140.871V17.2298H137.54V23.0912H140.871V30.7792C140.871 32.2242 141.062 33.4782 141.471 34.5415C141.881 35.6047 142.454 36.5043 143.246 37.2404C144.037 37.9765 144.993 38.4945 146.139 38.8762C147.286 39.2306 148.596 39.4214 150.07 39.4214C150.616 39.4214 151.135 39.3942 151.654 39.3396C152.172 39.2851 152.664 39.2033 153.155 39.0943C153.646 38.9852 154.083 38.8489 154.493 38.6853Z" fill="#34383D"/>
<path d="M22.9155 10.0053L30.5589 9.51459C30.6681 9.51459 30.8046 9.51459 30.9138 9.56911C31.023 9.59637 31.1322 9.67816 31.2141 9.75995C31.296 9.84174 31.3779 9.95079 31.4052 10.0598C31.4325 10.1689 31.4598 10.2779 31.4598 10.4142L29.6308 38.0856C29.6035 38.3037 29.5216 38.4945 29.3578 38.6308C29.2213 38.7671 29.0029 38.8489 28.7846 38.8489L21.8235 38.7944C21.7143 38.7944 21.6052 38.7671 21.496 38.7399C21.3868 38.6854 21.3049 38.6308 21.223 38.549C21.1411 38.4673 21.0865 38.3582 21.0319 38.2764C21.0046 38.1674 20.9773 38.0583 20.9773 37.9493L22.1238 10.8232C22.1238 10.6051 22.233 10.4142 22.3695 10.2779C22.506 10.1416 22.6971 10.0326 22.9155 10.0326V10.0053ZM30.5862 9.869L22.9428 10.3597C22.8336 10.3597 22.7244 10.4142 22.6425 10.496C22.5606 10.5778 22.506 10.6869 22.506 10.7959L21.3595 37.922C21.3595 37.9765 21.3595 38.0583 21.3868 38.1128C21.4141 38.1674 21.4414 38.2219 21.496 38.2764C21.5506 38.3309 21.6052 38.3582 21.6597 38.3855C21.7143 38.4127 21.7689 38.4127 21.8508 38.4127L28.8119 38.4673C28.9484 38.4673 29.0575 38.4127 29.1394 38.3309C29.2213 38.2492 29.2759 38.1401 29.2759 38.0311L31.1049 10.3597C31.1049 10.2779 31.1049 10.2234 31.0776 10.1689C31.0503 10.1144 31.023 10.0598 30.9684 10.0053C30.9138 9.95079 30.8592 9.92352 30.8046 9.89626C30.75 9.869 30.6681 9.869 30.6135 9.869H30.5862ZM51.1417 16.0303C52.5613 16.0303 53.8443 16.1666 54.9635 16.521C56.0827 16.8754 57.0927 17.4207 57.9663 18.2931C58.8671 19.1655 59.4131 20.2287 59.7407 21.5373C60.0682 22.8186 60.1501 24.3181 60.0955 26.0356L59.6315 38.3855C59.6315 38.6036 59.5223 38.8217 59.3585 38.958C59.1947 39.0943 59.0036 39.1761 58.7852 39.1761L52.3156 39.067C52.2064 39.067 52.0972 39.0398 51.988 38.9852C51.8788 38.9307 51.7969 38.8762 51.715 38.7944C51.6331 38.7126 51.5785 38.6036 51.5512 38.4945C51.5239 38.3855 51.4966 38.2764 51.4966 38.1674L52.261 27.2897C52.261 27.0988 52.2883 26.908 52.2883 26.7172C52.2883 25.4904 51.988 24.5362 51.442 23.9091C50.8961 23.2821 50.1044 22.9004 49.0944 22.8459C48.9852 22.8459 48.8487 22.8459 48.7122 22.8459C48.0571 22.8459 47.4565 22.955 46.9378 23.173C46.4192 23.3911 45.9551 23.7183 45.5456 24.1272C45.1635 24.5634 44.8632 25.0814 44.6721 25.7357C44.481 26.39 44.3718 27.1534 44.3445 28.053L44.0169 38.549C44.0169 38.6581 43.9896 38.7671 43.935 38.8762C43.8804 38.9852 43.8258 39.067 43.7439 39.1488C43.6621 39.2306 43.5802 39.2851 43.471 39.3124C43.3618 39.3397 43.2526 39.3669 43.1434 39.3669L36.1551 39.1216C35.9367 39.1216 35.7183 39.0125 35.5818 38.8762C35.4453 38.7126 35.3361 38.5218 35.3634 38.2764L35.7456 17.1753C35.7456 16.9572 35.8275 16.7664 35.964 16.6028C36.1005 16.4665 36.2916 16.3575 36.5099 16.3575L42.652 15.9758C42.7612 15.9758 42.8977 15.9758 43.0069 16.0303C43.1161 16.0848 43.2253 16.1394 43.3072 16.2211C43.3891 16.3029 43.471 16.412 43.4983 16.521C43.5256 16.6301 43.5529 16.7391 43.5529 16.8754L43.4983 17.5025C43.4983 17.5843 43.4983 17.6933 43.5529 17.7478C43.5802 17.8296 43.6621 17.8841 43.7439 17.9387C43.8258 17.9932 43.9077 17.9932 43.9896 17.9932C44.0715 17.9932 44.1534 17.9659 44.2353 17.9114C44.6448 17.6388 45.0816 17.3662 45.5456 17.1208C46.0097 16.8754 46.5011 16.6573 46.9105 16.4665C48.0298 16.0303 49.3128 16.0303 50.6231 16.0303C50.7323 16.0303 50.8415 16.0303 51.1417 16.0303ZM54.8543 16.8482C53.7624 16.521 52.534 16.3847 51.1417 16.3847H50.6231C49.3674 16.3847 48.0844 16.3575 47.047 16.7936C46.6376 16.9572 46.1735 17.1753 45.7094 17.4207C45.2726 17.666 44.8359 17.9114 44.4537 18.184C44.3172 18.2658 44.1807 18.3203 44.0169 18.3203C43.8531 18.3203 43.7167 18.2931 43.5802 18.2113C43.4437 18.1295 43.3345 18.0205 43.2526 17.8841C43.1707 17.7478 43.1434 17.5843 43.1707 17.4207L43.2253 16.7936C43.2253 16.7119 43.2253 16.6573 43.198 16.6028C43.1707 16.5483 43.1434 16.4938 43.0888 16.4392C43.0342 16.3847 42.9796 16.3575 42.925 16.3302C42.8704 16.3029 42.7885 16.3029 42.7339 16.3029L36.5918 16.6846C36.4826 16.6846 36.3734 16.7391 36.2916 16.8209C36.2097 16.9027 36.1551 17.0117 36.1551 17.1481L35.7729 38.2492C35.7729 38.3855 35.8275 38.4945 35.9094 38.5763C35.9913 38.6581 36.1005 38.7126 36.237 38.7126L43.2253 38.958C43.2799 38.958 43.3618 38.958 43.4164 38.9307C43.471 38.9035 43.5256 38.8762 43.5802 38.8217C43.6348 38.7671 43.6621 38.7399 43.6894 38.6854C43.7167 38.6308 43.7167 38.5763 43.7167 38.4945L44.0442 27.9985C44.0715 27.0988 44.1807 26.281 44.3718 25.5994C44.5902 24.8906 44.8905 24.3181 45.3272 23.8546C45.764 23.3911 46.2554 23.0367 46.8286 22.7914C47.4019 22.546 48.0298 22.437 48.7395 22.437C48.876 22.437 49.0125 22.437 49.149 22.4642C50.2409 22.546 51.1417 22.9277 51.7423 23.6638C52.3429 24.3726 52.6977 25.3813 52.6977 26.7172C52.6977 26.908 52.6977 27.0988 52.6704 27.3169L51.9061 38.1946C51.9061 38.2764 51.9061 38.3309 51.9334 38.3855C51.9607 38.44 51.988 38.4945 52.0426 38.549C52.0972 38.6036 52.1518 38.6308 52.2064 38.6581C52.261 38.6854 52.3156 38.6854 52.3975 38.6854L58.8671 38.7944C59.0036 38.7944 59.1128 38.7399 59.1947 38.6581C59.2766 38.5763 59.3312 38.4673 59.3312 38.3309L59.7953 25.9811C59.8499 24.3181 59.768 22.8459 59.4677 21.5918C59.1674 20.365 58.6214 19.3291 57.7752 18.5112C56.929 17.6933 56.0008 17.1481 54.9089 16.8209L54.8543 16.8482ZM88.7586 17.2844L79.3134 38.4127C79.2588 38.549 79.1496 38.6854 79.0405 38.7671C78.9313 38.8489 78.7675 38.9035 78.631 38.9035L71.1513 39.4214C70.9602 39.4214 70.7964 39.3942 70.6599 39.3124C70.5234 39.2306 70.3869 39.0943 70.3323 38.9307L61.324 17.0117C61.2694 16.8754 61.2421 16.7391 61.2694 16.6028C61.2967 16.4665 61.3513 16.3302 61.4331 16.2211C61.515 16.1121 61.6242 16.003 61.7607 15.9485C61.8972 15.894 62.0337 15.8667 62.1702 15.8667L69.7045 16.521C69.8683 16.521 70.0048 16.5755 70.114 16.6846C70.2232 16.7664 70.3323 16.9027 70.3869 17.039L75.1095 28.4074C75.1368 28.4892 75.2187 28.571 75.2733 28.6255C75.3552 28.6801 75.4371 28.7073 75.5463 28.7073C75.6555 28.7073 75.7374 28.6801 75.8193 28.6255C75.9012 28.571 75.9558 28.4892 75.9831 28.4074L80.2143 16.93C80.2689 16.7664 80.3781 16.6301 80.5146 16.5483C80.651 16.4665 80.8148 16.412 80.9786 16.3847L87.9942 16.1666C88.1307 16.1666 88.2672 16.1939 88.4037 16.2484C88.5129 16.3029 88.6221 16.412 88.704 16.521C88.7859 16.6301 88.8405 16.7664 88.8405 16.9027C88.8405 17.039 88.8405 17.1753 88.7586 17.3116V17.2844ZM78.9859 38.2764L88.431 17.1481C88.4583 17.0663 88.4856 16.9845 88.4583 16.9027C88.4583 16.8209 88.431 16.7391 88.3764 16.6846C88.3218 16.6028 88.2672 16.5483 88.2126 16.521C88.1307 16.4938 88.0761 16.4665 87.9942 16.4665L80.9786 16.6846C80.8694 16.6846 80.7875 16.7119 80.7056 16.7664C80.6237 16.8209 80.5691 16.9027 80.5419 16.9845L76.3106 28.462C76.256 28.6255 76.1469 28.7618 76.0104 28.8436C75.8739 28.9254 75.7101 28.9799 75.5463 29.0072C75.3825 29.0072 75.2187 28.9527 75.0822 28.8709C74.9457 28.7891 74.8365 28.6528 74.7819 28.4892L70.0594 17.1208C70.0321 17.039 69.9775 16.9572 69.8956 16.93C69.841 16.8754 69.7591 16.8482 69.6499 16.8482L62.1156 16.1939C62.0337 16.1939 61.9518 16.1939 61.8699 16.2211C61.788 16.2484 61.7334 16.3029 61.6788 16.3847C61.6242 16.4665 61.5969 16.521 61.5969 16.6028C61.5969 16.6846 61.5969 16.7664 61.6242 16.8482L70.6326 38.7671C70.6599 38.8489 70.7418 38.9307 70.8237 38.9852C70.9056 39.0398 71.0148 39.067 71.0967 39.0398L78.5764 38.5218C78.6583 38.5218 78.7402 38.4945 78.8221 38.44C78.8767 38.3855 78.9313 38.3309 78.9859 38.2492V38.2764ZM113.627 27.0443C113.627 27.1534 113.627 27.8077 113.573 28.7073C113.573 28.9254 113.463 29.1163 113.327 29.2526C113.19 29.3889 112.972 29.4707 112.754 29.4979L97.5486 29.6615C97.4667 29.6615 97.3848 29.6888 97.3302 29.716C97.2756 29.7433 97.1937 29.7978 97.1664 29.8796C97.1118 29.9614 97.0845 30.0159 97.0845 30.0977C97.0845 30.1795 97.0845 30.2613 97.1391 30.3158C97.3575 30.7793 97.6305 31.27 97.9581 31.6517C98.2583 32.0061 98.5586 32.3332 98.8862 32.5513C99.7325 33.0966 101.015 33.0966 102.326 33.0966H102.626C103.172 33.0966 103.663 33.0693 104.127 32.9875C104.592 32.9057 105.001 32.7967 105.41 32.6604L105.547 32.6058C106.093 32.3877 106.393 32.2787 106.885 31.897C107.048 31.788 107.212 31.7334 107.403 31.7334C107.594 31.7334 107.758 31.8152 107.922 31.9243L111.198 34.6778C111.28 34.7596 111.361 34.8414 111.416 34.9504C111.471 35.0595 111.498 35.1685 111.498 35.2776C111.498 35.3866 111.498 35.4957 111.443 35.6047C111.416 35.7138 111.334 35.7955 111.252 35.8773C110.16 36.9951 108.959 37.8947 107.512 38.5218C106.066 39.1488 104.4 39.5305 102.38 39.5305C101.043 39.5305 99.787 39.3942 98.5859 39.1488C97.4121 38.9035 96.2929 38.5218 95.2829 38.0038C95.0372 37.8675 94.7642 37.7312 94.4639 37.5949C92.7441 36.7497 91.2154 36.0136 90.2327 34.4324C89.6867 33.5328 89.25 32.5241 88.977 31.4608C88.6767 30.3703 88.5402 29.2253 88.5402 28.053C88.5402 26.9353 88.5948 25.6539 88.7586 24.3999C88.9497 23.173 89.2773 21.9735 89.8232 21.0738C90.8605 19.3563 92.826 18.3203 94.655 17.3662L95.0099 17.1753C95.9653 16.6573 97.0026 16.2757 98.0946 16.0303C99.1865 15.7849 100.333 15.6486 101.534 15.6486C102.681 15.6486 103.773 15.7577 104.81 16.003C105.847 16.2484 106.857 16.6028 107.785 17.0663C108.714 17.5297 109.56 18.1295 110.324 18.8111C111.061 19.4926 111.716 20.3105 112.262 21.2102C112.808 22.1098 113.163 22.955 113.354 23.8546C113.545 24.7543 113.627 25.763 113.627 26.9898V27.0443ZM113.272 27.0443C113.272 25.8448 113.218 24.8633 113.027 23.9909C112.836 23.1185 112.508 22.3279 111.989 21.4555C111.471 20.5831 110.843 19.8198 110.106 19.1382C109.396 18.4839 108.577 17.9114 107.649 17.4479C106.748 16.9845 105.765 16.6301 104.755 16.412C103.745 16.1939 102.681 16.0576 101.534 16.0576C100.36 16.0576 99.2411 16.1939 98.1765 16.4392C97.1118 16.6846 96.1291 17.0663 95.1737 17.557L94.8188 17.7478C93.0171 18.702 91.1062 19.7107 90.1235 21.3192C89.6048 22.1916 89.2773 23.3366 89.1135 24.5089C88.9224 25.7085 88.8951 26.9898 88.8951 28.1075C88.8951 29.2526 89.0316 30.3703 89.3046 31.4336C89.5775 32.4695 89.987 33.4237 90.5057 34.2961C91.4338 35.7955 92.9352 36.5316 94.6004 37.3222C94.8461 37.4585 95.1191 37.5676 95.4193 37.7312C96.4021 38.2219 97.494 38.6036 98.6405 38.8489C99.787 39.0943 101.043 39.2306 102.353 39.2306C104.319 39.2306 105.929 38.8762 107.321 38.2492C108.714 37.6221 109.887 36.7497 110.952 35.6592C111.007 35.6047 111.034 35.5502 111.061 35.4957C111.088 35.4411 111.088 35.3866 111.088 35.3048C111.088 35.223 111.061 35.1685 111.034 35.114C111.007 35.0595 110.979 35.0049 110.925 34.9777L107.649 32.2242C107.567 32.1424 107.458 32.1151 107.349 32.1151C107.239 32.1151 107.13 32.1424 107.048 32.2242C106.53 32.6331 106.202 32.7422 105.629 32.9603L105.492 33.0148C105.083 33.1784 104.619 33.2874 104.155 33.3692C103.663 33.451 103.145 33.4782 102.599 33.4782H102.298C100.934 33.4782 99.596 33.4782 98.6678 32.8785C98.3129 32.6331 97.9581 32.306 97.6578 31.897C97.3302 31.4608 97.0299 30.9701 96.7842 30.4794C96.7297 30.3431 96.7024 30.2067 96.7024 30.0704C96.7024 29.9341 96.757 29.7978 96.8388 29.6888C96.9207 29.5797 97.0299 29.4707 97.1391 29.4161C97.2483 29.3616 97.3848 29.3071 97.5486 29.3071L112.754 29.1435C112.89 29.1435 112.999 29.089 113.081 29.0072C113.163 28.9254 113.218 28.8164 113.218 28.6801C113.272 27.7804 113.272 27.1534 113.272 27.0443ZM101.589 21.7281C100.988 21.7281 100.224 21.7554 99.5414 21.8645C98.8589 21.9735 98.2583 22.1643 97.8762 22.4915C97.6032 22.7096 97.3575 23.064 97.1664 23.4457C96.9207 23.9364 96.7297 24.4816 96.5932 25.0269C96.5659 25.1087 96.5659 25.1632 96.5932 25.245C96.6205 25.3268 96.6478 25.3813 96.6751 25.4358C96.7297 25.4904 96.7842 25.5449 96.8388 25.5721C96.8934 25.5994 96.9753 25.6267 97.0572 25.5994L105.001 25.2723C105.083 25.2723 105.137 25.245 105.192 25.2177C105.247 25.1905 105.301 25.1359 105.356 25.0814C105.41 25.0269 105.438 24.9724 105.438 24.9178C105.465 24.8633 105.465 24.7815 105.438 24.727C105.356 24.2908 105.301 23.9091 105.165 23.582C105.028 23.2548 104.865 22.955 104.564 22.7096C104.155 22.3824 103.718 22.1098 103.227 21.9462C102.735 21.7827 102.189 21.7009 101.589 21.7009V21.7281ZM99.4868 21.51C100.197 21.401 100.961 21.3737 101.589 21.3737C102.217 21.3737 102.817 21.4555 103.336 21.6464C103.882 21.8372 104.346 22.1098 104.783 22.4642C105.137 22.7641 105.356 23.0913 105.492 23.4729C105.629 23.8546 105.711 24.2363 105.793 24.6997C105.82 24.8088 105.82 24.9451 105.765 25.0542C105.738 25.1632 105.683 25.2723 105.602 25.354C105.52 25.4358 105.438 25.5176 105.329 25.5721C105.219 25.6267 105.11 25.6539 105.001 25.6539L97.0572 25.9811C96.9207 25.9811 96.7842 25.9538 96.6751 25.8993C96.5659 25.8448 96.4567 25.763 96.3748 25.6539C96.2929 25.5449 96.2383 25.4358 96.211 25.2995C96.1837 25.1632 96.1837 25.0542 96.211 24.9178C96.3475 24.3453 96.5659 23.7728 96.8115 23.2548C97.0299 22.8186 97.3029 22.437 97.6032 22.1916C98.04 21.8099 98.7224 21.6191 99.4595 21.4828L99.4868 21.51ZM125.72 39.585C124.765 39.585 123.809 39.5305 122.854 39.4214C121.899 39.3124 120.97 39.1488 120.042 38.9307C119.251 38.7399 118.514 38.5218 117.858 38.3037C117.203 38.0583 116.603 37.813 116.057 37.5131C115.866 37.404 115.729 37.2404 115.675 37.0496C115.62 36.8588 115.62 36.6407 115.702 36.4498L117.585 32.1969C117.64 32.0879 117.695 32.0061 117.777 31.9243C117.858 31.8425 117.968 31.788 118.077 31.7607C118.186 31.7334 118.295 31.7062 118.404 31.7062C118.514 31.7062 118.623 31.7607 118.732 31.8152C119.169 32.0606 119.66 32.2787 120.151 32.4695C120.67 32.6604 121.216 32.8239 121.762 32.9875C122.472 33.1784 123.182 33.3147 123.864 33.3965C124.574 33.4782 125.256 33.5328 125.966 33.5328C126.594 33.5328 127.14 33.5055 127.604 33.4237C128.041 33.3692 128.396 33.2601 128.641 33.1511C128.887 33.042 129.078 32.8785 129.187 32.7149C129.296 32.5513 129.351 32.3605 129.351 32.1424C129.351 31.9243 129.296 31.7607 129.16 31.6244C129.023 31.4608 128.805 31.3518 128.505 31.2427C128.123 31.1337 127.385 31.0519 126.539 30.9974C125.993 30.9428 125.393 30.9156 124.792 30.8338C123.482 30.6702 122.608 30.3703 121.762 30.0977C121.434 29.9887 121.107 29.8796 120.725 29.7706C120.07 29.5797 119.469 29.3071 118.896 28.9799C118.322 28.6255 117.804 28.2166 117.34 27.6986C116.876 27.2079 116.357 26.5809 115.948 25.872C115.538 25.1359 115.238 24.3181 115.238 23.3911C115.238 22.0553 116.111 20.9103 116.93 19.8743C117.039 19.738 117.121 19.6289 117.231 19.4654C117.667 18.8929 118.186 18.2658 118.814 17.7206C119.442 17.1481 120.179 16.6573 121.025 16.3302C122.581 15.7304 124.465 15.7304 126.567 15.7304H127.167C127.986 15.7304 128.832 15.7849 129.651 15.8667C130.47 15.9485 131.289 16.0848 132.108 16.2484C132.791 16.3847 133.364 16.521 133.882 16.6846C134.401 16.8482 134.865 17.0117 135.329 17.2298C135.52 17.3116 135.657 17.4752 135.739 17.666C135.821 17.8569 135.821 18.075 135.739 18.2658L134.155 22.6278C134.101 22.7369 134.046 22.8459 133.964 22.9277C133.882 23.0095 133.801 23.064 133.664 23.1185C133.555 23.173 133.446 23.173 133.336 23.173C133.227 23.173 133.118 23.1458 133.009 23.0913C132.108 22.6551 131.153 22.3279 130.197 22.1098C129.214 21.8917 128.232 21.7827 127.167 21.7827C126.84 21.7827 126.485 21.7827 126.184 21.7554C125.393 21.7281 124.738 21.7009 124.328 21.8917C124.082 22.028 123.837 22.2461 123.673 22.4915C123.509 22.7369 123.4 23.0095 123.4 23.2276C123.4 23.4184 123.509 23.5547 123.673 23.691C123.891 23.8819 124.219 24.0182 124.546 24.1272C124.683 24.1818 124.819 24.2363 124.983 24.2635C125.556 24.4816 126.321 24.7543 127.495 24.9178C128.041 24.9996 128.559 25.0814 129.051 25.1359C130.334 25.2995 131.535 25.4631 132.436 25.7357C133.063 25.9266 133.664 26.1992 134.21 26.5263C134.756 26.8535 135.275 27.2897 135.739 27.7804C136.558 28.6528 136.53 29.7706 136.503 31.1609C136.503 31.379 136.503 31.6244 136.503 31.9243C136.503 32.1969 136.503 32.415 136.503 32.6331C136.53 33.8326 136.558 34.9231 135.793 35.9046C134.892 37.0769 133.446 37.6221 131.726 38.2764H131.699C130.852 38.6036 129.951 38.9307 128.941 39.1761C127.931 39.4214 126.867 39.585 125.666 39.585H125.72ZM122.909 39.067C123.837 39.1761 124.792 39.2306 125.72 39.2306C126.894 39.2306 127.959 39.067 128.914 38.8217C129.897 38.5763 130.77 38.2492 131.617 37.922H131.644C133.309 37.295 134.701 36.7497 135.548 35.6592C136.23 34.7596 136.203 33.7236 136.175 32.6058C136.175 32.3605 136.175 32.1151 136.175 31.897C136.175 31.6789 136.175 31.379 136.175 31.1337C136.203 29.7978 136.23 28.7618 135.493 27.9985C135.056 27.535 134.565 27.1261 134.046 26.799C133.528 26.4718 132.954 26.2264 132.354 26.0356C131.48 25.7902 130.306 25.6267 129.023 25.4631C128.505 25.3813 127.986 25.3268 127.467 25.245C126.266 25.0542 125.475 24.7815 124.901 24.5634C124.738 24.5089 124.601 24.4544 124.492 24.4271C124.11 24.3181 123.755 24.1272 123.482 23.9091C123.236 23.7183 123.1 23.4457 123.1 23.173C123.1 22.9004 123.236 22.546 123.455 22.2461C123.646 21.9735 123.946 21.7009 124.246 21.5373C124.71 21.2919 125.42 21.3192 126.266 21.3465C126.567 21.3465 126.894 21.3737 127.249 21.3737C128.314 21.3737 129.351 21.4828 130.361 21.7281C131.371 21.9462 132.326 22.3007 133.255 22.7369C133.309 22.7641 133.391 22.7914 133.446 22.7914C133.5 22.7914 133.582 22.7914 133.637 22.7641C133.691 22.7369 133.746 22.7096 133.801 22.6551C133.855 22.6005 133.882 22.546 133.91 22.4915L135.493 18.1295C135.548 18.0205 135.52 17.8841 135.493 17.8024C135.438 17.6933 135.357 17.6115 135.247 17.557C134.811 17.3389 134.346 17.1753 133.855 17.039C133.336 16.8754 132.763 16.7664 132.108 16.6301C131.289 16.4665 130.497 16.3302 129.679 16.2484C128.86 16.1666 128.041 16.1121 127.222 16.1121H126.621C124.546 16.1121 122.69 16.1121 121.216 16.6846C120.397 17.0117 119.715 17.4752 119.114 18.0205C118.514 18.5657 118.022 19.1655 117.585 19.7107C117.504 19.8198 117.394 19.9833 117.258 20.1197C116.466 21.1284 115.647 22.1916 115.647 23.4184C115.647 24.2635 115.92 25.0542 116.302 25.7085C116.685 26.39 117.203 26.9898 117.64 27.4805C118.104 27.9712 118.595 28.3529 119.114 28.6801C119.66 29.0072 120.233 29.2526 120.861 29.4434C121.216 29.5525 121.571 29.6615 121.926 29.7706C122.772 30.0432 123.618 30.3431 124.901 30.5066C125.447 30.5884 126.048 30.6157 126.621 30.6702C127.467 30.752 128.232 30.8065 128.668 30.9428C129.023 31.0519 129.296 31.2155 129.487 31.4063C129.679 31.6244 129.788 31.8698 129.788 32.1696C129.788 32.4695 129.706 32.7149 129.542 32.933C129.378 33.1511 129.16 33.3419 128.86 33.4782C128.559 33.6145 128.177 33.7236 127.713 33.8054C127.249 33.8599 126.676 33.9144 126.021 33.9144C125.311 33.9144 124.601 33.8599 123.891 33.7781C123.182 33.6691 122.445 33.5328 121.735 33.3419C121.161 33.1784 120.588 33.0148 120.07 32.8239C119.551 32.6331 119.06 32.415 118.595 32.1696C118.541 32.1424 118.486 32.1151 118.404 32.1151C118.35 32.1151 118.268 32.1151 118.213 32.1424C118.159 32.1696 118.104 32.1969 118.05 32.2514C117.995 32.306 117.968 32.3332 117.94 32.415L116.057 36.6679C116.002 36.777 116.002 36.9133 116.029 37.0224C116.057 37.1314 116.139 37.2132 116.248 37.295C116.766 37.5676 117.34 37.813 117.995 38.0583C118.65 38.2764 119.36 38.4945 120.151 38.6854C121.08 38.9035 122.008 39.067 122.936 39.1761L122.909 39.067ZM155.475 38.7126C155.23 38.8217 154.984 38.9307 154.684 39.0125C154.411 39.0943 154.11 39.1761 153.728 39.2579C152.964 39.4214 151.899 39.4214 150.971 39.3942C150.698 39.3942 150.425 39.3942 150.125 39.3942C148.623 39.3942 147.286 39.3397 146.112 39.1216C144.911 38.9035 143.901 38.4673 143.082 37.7312C141.444 36.2317 141.308 33.6963 141.198 30.7793L140.871 23.691C140.871 23.6365 140.843 23.5547 140.816 23.5002C140.789 23.4457 140.762 23.3911 140.707 23.3639C140.652 23.3094 140.598 23.2821 140.543 23.2548C140.489 23.2276 140.434 23.2276 140.352 23.2276L138.387 23.3911C138.277 23.3911 138.141 23.3911 138.032 23.3366C137.923 23.3094 137.813 23.2276 137.731 23.1458C137.65 23.064 137.568 22.955 137.54 22.8732C137.486 22.7641 137.486 22.6551 137.486 22.546L137.622 17.6933C137.622 17.5843 137.65 17.4752 137.704 17.3662C137.759 17.2571 137.813 17.1753 137.895 17.0935C137.977 17.0117 138.086 16.93 138.196 16.9027C138.305 16.8754 138.414 16.8482 138.55 16.8754L141.171 17.557C141.226 17.557 141.28 17.557 141.308 17.557C141.362 17.5297 141.444 17.5025 141.499 17.4479C141.553 17.3934 141.608 17.3389 141.635 17.2571C141.662 17.2026 141.662 17.1481 141.662 17.1208L140.734 11.6683C140.707 11.5593 140.734 11.423 140.789 11.3139C140.843 11.2049 140.925 11.0958 141.007 11.014C141.089 10.9322 141.198 10.8777 141.308 10.8232C141.417 10.7959 141.526 10.7687 141.635 10.7687L148.077 11.1503C148.296 11.1503 148.487 11.2594 148.623 11.3957C148.76 11.532 148.842 11.7228 148.869 11.9409L149.142 16.3575C149.142 16.4665 149.197 16.5755 149.279 16.6573C149.36 16.7391 149.47 16.7936 149.579 16.7936L153.564 17.0663C153.783 17.0935 154.001 17.1753 154.138 17.3389C154.274 17.5025 154.356 17.7206 154.356 17.9387L154.11 22.3552C154.11 22.5733 154.028 22.7369 153.892 22.8732C153.755 23.0095 153.592 23.0913 153.373 23.1185L149.633 23.5002C149.524 23.5002 149.415 23.5547 149.333 23.6365C149.251 23.7183 149.224 23.8273 149.197 23.9364C149.142 24.6452 149.06 25.3268 148.978 25.9811C148.651 28.5165 148.405 30.5612 150.152 32.4423C150.343 32.6604 150.589 32.8239 150.862 32.9057C151.135 33.0148 151.435 33.0693 151.79 33.0693C152.118 33.0693 152.391 33.0693 152.609 33.042C152.855 33.0148 153.073 32.9603 153.264 32.8785C153.373 32.8239 153.482 32.8239 153.592 32.8239C153.701 32.8239 153.81 32.8512 153.919 32.9057C154.028 32.9603 154.11 33.0148 154.192 33.0966C154.274 33.1784 154.329 33.2601 154.356 33.3692L155.912 37.7039C155.994 37.8947 155.967 38.1128 155.912 38.3037C155.83 38.4945 155.694 38.6581 155.503 38.7399L155.475 38.7126ZM154.602 38.6581C154.875 38.5763 155.093 38.4945 155.339 38.3855C155.448 38.3309 155.53 38.2492 155.584 38.1401C155.639 38.0311 155.639 37.922 155.584 37.813L154.028 33.4782C154.001 33.4237 153.974 33.3692 153.919 33.3147C153.865 33.2601 153.837 33.2329 153.755 33.2056C153.701 33.1784 153.646 33.1511 153.564 33.1511C153.51 33.1511 153.455 33.1511 153.373 33.1784C153.128 33.2874 152.882 33.3419 152.609 33.3692C152.336 33.3965 152.063 33.3965 151.735 33.3965C151.353 33.3965 150.998 33.3419 150.698 33.2056C150.371 33.0693 150.098 32.8785 149.879 32.6331C147.996 30.6429 148.269 28.5165 148.596 25.872C148.678 25.2177 148.76 24.5634 148.815 23.8546C148.842 23.6638 148.924 23.4729 149.06 23.3366C149.197 23.2003 149.36 23.1185 149.579 23.0913L153.319 22.7096C153.428 22.7096 153.537 22.6551 153.619 22.5733C153.701 22.4915 153.728 22.3824 153.755 22.2734L154.001 17.8841C154.001 17.7478 153.974 17.6388 153.892 17.557C153.81 17.4752 153.701 17.4207 153.564 17.3934L149.579 17.1208C149.36 17.0935 149.197 17.0117 149.033 16.8754C148.896 16.7391 148.815 16.5483 148.787 16.3302L148.514 11.9137C148.514 11.8046 148.46 11.6956 148.378 11.6138C148.296 11.532 148.187 11.4775 148.077 11.4775L141.635 11.0958C141.553 11.0958 141.499 11.0958 141.444 11.1231C141.389 11.1503 141.335 11.1776 141.28 11.2321C141.226 11.2866 141.171 11.3412 141.144 11.3957C141.116 11.4502 141.116 11.4775 141.116 11.532L142.045 16.9845C142.072 17.1208 142.045 17.2298 141.99 17.3389C141.935 17.4479 141.853 17.557 141.772 17.6388C141.69 17.7206 141.581 17.8024 141.444 17.8296C141.335 17.8569 141.226 17.8841 141.089 17.8569L138.469 17.1753C138.414 17.1753 138.359 17.1753 138.332 17.1753C138.277 17.2026 138.196 17.2298 138.141 17.2844C138.086 17.3389 138.059 17.3934 138.032 17.4479C138.004 17.5025 138.004 17.557 137.977 17.6388L137.841 22.4915C137.841 22.5733 137.841 22.6278 137.868 22.6823C137.895 22.7369 137.923 22.7914 137.977 22.8459C138.032 22.9004 138.086 22.9277 138.141 22.955C138.196 22.9822 138.277 22.9822 138.332 22.9822L140.297 22.8186C140.407 22.8186 140.516 22.8186 140.625 22.8459C140.734 22.8732 140.816 22.9277 140.925 23.0095C141.007 23.0913 141.089 23.173 141.116 23.2821C141.171 23.3911 141.198 23.5002 141.198 23.6092L141.526 30.6975C141.662 33.5328 141.772 35.9864 143.3 37.404C144.065 38.1128 145.02 38.4945 146.167 38.7126C147.313 38.9307 148.651 38.9852 150.125 38.9852C150.371 38.9852 150.671 38.9852 150.971 38.9852C151.899 39.0125 152.937 39.0398 153.646 38.8762C154.001 38.7944 154.301 38.7126 154.574 38.6308L154.602 38.6581Z" fill="#34383D"/>
<path d="M22.6973 9.73268L30.1497 9.1329C30.2589 9.1329 30.3681 9.1329 30.4773 9.16017C30.5865 9.18743 30.6684 9.24195 30.7503 9.32374C30.8321 9.40553 30.8867 9.48732 30.914 9.59636C30.9413 9.70541 30.9686 9.7872 30.9686 9.89625L29.0851 37.6221C29.0851 37.7857 29.0032 37.9493 28.894 38.0583C28.7848 38.1674 28.6483 38.2491 28.4572 38.2764L22.397 39.2851C22.2878 39.3124 22.1786 39.2851 22.0694 39.2579C21.9603 39.2306 21.8784 39.1761 21.7965 39.0943C21.7146 39.0125 21.6327 38.9307 21.6054 38.8489C21.5508 38.7399 21.5508 38.6581 21.5508 38.5218L22.0421 10.4142C22.0421 10.2234 22.124 10.0598 22.2332 9.92351C22.3424 9.7872 22.5335 9.70541 22.7246 9.70541L22.6973 9.73268ZM30.177 9.29648L22.7246 9.89625C22.5881 9.89625 22.4516 9.97804 22.3697 10.0598C22.2878 10.1689 22.2332 10.2779 22.2059 10.4415L21.7146 38.549C21.7146 38.6308 21.7419 38.7126 21.7692 38.7944C21.7965 38.8762 21.8511 38.9307 21.9057 38.9852C21.9603 39.0398 22.0421 39.0943 22.124 39.0943C22.2059 39.1215 22.2878 39.1215 22.3697 39.0943L28.4299 38.0856C28.5664 38.0583 28.6756 38.0038 28.7575 37.922C28.8394 37.8402 28.894 37.7039 28.894 37.5948L30.7776 9.86899C30.7776 9.7872 30.7776 9.70541 30.7503 9.62363C30.723 9.54184 30.6684 9.48732 30.6138 9.43279C30.5592 9.37827 30.4773 9.32374 30.4227 9.29648C30.3408 9.26922 30.2589 9.26922 30.177 9.26922V9.29648ZM51.4149 16.4938C52.8345 16.4938 54.0083 16.521 55.0456 16.7936C56.0829 17.039 57.0111 17.5025 57.8846 18.3749C58.7854 19.2745 59.5498 20.4468 60.0139 21.8644C60.4233 23.1458 60.6144 24.6452 60.4506 26.2537L59.2768 38.1128C59.2495 38.3037 59.1676 38.4672 59.0311 38.5763C58.8946 38.6853 58.7309 38.7671 58.5398 38.7671L52.2885 38.9307C52.1793 38.9307 52.0974 38.9307 51.9882 38.8762C51.9063 38.8489 51.8244 38.7944 51.7425 38.7126C51.6606 38.6308 51.606 38.549 51.5787 38.4672C51.5514 38.3855 51.5241 38.2764 51.5241 38.1674L51.5514 27.6441C51.5514 26.1174 51.4422 24.9724 51.0055 24.209C50.5687 23.4729 49.859 23.1185 48.6305 23.1185C48.303 23.1185 47.9481 23.0913 47.6205 23.064C46.5559 22.9822 45.4913 22.9277 44.8907 23.5547C44.4266 24.0727 44.5085 24.9724 44.6177 25.9811C44.6996 26.6899 44.7542 27.426 44.6723 28.1621L43.3347 38.1128C43.3074 38.2764 43.2255 38.44 43.1163 38.549C43.0071 38.6581 42.8433 38.7399 42.6795 38.7399L35.7458 39.3396C35.6366 39.3396 35.5274 39.3396 35.4455 39.3124C35.3363 39.2851 35.2544 39.2306 35.1726 39.1488C35.0907 39.067 35.0361 38.9852 35.0088 38.8762C34.9815 38.7671 34.9542 38.6853 34.9542 38.5763L36.1007 17.3661C36.1007 17.2026 36.1826 17.039 36.2918 16.9027C36.401 16.7936 36.5375 16.6846 36.7285 16.6573L42.079 15.7577C42.1882 15.7304 42.2974 15.7577 42.4066 15.7849C42.5158 15.8122 42.5977 15.8667 42.6795 15.9485C42.7614 16.0303 42.8433 16.1121 42.8706 16.2211C42.9252 16.3302 42.9252 16.4392 42.9252 16.5483L42.8979 17.3661C42.8979 17.4752 42.9252 17.5842 42.9798 17.666C43.0344 17.7478 43.1163 17.8296 43.1982 17.8841C43.3074 17.9387 43.3893 17.9659 43.4985 17.9387C43.6077 17.9387 43.6896 17.8841 43.7988 17.8296C44.2628 17.5025 44.8088 17.148 45.3275 16.8754C45.8461 16.5755 46.3648 16.3302 46.8016 16.1393C47.5932 15.8395 48.6305 16.0303 49.6406 16.2211C50.2684 16.3574 50.8963 16.4665 51.4422 16.4665L51.4149 16.4938ZM55.0183 16.9572C54.0083 16.7119 52.8345 16.6846 51.4149 16.6846C50.8417 16.6846 50.2138 16.5483 49.586 16.4392C48.5759 16.2484 47.5659 16.0576 46.8289 16.3302C46.4194 16.4938 45.9007 16.7391 45.3821 17.039C44.8634 17.3389 44.3447 17.666 43.8807 17.9932C43.7715 18.075 43.635 18.1295 43.4985 18.1295C43.362 18.1295 43.2255 18.1022 43.089 18.0477C42.9525 17.9659 42.8706 17.8841 42.7887 17.7751C42.7341 17.666 42.6795 17.5297 42.7068 17.3661L42.7341 16.5483C42.7341 16.4665 42.7341 16.3847 42.6795 16.3029C42.6522 16.2211 42.5977 16.1666 42.5431 16.1121C42.4885 16.0576 42.4066 16.003 42.3247 16.003C42.2428 15.9758 42.1609 15.9758 42.079 16.003L36.7285 16.9027C36.5921 16.9299 36.4829 16.9845 36.401 17.0935C36.3191 17.1753 36.2645 17.3116 36.2645 17.4479L35.118 38.6581C35.118 38.7399 35.118 38.8217 35.1453 38.9034C35.1726 38.9852 35.2272 39.0398 35.2817 39.0943C35.3363 39.1488 35.4182 39.2033 35.4728 39.2306C35.5547 39.2579 35.6366 39.2579 35.7185 39.2579L42.6522 38.6581C42.7887 38.6581 42.8979 38.6036 42.9798 38.4945C43.0617 38.4127 43.1163 38.3037 43.1436 38.1674L44.4812 28.2166C44.5631 27.5078 44.5085 26.7717 44.4266 26.0901C44.3174 25.0269 44.2355 24.1 44.7542 23.5274C45.4094 22.8186 46.5286 22.9004 47.6205 22.9549C47.9481 22.9822 48.303 23.0095 48.6305 23.0095C49.9136 23.0095 50.7052 23.4184 51.142 24.209C51.5787 24.9996 51.7152 26.1719 51.7152 27.7259L51.6879 38.2491C51.6879 38.3309 51.7152 38.4127 51.7425 38.4672C51.7698 38.5218 51.8244 38.6036 51.879 38.6581C51.9336 38.7126 51.9882 38.7671 52.0701 38.7944C52.1247 38.8217 52.2066 38.8217 52.2885 38.8217L58.5398 38.6581C58.6763 38.6581 58.8127 38.6036 58.8946 38.5218C59.0038 38.44 59.0584 38.3037 59.0584 38.1674L60.2323 26.3082C60.396 24.727 60.205 23.2548 59.7955 21.9735C59.3587 20.5831 58.6217 19.4108 57.7208 18.5384C56.8746 17.7206 56.001 17.2571 54.9637 17.0117L55.0183 16.9572ZM87.6396 17.6388L80.1326 39.2851C80.078 39.4487 79.9688 39.585 79.8596 39.6668C79.7231 39.7486 79.5593 39.8031 79.3955 39.8031L70.4145 39.3396C70.2507 39.3396 70.1142 39.2851 70.005 39.2033C69.8958 39.1215 69.8139 38.9852 69.7593 38.8489L62.3615 17.4752C62.3342 17.3661 62.3069 17.2571 62.3342 17.148C62.3615 17.039 62.3888 16.9299 62.4434 16.8209C62.498 16.7119 62.6072 16.6301 62.6891 16.5755C62.7983 16.521 62.9075 16.4938 63.0167 16.4938L70.5782 16.0848C70.742 16.0848 70.9331 16.1393 71.0423 16.2211C71.1788 16.3302 71.288 16.4665 71.3153 16.6301L74.5365 28.8436C74.5638 28.9527 74.6457 29.0617 74.7276 29.1435C74.8095 29.2253 74.9187 29.2526 75.0551 29.2798C75.1916 29.2798 75.3008 29.2526 75.3827 29.198C75.4919 29.1435 75.5465 29.0345 75.6011 28.9254L80.2418 16.9845C80.2964 16.8482 80.4056 16.7119 80.5148 16.6301C80.6513 16.5483 80.7878 16.4938 80.9515 16.521L86.9571 16.7119C87.0663 16.7119 87.2028 16.7391 87.2847 16.7936C87.3939 16.8482 87.4758 16.9299 87.5304 17.039C87.6123 17.148 87.6396 17.2571 87.6669 17.3661C87.6942 17.4752 87.6669 17.5842 87.6396 17.7206V17.6388ZM79.9415 39.2306L87.4485 17.5842C87.4758 17.5025 87.4758 17.4207 87.4758 17.3116C87.4758 17.2298 87.4212 17.148 87.3666 17.0663C87.312 16.9845 87.2574 16.9299 87.1755 16.9027C87.0936 16.8754 87.0117 16.8482 86.9298 16.8482L80.9242 16.6573C80.815 16.6573 80.6786 16.6846 80.5967 16.7391C80.5148 16.7936 80.4329 16.9027 80.3783 17.0117L75.7376 28.9527C75.683 29.1162 75.5738 29.2253 75.4373 29.3071C75.3008 29.3889 75.1643 29.4434 75.0005 29.4161C74.8368 29.4161 74.7003 29.3616 74.5638 29.2526C74.4546 29.1435 74.3454 29.0345 74.3181 28.8709L71.0969 16.6573C71.0696 16.521 70.9877 16.412 70.8785 16.3574C70.7693 16.2757 70.6601 16.2484 70.5237 16.2484L62.9621 16.6573C62.8802 16.6573 62.7983 16.6846 62.7164 16.7391C62.6345 16.7936 62.5799 16.8482 62.5253 16.9027C62.4707 16.9845 62.4434 17.0663 62.4434 17.148C62.4434 17.2298 62.4434 17.3116 62.4707 17.3934L69.8685 38.7671C69.8958 38.8762 69.9777 38.958 70.0596 39.0398C70.1415 39.0943 70.2507 39.1488 70.3599 39.1488L79.341 39.6123C79.4774 39.6123 79.5866 39.585 79.6958 39.5305C79.805 39.476 79.8596 39.3669 79.9142 39.2579L79.9415 39.2306ZM113.9 27.0716V27.1261C113.9 27.3442 113.928 28.2711 113.9 29.2253C113.9 29.3343 113.873 29.4161 113.846 29.4979C113.819 29.5797 113.737 29.6615 113.682 29.7433C113.6 29.8251 113.518 29.8523 113.436 29.9069C113.354 29.9341 113.245 29.9614 113.136 29.9614L97.5488 29.2526C97.4669 29.2526 97.3577 29.2526 97.2758 29.3071C97.1939 29.3343 97.1393 29.3889 97.0574 29.4707C97.0028 29.5524 96.9482 29.6342 96.9482 29.716C96.921 29.7978 96.9482 29.8796 96.9482 29.9886C97.112 30.5611 97.3031 31.2154 97.5488 31.7607C97.7945 32.3059 98.0948 32.7694 98.4497 33.0148C99.3778 33.6145 101.125 33.6145 102.572 33.6145H102.599C103.473 33.6145 104.264 33.2874 104.947 33.0148C105.11 32.9602 105.247 32.8785 105.383 32.8239C105.711 32.6876 106.039 32.5513 106.366 32.415C106.694 32.2514 106.994 32.0606 107.322 31.8152C107.458 31.7062 107.622 31.6516 107.786 31.6789C107.949 31.6789 108.113 31.7334 108.25 31.8425L111.662 34.705C111.744 34.7868 111.798 34.8686 111.853 34.9504C111.908 35.0322 111.908 35.1412 111.935 35.2503C111.935 35.3593 111.908 35.4684 111.88 35.5502C111.853 35.632 111.771 35.741 111.717 35.7955C110.597 36.8588 109.205 37.7039 107.595 38.2491C105.984 38.7944 104.182 39.0943 102.189 39.0943C100.852 39.0943 99.6508 39.0125 98.5588 38.7671C97.4396 38.549 96.4296 38.1946 95.3923 37.6766C94.7644 37.3495 94.0819 37.1314 93.4268 36.886C92.0073 36.3953 90.697 35.9591 89.9326 34.705C88.9499 33.0966 88.9499 30.9973 88.9772 28.9254C88.9772 28.68 88.9772 28.4347 88.9772 28.1348C88.9772 27.017 89.0318 25.8175 89.2502 24.6997C89.4413 23.582 89.7961 22.4915 90.3421 21.5918C90.8881 20.6922 91.6524 19.9561 92.526 19.3018C93.3995 18.6747 94.3549 18.1295 95.3104 17.6115C95.5833 17.4752 95.829 17.3389 96.0474 17.2026C97.6853 16.3029 99.2959 15.4305 101.398 15.4305C102.599 15.4305 103.827 15.5396 105.001 15.7849C106.066 16.003 107.103 16.3302 108.004 16.7936C108.932 17.2571 109.724 17.9387 110.406 18.7293C111.089 19.5199 111.662 20.3923 112.208 21.2919C112.754 22.1916 113.191 23.0095 113.491 23.9091C113.791 24.8088 113.955 25.7902 113.955 27.017L113.9 27.0716ZM113.709 27.1261V27.0716C113.709 25.872 113.546 24.8906 113.273 24.0182C112.972 23.1185 112.563 22.3279 112.017 21.4555C111.471 20.5831 110.898 19.6835 110.242 18.9201C109.587 18.1568 108.823 17.5025 107.895 17.039C107.021 16.6028 106.011 16.2757 104.947 16.0576C103.773 15.8122 102.544 15.7031 101.371 15.7031C99.3232 15.7031 97.7399 16.5755 96.102 17.4479C95.8563 17.5842 95.5833 17.7206 95.3377 17.8569C94.3822 18.3476 93.4268 18.8928 92.5806 19.5199C91.7343 20.1469 90.9973 20.883 90.4513 21.7554C89.9053 22.6278 89.5778 23.691 89.3867 24.7815C89.1956 25.8993 89.1137 27.0716 89.1137 28.1893C89.1137 28.4074 89.1137 28.68 89.1137 28.9799C89.0864 30.9973 89.0864 33.0966 90.0418 34.6505C90.7789 35.8501 92.0619 36.2863 93.4541 36.7497C94.1092 36.9678 94.7917 37.2132 95.4469 37.5403C96.4569 38.031 97.4669 38.3855 98.5588 38.6036C99.6508 38.8217 100.825 38.9034 102.162 38.9034C104.128 38.9034 105.929 38.6308 107.485 38.0856C109.069 37.5403 110.434 36.7225 111.525 35.6592C111.58 35.6047 111.635 35.5502 111.662 35.4684C111.689 35.3866 111.717 35.3321 111.689 35.2503C111.689 35.1685 111.662 35.0867 111.635 35.0322C111.607 34.9504 111.553 34.8959 111.498 34.8413L108.086 31.9788C107.977 31.897 107.868 31.8425 107.731 31.8425C107.622 31.8425 107.485 31.8697 107.376 31.9515C107.049 32.1969 106.721 32.3877 106.393 32.5513C106.066 32.7149 105.738 32.8512 105.411 32.9875C105.274 33.042 105.11 33.0966 104.974 33.1783C104.264 33.4782 103.473 33.8054 102.544 33.8054H102.517C101.043 33.8054 99.2959 33.8054 98.2859 33.1511C97.8764 32.9057 97.5761 32.415 97.3031 31.8152C97.0574 31.2427 96.8391 30.5884 96.6753 30.0159C96.648 29.9069 96.648 29.7705 96.648 29.6615C96.6753 29.5524 96.7299 29.4434 96.7845 29.3343C96.8664 29.2253 96.9482 29.1708 97.0574 29.1162C97.1666 29.0617 97.2758 29.0345 97.4123 29.0617L113 29.7705C113.081 29.7705 113.163 29.7705 113.218 29.7433C113.273 29.716 113.354 29.6888 113.409 29.6342C113.464 29.5797 113.518 29.5252 113.546 29.4707C113.573 29.4161 113.6 29.3343 113.6 29.2526C113.627 28.2984 113.627 27.3714 113.6 27.1533L113.709 27.1261ZM101.562 21.3192C100.934 21.3192 100.142 21.4555 99.4324 21.6463C98.7772 21.8372 98.1767 22.1098 97.7945 22.437C97.5215 22.6823 97.2758 23.0367 97.0574 23.4457C96.8118 23.9364 96.6207 24.5089 96.4569 25.0814C96.4296 25.1632 96.4296 25.245 96.4569 25.3268C96.4842 25.4086 96.5115 25.4903 96.5661 25.5449C96.6207 25.6267 96.6753 25.6812 96.7572 25.7084C96.8391 25.7357 96.921 25.763 97.0028 25.763H104.728C104.81 25.763 104.892 25.7357 104.947 25.7084C105.029 25.6812 105.083 25.6267 105.138 25.5721C105.192 25.5176 105.247 25.4358 105.247 25.3813C105.274 25.2995 105.274 25.245 105.274 25.1632C105.274 25.0541 105.247 24.9178 105.247 24.7815C105.192 23.9364 105.138 23.1458 104.592 22.6823C104.182 22.3279 103.718 22.0008 103.227 21.7281C102.735 21.4828 102.162 21.2919 101.562 21.2919V21.3192ZM99.3778 21.4828C100.115 21.2647 100.906 21.1284 101.562 21.1284C102.189 21.1284 102.763 21.3192 103.309 21.5918C103.827 21.8644 104.291 22.2189 104.728 22.5733C105.329 23.0913 105.383 23.9091 105.465 24.8088C105.465 24.9451 105.493 25.0541 105.493 25.1905C105.493 25.2995 105.493 25.4086 105.465 25.4903C105.438 25.5721 105.383 25.6812 105.301 25.763C105.22 25.8448 105.138 25.8993 105.056 25.9538C104.974 25.9811 104.865 26.0083 104.756 26.0083H97.0301C96.921 26.0083 96.8118 25.9811 96.7026 25.9265C96.5934 25.872 96.5115 25.8175 96.4569 25.7084C96.375 25.6267 96.3477 25.5176 96.3204 25.4086C96.2931 25.2995 96.2931 25.1905 96.3204 25.0814C96.4569 24.5089 96.6753 23.9364 96.921 23.4184C97.1393 22.9822 97.4123 22.6278 97.7126 22.3552C98.1221 22.0008 98.7226 21.7281 99.4051 21.5373L99.3778 21.4828ZM125.693 39.5305C124.738 39.5305 123.782 39.476 122.854 39.3669C121.899 39.2579 120.971 39.0943 120.042 38.8762C119.251 38.6853 118.514 38.4672 117.859 38.2491C117.203 38.0038 116.603 37.7584 116.084 37.4585C115.92 37.3767 115.784 37.2132 115.729 37.0496C115.675 36.886 115.675 36.6952 115.757 36.5044L117.64 32.2514C117.695 32.1424 117.749 32.0606 117.804 32.0061C117.886 31.9515 117.968 31.897 118.077 31.8425C118.186 31.8152 118.268 31.788 118.377 31.8152C118.486 31.8152 118.568 31.8425 118.678 31.897C119.114 32.1424 119.606 32.3605 120.124 32.5513C120.643 32.7421 121.189 32.933 121.762 33.0693C122.472 33.2601 123.182 33.3964 123.892 33.5055C124.601 33.5873 125.284 33.6418 125.993 33.6418C126.621 33.6418 127.195 33.6145 127.631 33.5327C128.068 33.4782 128.45 33.3692 128.696 33.2329C128.996 33.0966 129.324 32.9057 129.542 32.6604C129.706 32.4968 129.815 32.3059 129.815 32.1151C129.815 31.8425 129.433 31.788 129.024 31.7062C128.805 31.6789 128.587 31.6244 128.396 31.5699C128.014 31.4335 127.331 31.2427 126.539 31.0519C125.993 30.9156 125.42 30.8065 124.847 30.752C123.7 30.6157 122.881 30.234 122.144 29.9069C121.708 29.716 121.271 29.5252 120.807 29.3889C120.152 29.198 119.633 28.9527 119.169 28.6255C118.705 28.2984 118.268 27.8894 117.804 27.3987C117.34 26.908 116.849 26.3627 116.466 25.7357C116.084 25.1087 115.839 24.3453 115.839 23.4457C115.839 22.0825 116.603 21.1011 117.395 20.0651L117.613 19.7925C117.831 19.4926 118.077 19.1382 118.295 18.7565C118.951 17.6933 119.715 16.4665 120.971 15.9758C122.417 15.4033 124.301 15.4305 126.294 15.4305C126.594 15.4305 126.922 15.4305 127.304 15.4305C128.505 15.4305 129.679 15.7031 130.853 16.003C131.289 16.1121 131.726 16.2211 132.19 16.3029C133.391 16.5483 133.965 16.9299 134.592 17.3661C134.702 17.4479 134.838 17.5297 134.975 17.6115C135.111 17.6933 135.22 17.8296 135.275 17.9659C135.329 18.1022 135.329 18.2658 135.275 18.4294L133.937 22.8186C133.91 22.9277 133.855 23.0367 133.773 23.1185C133.692 23.2003 133.61 23.2548 133.5 23.3094C133.391 23.3639 133.282 23.3639 133.173 23.3639C133.064 23.3639 132.955 23.3366 132.845 23.2548L132.818 23.2276C131.071 22.2189 129.297 21.2101 127.249 21.2101C126.676 21.2101 126.13 21.2647 125.666 21.3465C125.147 21.4555 124.683 21.5918 124.383 21.7554C124.11 21.8917 123.973 22.0825 123.919 22.3006C123.837 22.5187 123.837 22.7914 123.837 23.0095C123.837 23.2548 123.892 23.3911 124.028 23.5274C124.165 23.6638 124.383 23.7455 124.71 23.8273C124.929 23.9091 125.147 24.0182 125.42 24.1545C125.939 24.4271 126.594 24.7815 127.577 24.9451C128.423 25.0814 129.297 25.0814 130.061 25.1087C130.989 25.1359 131.835 25.1359 132.518 25.354C133.146 25.5449 133.719 25.8993 134.265 26.3627C134.783 26.7989 135.275 27.3169 135.739 27.8076C136.203 28.2984 136.503 28.8981 136.694 29.607C136.885 30.2885 136.94 31.0791 136.94 31.9515C136.94 32.6604 136.885 33.3419 136.694 33.9962C136.531 34.6505 136.23 35.2503 135.794 35.8228C134.92 36.9678 133.473 37.5131 131.781 38.1674H131.753C130.907 38.4945 130.006 38.8217 129.024 39.067C128.041 39.3124 126.949 39.476 125.748 39.476L125.693 39.5305ZM122.854 39.1761C123.782 39.2851 124.738 39.3396 125.693 39.3396C126.867 39.3396 127.932 39.1761 128.914 38.9307C129.897 38.6853 130.798 38.3582 131.644 38.031H131.671C133.337 37.404 134.756 36.8588 135.602 35.741C136.039 35.1958 136.312 34.596 136.476 33.9689C136.64 33.3419 136.694 32.6876 136.694 31.9788C136.694 31.1064 136.64 30.343 136.449 29.6615C136.258 28.9799 135.985 28.4074 135.548 27.944C135.084 27.4532 134.62 26.9625 134.101 26.5263C133.582 26.0901 133.036 25.7357 132.436 25.5721C131.781 25.3813 130.934 25.354 130.006 25.354C129.215 25.3268 128.341 25.3268 127.495 25.1905C126.485 25.0269 125.802 24.6725 125.284 24.3726C125.038 24.2363 124.82 24.1272 124.601 24.0454C124.274 23.9364 124.028 23.8273 123.864 23.691C123.7 23.5274 123.619 23.3366 123.619 23.0367C123.619 22.7914 123.619 22.5187 123.7 22.2734C123.782 22.0008 123.946 21.7827 124.274 21.6191C124.601 21.4555 125.038 21.3192 125.611 21.2101C126.075 21.1284 126.649 21.0738 127.222 21.0738C129.324 21.0738 131.098 22.0825 132.873 23.0913L132.9 23.1185C132.982 23.173 133.064 23.2003 133.146 23.2003C133.227 23.2003 133.309 23.2003 133.391 23.173C133.473 23.1458 133.555 23.0913 133.61 23.0367C133.664 22.9822 133.719 22.9004 133.719 22.8186L135.056 18.4294C135.084 18.2931 135.084 18.184 135.056 18.075C135.002 17.9659 134.947 17.8569 134.838 17.8023C134.702 17.7206 134.592 17.6388 134.456 17.557C133.828 17.148 133.255 16.7664 132.108 16.521C131.671 16.4392 131.207 16.3302 130.771 16.2211C129.624 15.9485 128.45 15.6486 127.276 15.6486C126.976 15.6486 126.621 15.6486 126.266 15.6486C124.301 15.6214 122.417 15.6214 121.025 16.1666C119.824 16.6301 119.087 17.8296 118.432 18.8928C118.186 19.2745 117.968 19.6562 117.722 19.9561L117.504 20.2287C116.712 21.2374 115.975 22.1916 115.975 23.5002C115.975 24.3726 116.221 25.0814 116.576 25.6812C116.93 26.3082 117.422 26.8262 117.886 27.3169C118.35 27.8076 118.759 28.1893 119.224 28.5165C119.688 28.8436 120.179 29.0617 120.807 29.2526C121.298 29.3889 121.735 29.5797 122.172 29.7978C122.909 30.125 123.7 30.4794 124.82 30.6429C125.393 30.7247 125.993 30.8338 126.539 30.9701C127.331 31.1609 128.014 31.3518 128.423 31.4881C128.614 31.5426 128.832 31.5971 129.024 31.6244C129.542 31.7062 129.979 31.788 129.979 32.2242C129.979 32.4695 129.843 32.6876 129.651 32.8785C129.406 33.1238 129.078 33.3146 128.751 33.4782C128.478 33.6145 128.095 33.7236 127.631 33.7781C127.167 33.8326 126.621 33.8872 125.966 33.8872C125.256 33.8872 124.547 33.8326 123.837 33.7508C123.127 33.6691 122.417 33.5055 121.68 33.3146C121.107 33.1511 120.534 32.9875 120.042 32.7967C119.524 32.6058 119.032 32.3877 118.596 32.1424C118.514 32.1151 118.459 32.0878 118.377 32.0878C118.295 32.0878 118.214 32.0878 118.159 32.1151C118.077 32.1424 118.022 32.1696 117.968 32.2242C117.913 32.2787 117.859 32.3332 117.831 32.415L115.948 36.6679C115.893 36.8042 115.893 36.9405 115.92 37.0769C115.975 37.2132 116.057 37.3222 116.193 37.3767C116.712 37.6494 117.285 37.922 117.941 38.1401C118.596 38.3855 119.305 38.5763 120.097 38.7671C121.025 38.9852 121.953 39.1488 122.881 39.2579L122.854 39.1761ZM155.748 38.2491C155.339 38.3855 154.848 38.4672 154.356 38.5763C154.083 38.6308 153.783 38.6853 153.537 38.7399C153.046 38.8489 152.555 38.9852 152.09 39.0943C148.951 39.9122 145.976 40.6755 142.782 37.7857C141.581 36.6952 141.635 35.114 141.69 33.2056C141.717 32.4968 141.717 31.7334 141.69 30.9428L141.28 23.3639C141.28 23.2003 141.199 23.064 141.089 22.9822C140.98 22.8732 140.844 22.8186 140.68 22.8459L138.742 22.9277C138.633 22.9277 138.523 22.9277 138.441 22.8732C138.36 22.8459 138.25 22.7914 138.196 22.7096C138.114 22.6278 138.059 22.546 138.032 22.4642C138.005 22.3824 137.977 22.2734 137.977 22.1643L138.168 18.0477C138.168 17.8569 138.25 17.6933 138.387 17.557C138.523 17.4207 138.687 17.3389 138.878 17.3389L140.789 17.2298C140.926 17.2298 141.062 17.148 141.171 17.0663C141.28 16.9572 141.335 16.8209 141.335 16.6846L141.308 12.2408C141.308 12.05 141.39 11.8591 141.499 11.7501C141.608 11.6138 141.799 11.532 141.99 11.5047L148.16 10.9322C148.269 10.9322 148.378 10.9322 148.487 10.9595C148.596 10.9867 148.678 11.0685 148.76 11.1503C148.842 11.2321 148.897 11.3139 148.924 11.4229C148.951 11.532 148.979 11.641 148.951 11.7501L148.487 16.1393C148.487 16.2211 148.487 16.3029 148.514 16.3574C148.542 16.4392 148.569 16.4938 148.624 16.5483C148.678 16.6028 148.733 16.6573 148.815 16.6846C148.897 16.7119 148.951 16.7391 149.033 16.7391L154.056 16.7936C154.165 16.7936 154.247 16.8209 154.356 16.8482C154.438 16.8754 154.52 16.9572 154.602 17.0117C154.684 17.0935 154.738 17.1753 154.766 17.2571C154.793 17.3389 154.82 17.4479 154.793 17.557L154.465 22.7368C154.465 22.8459 154.438 22.9277 154.384 23.0367C154.329 23.1185 154.274 23.2003 154.192 23.2821C154.111 23.3366 154.029 23.3911 153.919 23.4184C153.838 23.4457 153.728 23.4457 153.619 23.4457L149.961 22.9549C149.879 22.9549 149.797 22.9549 149.743 22.9549C149.661 22.9822 149.606 23.0095 149.552 23.064C149.497 23.1185 149.443 23.173 149.415 23.2276C149.388 23.2821 149.361 23.3639 149.361 23.4457C149.279 24.3181 149.115 25.1632 148.979 25.9538C148.542 28.3529 148.16 30.4521 149.797 32.2242C149.852 32.2787 149.934 32.3605 150.016 32.4423C150.453 32.933 151.108 33.6691 151.708 33.6691C152.254 33.6691 152.691 33.1783 153.101 32.7149C153.182 32.6058 153.292 32.5513 153.401 32.4968C153.51 32.4423 153.646 32.4423 153.756 32.4695C153.892 32.4968 154.001 32.524 154.111 32.6058C154.22 32.6876 154.274 32.7694 154.329 32.9057L156.267 37.295C156.322 37.404 156.322 37.4858 156.322 37.5948C156.322 37.7039 156.294 37.7857 156.267 37.8947C156.213 38.0038 156.158 38.0856 156.076 38.1401C155.994 38.1946 155.912 38.2491 155.803 38.3037L155.748 38.2491ZM154.329 38.3855C154.793 38.3037 155.284 38.1946 155.694 38.0856C155.776 38.0583 155.83 38.031 155.912 37.9765C155.967 37.922 156.021 37.8675 156.049 37.7857C156.076 37.7039 156.103 37.6221 156.103 37.5676C156.103 37.4858 156.076 37.404 156.049 37.3495L154.111 32.9602C154.083 32.8785 154.001 32.7967 153.947 32.7421C153.865 32.6876 153.783 32.6604 153.701 32.6331C153.592 32.6058 153.51 32.6331 153.428 32.6604C153.346 32.6876 153.264 32.7421 153.21 32.8239C152.773 33.3146 152.336 33.8326 151.681 33.8326C151.026 33.8326 150.316 33.0693 149.852 32.5513C149.77 32.4695 149.716 32.3877 149.634 32.3332C147.914 30.5066 148.323 28.3802 148.76 25.9265C148.897 25.1359 149.06 24.2908 149.142 23.4184C149.142 23.3094 149.17 23.2276 149.224 23.1458C149.279 23.064 149.333 22.9822 149.415 22.9277C149.497 22.8732 149.579 22.8186 149.688 22.7914C149.77 22.7641 149.879 22.7641 149.989 22.7641L153.646 23.2548C153.728 23.2548 153.81 23.2548 153.865 23.2276C153.947 23.2003 154.001 23.173 154.056 23.1185C154.111 23.064 154.165 23.0095 154.192 22.9549C154.22 22.9004 154.247 22.8186 154.247 22.7368L154.575 17.557C154.575 17.4752 154.575 17.3934 154.547 17.3389C154.52 17.2571 154.493 17.2026 154.438 17.148C154.384 17.0935 154.329 17.039 154.247 17.0117C154.192 16.9845 154.111 16.9572 154.029 16.9572L149.006 16.9027C148.897 16.9027 148.787 16.8754 148.706 16.8482C148.624 16.7936 148.542 16.7391 148.46 16.6573C148.378 16.5755 148.323 16.4938 148.296 16.3847C148.269 16.2757 148.269 16.1939 148.269 16.0848L148.733 11.6956C148.733 11.6138 148.733 11.532 148.706 11.4502C148.678 11.3684 148.624 11.3139 148.569 11.2321C148.514 11.1776 148.433 11.1231 148.351 11.0958C148.269 11.0685 148.187 11.0685 148.105 11.0685L141.936 11.641C141.799 11.641 141.663 11.7228 141.581 11.8319C141.499 11.9409 141.444 12.0772 141.444 12.2136L141.472 16.6573C141.472 16.8482 141.39 17.039 141.28 17.1753C141.144 17.3116 140.98 17.3934 140.789 17.3934L138.878 17.5025C138.742 17.5025 138.605 17.5842 138.496 17.666C138.414 17.7751 138.332 17.8841 138.332 18.0477L138.141 22.1643C138.141 22.2461 138.141 22.3279 138.168 22.3824C138.196 22.4642 138.25 22.5187 138.305 22.5733C138.36 22.6278 138.414 22.6823 138.496 22.7096C138.578 22.7368 138.633 22.7368 138.714 22.7368L140.653 22.6551C140.844 22.6551 141.035 22.7096 141.171 22.8459C141.308 22.9822 141.39 23.1458 141.417 23.3639L141.826 30.9428C141.881 31.7334 141.854 32.4968 141.826 33.2056C141.772 35.0594 141.745 36.6407 142.864 37.6494C145.976 40.4847 148.924 39.7213 152.009 38.9307C152.5 38.7944 152.964 38.6853 153.455 38.5763C153.728 38.5218 154.001 38.4672 154.302 38.4127L154.329 38.3855Z" fill="#34383D"/>
<path d="M21.305 9.29648L31.9512 8.72397C30.7228 19.1655 29.4944 29.607 28.266 40.0212C25.7 39.7486 23.1612 39.476 20.5952 39.2033C20.7863 29.2253 21.0047 19.2745 21.1958 9.29648H21.2777H21.305ZM31.7602 8.91481L21.4142 9.48732L20.8136 39.0398L28.1295 39.8304L31.7602 8.91481ZM51.4148 15.376C53.6533 15.376 54.9363 16.7936 56.192 18.2113C56.5469 18.6202 56.9018 19.0019 57.2839 19.3563C57.5023 19.5744 57.7207 19.7652 57.9391 19.9561C59.4951 21.401 60.9965 22.8186 60.9419 25.8175L60.587 39.8031C57.4204 39.7213 54.2265 39.6668 51.06 39.585L52.9708 28.462C53.0527 27.9712 53.1073 27.5078 53.1073 27.0443C53.1073 25.8993 52.8616 24.8633 52.3976 24.0454C51.9335 23.2548 51.2783 22.6823 50.4048 22.546C50.241 22.5187 50.1045 22.5187 49.9134 22.5187C49.3129 22.5187 48.6304 22.7641 47.9753 23.1185C47.1563 23.5547 46.392 24.1545 45.9552 24.6452C45.5457 25.0814 45.2454 25.5176 45.0271 26.0629C44.8087 26.6081 44.6995 27.2897 44.6995 28.1621L44.5084 40.0757C41.9151 40.1303 39.3217 40.1575 36.7284 40.212C36.1825 32.0333 35.6365 23.8546 35.0905 15.6759C38.1479 15.6759 41.178 15.6759 44.2354 15.6486L43.1981 19.9561C43.6894 19.4654 44.3719 18.8383 45.0544 18.3203C45.6549 17.8569 46.2828 17.4752 46.8014 17.2571C47.1836 17.0935 47.6477 16.8482 48.139 16.5755C49.2037 16.003 50.4048 15.3487 51.4148 15.3487V15.376ZM56.0555 18.3203C54.7998 16.93 53.5714 15.5396 51.4148 15.5396C50.4594 15.5396 49.2583 16.1666 48.2209 16.7391C47.7296 17.0117 47.2655 17.2571 46.856 17.4207C46.3374 17.6388 45.7368 18.0204 45.1363 18.4566C44.3446 19.0564 43.5803 19.7652 43.0616 20.3105L42.8432 20.5559L43.9897 15.8395L35.2543 15.8667L36.8649 40.0485L44.29 39.9122L44.4811 28.1893C44.5084 27.2897 44.6176 26.6081 44.836 26.0356C45.0544 25.4631 45.3819 24.9996 45.7914 24.5362C46.2555 24.0454 47.0471 23.4184 47.8661 22.9822C48.5485 22.6278 49.2583 22.3824 49.8861 22.3824C50.0499 22.3824 50.241 22.4097 50.4048 22.437C51.3329 22.6005 52.0427 23.173 52.5341 24.0182C52.9981 24.8633 53.2711 25.9265 53.2711 27.0988C53.2711 27.5623 53.2165 28.053 53.1346 28.5437L51.251 39.476L60.3959 39.6668L60.7508 25.8448C60.8327 22.9277 59.3313 21.5373 57.8026 20.0924C57.5842 19.8743 57.3658 19.6835 57.1474 19.4654C56.7653 19.0837 56.4104 18.702 56.0555 18.2931V18.3203ZM87.9125 16.8209L78.5219 38.1128C75.4645 38.7399 72.3798 39.3669 69.3224 39.9939L60.8327 17.3934C63.7263 17.4752 66.6199 17.557 69.5135 17.6115L75.6829 30.8065L79.2589 17.0117C82.1525 16.9027 85.0462 16.7936 87.967 16.7119L87.9125 16.8482V16.8209ZM78.3854 37.9493L87.6668 16.8754L79.3954 17.1753L75.7375 31.3518L69.4043 17.8024L61.0784 17.5843L69.4043 39.8031L78.3581 37.9765L78.3854 37.9493ZM114.282 27.1261V27.2079C114.282 27.5896 114.337 29.2253 114.255 30.3703V30.4521L97.4941 30.125C97.576 30.4794 97.6306 30.8065 97.6579 31.1337C97.7398 31.8698 97.8217 32.5513 98.4495 32.9602C98.9682 33.2874 99.678 33.6418 100.47 33.8872C101.125 34.1053 101.807 34.2416 102.435 34.2416C102.899 34.2416 103.445 34.1598 104.018 34.0235C104.755 33.8599 105.492 33.6145 105.957 33.451C106.421 33.2601 107.13 32.9875 107.786 32.6331C108.25 32.3877 108.686 32.1151 109.041 31.8152L109.123 31.7607C110.352 33.3419 111.58 34.9231 112.808 36.5044L112.754 36.5589C111.635 37.813 110.133 38.8217 108.359 39.5032C106.639 40.1848 104.646 40.5392 102.544 40.5392C101.343 40.5392 100.06 40.3211 98.859 40.0212C97.3849 39.6395 95.9927 39.067 94.9008 38.5218C94.4367 38.2764 93.9453 38.0856 93.4813 37.8675C91.9799 37.2132 90.5877 36.6134 89.7141 35.223C88.9498 33.969 89.1682 32.1424 89.3593 30.3976C89.4411 29.607 89.5503 28.8436 89.5503 28.1348C89.5503 27.017 89.6049 25.9265 89.796 24.9178C89.9871 23.9091 90.3147 22.9277 90.8607 22.028C91.2428 21.401 91.4612 20.7467 91.6523 20.1197C92.0345 18.9746 92.3621 17.9387 93.6178 17.2844C94.6551 16.7391 96.2384 16.1393 97.849 15.7031C99.2412 15.3215 100.661 15.0488 101.753 15.0488C102.899 15.0488 103.991 15.2669 105.028 15.6214C106.066 15.9485 107.048 16.412 107.977 16.9027C108.987 17.4207 110.024 18.0477 110.952 18.8383C111.716 19.4926 112.399 20.2287 112.918 21.0466C113.464 21.9462 113.818 22.8732 114.009 23.8819C114.228 24.8906 114.282 25.9811 114.282 27.2079V27.1261ZM114.091 27.2079V27.1261C114.091 25.9265 114.009 24.8361 113.818 23.8546C113.627 22.8732 113.272 21.9735 112.754 21.0738C112.262 20.256 111.58 19.5471 110.843 18.8928C109.942 18.1295 108.905 17.5025 107.922 16.9845C106.994 16.521 106.038 16.0576 105.001 15.7304C103.991 15.4033 102.899 15.1852 101.78 15.1852C100.688 15.1852 99.2958 15.4578 97.9036 15.8122C96.293 16.2484 94.737 16.8482 93.727 17.3934C92.5258 18.0204 92.1983 19.0292 91.8434 20.1197C91.625 20.7467 91.4066 21.401 91.0244 22.0553C90.4785 22.9277 90.1782 23.8819 89.9871 24.8906C89.796 25.8993 89.7414 26.9625 89.7414 28.0803C89.7414 28.7891 89.6595 29.5797 89.5503 30.3703C89.332 32.0879 89.1136 33.8872 89.8779 35.0867C90.6969 36.4226 92.0618 37.0223 93.5632 37.6766C94.0272 37.8675 94.5186 38.0856 95.01 38.3309C96.1019 38.8762 97.4941 39.4214 98.9409 39.8304C100.142 40.1575 101.398 40.3484 102.572 40.3484C104.674 40.3484 106.612 39.9939 108.331 39.3124C110.051 38.6581 111.498 37.6766 112.59 36.4771L109.123 31.9788C108.796 32.2514 108.359 32.5241 107.922 32.7421C107.267 33.0966 106.557 33.3964 106.066 33.5873C105.602 33.7781 104.865 33.9962 104.1 34.1598C103.527 34.2961 102.954 34.3779 102.49 34.3779C101.807 34.3779 101.125 34.2416 100.47 34.0235C99.678 33.7781 98.9409 33.4237 98.4222 33.0693C97.7398 32.6058 97.6306 31.897 97.5487 31.1064C97.4941 30.752 97.4668 30.3703 97.3576 30.0159L97.3303 29.9069L114.146 30.234C114.201 29.1162 114.173 27.535 114.146 27.1806L114.091 27.2079ZM101.562 21.2919C100.934 21.2919 100.142 21.4283 99.4323 21.6191C98.7771 21.8099 98.1766 22.0825 97.7944 22.4097C97.4395 22.7096 97.1392 23.173 96.9208 23.7183C96.6206 24.3726 96.4295 25.1087 96.293 25.763L105.356 25.7902C105.301 25.4631 105.274 25.1359 105.247 24.7815C105.192 23.9364 105.138 23.1458 104.592 22.6823C104.182 22.3279 103.718 22.0008 103.227 21.7281C102.735 21.4828 102.162 21.2919 101.562 21.2919ZM99.3777 21.4555C100.115 21.2374 100.906 21.1011 101.562 21.1011C102.189 21.1011 102.763 21.2919 103.309 21.5646C103.827 21.8372 104.291 22.1916 104.728 22.546C105.329 23.064 105.383 23.8819 105.465 24.7815C105.492 25.1359 105.52 25.5176 105.574 25.872L105.602 25.9811C102.435 25.9811 99.2685 25.9811 96.1019 25.9538L96.1292 25.8448C96.2657 25.1632 96.4568 24.3726 96.7844 23.6638C97.03 23.1185 97.3303 22.6278 97.7125 22.3006C98.122 21.9462 98.7225 21.6736 99.405 21.4828L99.3777 21.4555ZM125.993 40.1575C125.038 40.1575 123.973 40.0757 122.881 39.9394C121.762 39.8031 120.643 39.6123 119.715 39.3942C118.787 39.1761 117.968 38.9035 117.231 38.6036C116.494 38.3037 115.866 37.9765 115.292 37.6221L115.238 37.5949C115.729 35.7138 116.221 33.8326 116.712 31.9515L116.821 32.0061C117.558 32.4695 119.032 32.7967 120.315 33.0966C120.807 33.2056 121.271 33.3147 121.653 33.4237C122.363 33.6145 123.127 33.8054 123.891 33.9417C124.656 34.078 125.42 34.1598 126.103 34.1598C126.649 34.1598 127.194 34.078 127.686 33.969C128.341 33.8326 128.86 33.6418 129.187 33.4782C129.406 33.3692 129.542 33.2056 129.651 32.9875C129.788 32.7149 129.815 32.3605 129.815 32.0879C129.815 31.9515 129.706 31.9243 129.542 31.9243C129.46 31.9243 129.378 31.9243 129.269 31.9515C128.996 31.9788 128.669 32.0061 128.396 31.897C128.205 31.8425 127.959 31.7334 127.659 31.5971C126.922 31.2972 125.857 30.861 124.847 30.7247C123.782 30.5884 123.072 30.0159 122.417 29.4707C121.953 29.089 121.516 28.7346 120.998 28.571C120.643 28.462 120.288 28.4074 119.988 28.3529C119.169 28.2166 118.486 28.0803 117.804 27.3715C117.34 26.8807 116.985 26.3627 116.739 25.7357C116.494 25.1087 116.384 24.3999 116.384 23.5002C116.384 23.0095 116.275 22.4642 116.166 21.919C115.948 20.883 115.729 19.847 116.303 19.0837C116.794 18.4294 117.476 17.666 118.268 17.0117C118.869 16.4938 119.551 16.0576 120.288 15.7849C121.025 15.485 122.035 15.2942 123.127 15.1579C124.492 14.9943 125.993 14.9398 127.276 14.9398C128.832 14.9398 130.825 15.3487 132.408 15.6759L132.736 15.7304C133.773 15.9485 134.51 16.6573 135.166 17.3389C135.575 17.7206 135.93 18.1022 136.339 18.3203L136.394 18.3476C135.657 20.2832 134.92 22.2189 134.183 24.1272L134.101 24.0727C133.145 23.5547 132.108 23.173 131.044 22.9277C129.87 22.6551 128.614 22.546 127.386 22.546C126.812 22.546 126.321 22.437 125.911 22.3552C125.393 22.2461 124.983 22.1643 124.683 22.3279C124.547 22.3824 124.437 22.437 124.355 22.4915C124.028 22.6278 123.864 22.7096 123.864 23.0367C123.864 23.3094 124.028 23.3366 124.301 23.3639C124.465 23.3911 124.656 23.4184 124.901 23.4729C125.093 23.5275 125.311 23.6365 125.529 23.7183C126.048 23.9637 126.676 24.2363 127.686 24.3999C128.368 24.5089 129.078 24.5907 129.788 24.6725C131.071 24.8088 132.299 24.9451 133.091 25.1905C133.719 25.3813 134.374 25.8175 134.974 26.3082C135.575 26.7989 136.121 27.3987 136.585 27.8622C137.404 28.7346 137.404 30.2613 137.377 31.8152C137.377 32.0061 137.377 32.1969 137.377 32.4423C137.377 33.4237 136.776 33.9144 136.121 34.4869C135.793 34.7596 135.411 35.0867 135.138 35.4684C134.92 35.7683 134.701 36.0954 134.51 36.4226C133.964 37.3222 133.391 38.2492 132.135 38.7126L131.808 38.8489C130.197 39.476 128.341 40.1848 126.103 40.1848L125.993 40.1575ZM122.909 39.7759C124.001 39.9122 125.065 39.9667 125.993 39.9667C128.205 39.9667 130.034 39.2579 131.644 38.6581L131.972 38.5218C133.173 38.0583 133.719 37.1859 134.265 36.2863C134.456 35.9591 134.674 35.632 134.893 35.3048C135.193 34.8959 135.575 34.596 135.903 34.2961C136.53 33.7781 137.104 33.2874 137.104 32.3877C137.104 32.2242 137.104 31.9788 137.104 31.7607C137.131 30.2613 137.131 28.7618 136.367 27.944C135.903 27.4532 135.357 26.8807 134.756 26.39C134.156 25.8993 133.555 25.4903 132.927 25.2995C132.135 25.0814 130.934 24.9451 129.651 24.7815C128.942 24.6997 128.205 24.618 127.522 24.5089C126.485 24.3453 125.83 24.0454 125.311 23.8273C125.093 23.7183 124.901 23.6365 124.71 23.582C124.492 23.5275 124.328 23.5002 124.164 23.4729C123.81 23.4184 123.564 23.4184 123.564 22.9822C123.564 22.546 123.755 22.4642 124.164 22.2734C124.274 22.2189 124.383 22.1916 124.492 22.1098C124.847 21.919 125.284 22.028 125.83 22.1371C126.239 22.2189 126.73 22.3279 127.276 22.3279C128.505 22.3279 129.761 22.437 130.962 22.7096C132.026 22.9549 133.036 23.3094 133.964 23.8273L136.066 18.3749C135.657 18.1295 135.302 17.7751 134.92 17.3934C134.265 16.7391 133.555 16.0303 132.572 15.8395L132.245 15.7849C130.661 15.4578 128.696 15.0488 127.167 15.0488C125.884 15.0488 124.383 15.1034 123.018 15.2669C121.953 15.4033 120.943 15.5941 120.233 15.894C119.524 16.1666 118.869 16.6028 118.268 17.0935C117.476 17.7478 116.821 18.5112 116.33 19.1382C115.784 19.847 116.002 20.8285 116.221 21.8372C116.33 22.3824 116.466 22.9277 116.466 23.4457C116.466 24.3181 116.576 25.0269 116.821 25.6267C117.04 26.2264 117.394 26.7172 117.859 27.2079C118.486 27.8894 119.169 27.9985 119.933 28.1348C120.261 28.1893 120.616 28.2439 120.971 28.3529C121.516 28.5165 121.981 28.8709 122.472 29.2798C123.1 29.7978 123.782 30.3431 124.82 30.4794C125.857 30.6157 126.922 31.0519 127.659 31.379C127.959 31.5153 128.205 31.5971 128.396 31.6789C128.641 31.7607 128.942 31.7334 129.215 31.7334C129.324 31.7334 129.406 31.7062 129.515 31.7062C129.788 31.7062 129.979 31.7607 129.979 32.0606C129.979 32.3605 129.924 32.7149 129.788 33.042C129.679 33.2874 129.515 33.5055 129.242 33.6145C128.914 33.7781 128.368 33.969 127.713 34.1053C127.222 34.2143 126.676 34.2961 126.103 34.2961C125.393 34.2961 124.628 34.2143 123.864 34.078C123.1 33.9417 122.308 33.7509 121.598 33.56C121.216 33.451 120.752 33.3419 120.261 33.2329C119.005 32.9602 117.613 32.6331 116.821 32.1969L115.456 37.4858C116.002 37.813 116.603 38.1401 117.313 38.4127C118.022 38.7126 118.841 38.9852 119.769 39.2033C120.698 39.4214 121.817 39.6123 122.936 39.7486L122.909 39.7759ZM157.304 38.5763C156.786 38.9035 155.557 39.1488 154.575 39.3397C154.247 39.3942 153.919 39.476 153.674 39.5305C153.428 39.585 153.155 39.6395 152.882 39.7213C149.442 40.5392 145.948 41.3843 142.536 38.2492C141.471 37.2677 141.69 35.741 141.908 33.9962C142.045 33.042 142.181 32.0333 142.127 31.0246L141.744 23.5547L138.168 23.7728C138.278 21.7281 138.387 19.7107 138.523 17.666L142.645 18.4839L141.663 12.3226L149.415 11.6138L148.432 17.4479L155.175 17.6388C155.066 19.2745 154.929 20.883 154.82 22.5187L148.705 22.5733C148.651 23.3366 148.596 24.0727 148.514 24.7815C148.214 27.6441 147.968 30.2067 149.825 32.1969C149.879 32.2514 149.961 32.3332 150.043 32.415C150.48 32.9057 151.135 33.6418 151.736 33.6418C152.582 33.6418 153.646 32.9057 154.329 32.4423L154.547 32.2787L157.414 38.549L157.359 38.6036L157.304 38.5763ZM154.547 39.1488C155.475 38.958 156.622 38.7399 157.141 38.4673L154.438 32.5513L154.383 32.5786C153.674 33.0693 152.582 33.8054 151.681 33.8054C151.026 33.8054 150.316 33.042 149.852 32.5241C149.77 32.4423 149.715 32.3605 149.634 32.306C147.723 30.2613 147.968 27.6713 148.269 24.7543C148.351 24.0182 148.432 23.2548 148.46 22.4642V22.3824L154.575 22.3279L154.902 17.8024L148.159 17.6115L149.142 11.8046L141.826 12.4862L142.836 18.7293L138.687 17.8841L138.359 23.582L141.935 23.3639L142.345 31.0246C142.4 32.0606 142.263 33.0693 142.127 34.0235C141.881 35.741 141.69 37.2132 142.673 38.1401C146.03 41.1935 149.47 40.3756 152.855 39.5578C153.1 39.5032 153.346 39.4487 153.646 39.3669C153.892 39.3124 154.22 39.2579 154.547 39.1761V39.1488Z" fill="#34383D"/>
</g>
</svg>