<svg width="32" height="32" viewBox="0 0 32 32" xmlns="http://www.w3.org/2000/svg"><path d="M32 2.75862C32 1.23508 30.7662 0 29.2442 0H2.75584C1.23383 0 0 1.23508 0 2.75862V29.2414C0 30.7649 1.23383 32 2.75584 32H11.9119V20.2353H9.41176V16.1801H11.9121V13.739C11.9121 12.0064 12.3335 10.6953 13.1766 9.80515C14.0198 8.91544 15.407 8.47059 17.3385 8.47059H20.6767V12.5253H18.5886C18.2061 12.5253 17.8998 12.5561 17.6692 12.6181C17.439 12.6801 17.2722 12.7918 17.1693 12.9536C17.0662 13.1153 16.9997 13.2794 16.9705 13.4462C16.9412 13.6131 16.9268 13.8488 16.9268 14.153V16.1801H20.7059L20.2646 20.2353H16.9268V32H29.2442C30.7662 32 32 30.7649 32 29.2414V2.75862Z"/></svg>