<svg width="30" height="30" viewBox="0 0 30 30" xmlns="http://www.w3.org/2000/svg"><path d="M17.59 10.1453C17.59 9.7955 17.8757 9.50985 18.2253 9.50985H19.821C20.1706 9.50985 20.4566 9.7955 20.4566 10.1453V11.6666C20.4566 12.016 20.1706 12.3021 19.821 12.3021H18.2253C17.8757 12.3021 17.59 12.016 17.59 11.6666V10.1453Z" />
<path d="M19.3701 14.6088C19.326 14.2564 19.5799 13.9113 19.935 13.9113C20.2268 13.9113 20.4633 14.1478 20.4634 14.4396L20.4636 19.8749C20.4636 20.1838 20.2111 20.4363 19.9023 20.4363H10.0713C9.76254 20.4363 9.51001 20.1834 9.51001 19.8749V14.4624C9.51001 14.158 9.75678 13.9113 10.0612 13.9113C10.4318 13.9113 10.6967 14.2717 10.6535 14.6398C10.635 14.7981 10.6254 14.9591 10.6254 15.1224C10.6254 17.4708 12.5901 19.3743 15.0135 19.3743C17.437 19.3743 19.402 17.4708 19.402 15.1224C19.402 14.9486 19.3911 14.7772 19.3701 14.6088Z" />
<path d="M12.178 14.9694C12.178 13.452 13.4475 12.222 15.0134 12.222C16.5794 12.222 17.8489 13.452 17.8489 14.9694C17.8489 16.4868 16.5793 17.7164 15.0134 17.7164C13.4475 17.7164 12.178 16.4868 12.178 14.9694Z" />
<path fill-rule="evenodd" clip-rule="evenodd" d="M30 2.58621C30 1.15788 28.8433 0 27.4164 0H2.5836C1.15672 0 0 1.15788 0 2.58621V27.4138C0 28.8421 1.15672 30 2.5836 30H27.4164C28.8433 30 30 28.8421 30 27.4138V2.58621ZM20.2469 7.94118H9.75322C8.75637 7.94118 7.94118 8.6792 7.94118 9.75327V20.2467C7.94118 21.3208 8.75637 22.0588 9.75322 22.0588H20.2469C21.2435 22.0588 22.0588 21.3208 22.0588 20.2467V9.75327C22.0588 8.6792 21.2435 7.94118 20.2469 7.94118Z" />
</svg>
