<svg width="30" height="30" viewBox="0 0 30 30" xmlns="http://www.w3.org/2000/svg">
<path fill-rule="evenodd" clip-rule="evenodd" d="M2.5 0C1.11929 0 0 1.11929 0 2.5V27.5C0 28.8807 1.11929 30 2.5 30H27.5C28.8807 30 30 28.8807 30 27.5V2.5C30 1.11929 28.8807 0 27.5 0H2.5ZM10.9693 16.0903L7.28263 14.7143C6.90818 14.574 6.90492 14.0454 7.27831 13.9014L22.4087 8.06451C22.7295 7.94045 23.0604 8.22147 22.9906 8.55832L20.2753 21.6192C20.2113 21.9275 19.8498 22.0674 19.5946 21.8819L15.888 19.1909C15.6629 19.0274 15.3561 19.0362 15.1407 19.2117L13.0856 20.887C12.8471 21.0821 12.4876 20.9734 12.3963 20.6795L10.9693 16.0903ZM19.3716 10.9201L12.1664 15.3578C11.8902 15.5283 11.7602 15.8618 11.8494 16.174L12.6284 18.9113C12.6838 19.1053 12.9653 19.0854 12.9921 18.885L13.1947 17.3839C13.2329 17.1013 13.3677 16.8409 13.5767 16.6463L19.5231 11.1189C19.6343 11.0157 19.5011 10.8406 19.3716 10.9201Z"/>
</svg>
