<svg width="30" height="30" viewBox="0 0 30 30" xmlns="http://www.w3.org/2000/svg">
<path fill-rule="evenodd" clip-rule="evenodd" d="M30 2.58621C30 1.15788 28.8433 0 27.4164 0H2.5836C1.15672 0 0 1.15788 0 2.58621V27.4138C0 28.8421 1.15672 30 2.5836 30H27.4164C28.8433 30 30 28.8421 30 27.4138V2.58621ZM24.529 19.9714C24.5513 20.0067 24.5735 20.049 24.5994 20.0985C24.6216 20.1515 24.6475 20.2398 24.6697 20.3704C24.6957 20.4979 24.6956 20.6108 24.666 20.7133C24.6401 20.8159 24.5513 20.9076 24.4032 20.9925C24.2588 21.0774 24.0478 21.1196 23.7812 21.1196L21.6753 21.1501C21.276 21.1559 20.8654 21.2232 20.4827 21.1093C20.2568 21.042 20.0717 20.9679 19.931 20.8865L19.72 20.7663C19.509 20.625 19.2609 20.4096 18.9796 20.1196C18.6945 19.8297 18.4539 19.572 18.2539 19.3385C18.054 19.1054 17.8393 18.9111 17.6098 18.7522C17.3803 18.5966 17.1841 18.5436 17.0138 18.5966C16.9915 18.6035 16.9619 18.6143 16.9286 18.632C16.8916 18.6457 16.8323 18.6953 16.7472 18.7767C16.6658 18.8581 16.588 18.9568 16.5214 19.0736C16.4511 19.1903 16.3918 19.3635 16.34 19.5966C16.2844 19.8262 16.2622 20.0877 16.2696 20.3777C16.2696 20.4802 16.2585 20.572 16.2326 20.6569C16.2104 20.7418 16.1845 20.8051 16.1549 20.8443L16.1141 20.8934C15.9883 21.0209 15.8032 21.095 15.5551 21.1162H14.3408C13.8411 21.1446 13.3265 21.0881 12.797 20.9503C12.2714 20.8124 11.8086 20.6358 11.4088 20.4165C11.0126 20.1976 10.6498 19.9749 10.3204 19.7487C9.99454 19.5225 9.74649 19.3316 9.5762 19.1688L9.31334 18.9249C9.243 18.8581 9.14305 18.7556 9.02091 18.6212C8.89871 18.4868 8.64699 18.1796 8.26565 17.7022C7.88436 17.2253 7.51045 16.7165 7.14391 16.1792C6.77743 15.6419 6.34428 14.9349 5.84817 14.0517C5.35212 13.1681 4.88935 12.2564 4.47472 11.2952C4.43395 11.1888 4.41176 11.0971 4.41176 11.0229C4.41176 10.9488 4.42286 10.8959 4.4451 10.8605L4.48581 10.8002C4.59315 10.6731 4.79311 10.6093 5.08925 10.6093L7.73037 10.5901C7.89935 10.5889 8.0723 10.5913 8.22865 10.6554C8.2759 10.6725 8.31633 10.6897 8.34825 10.7069C8.38388 10.7262 8.41626 10.751 8.45075 10.7722C8.56551 10.8463 8.65071 10.9523 8.70623 11.0936C8.8469 11.4327 9.0061 11.7791 9.19119 12.1397C9.37258 12.5003 9.51696 12.776 9.62435 12.963L9.79463 13.2564C9.99826 13.6592 10.1982 14.0091 10.387 14.3059C10.5795 14.6028 10.7498 14.8328 10.9016 14.9987C11.0497 15.165 11.1978 15.2921 11.3384 15.3873C11.4791 15.483 11.5976 15.5291 11.6975 15.5291C11.7975 15.5291 11.89 15.5114 11.9826 15.4795C11.9974 15.4722 12.0122 15.4584 12.0344 15.43C12.0529 15.4015 12.0973 15.3274 12.1603 15.2072C12.2269 15.087 12.2714 14.928 12.3047 14.7337C12.3343 14.5394 12.3676 14.2671 12.4046 13.9173C12.4189 13.7669 12.4271 13.695 12.4291 13.6226C12.4318 13.527 12.4237 13.4305 12.4046 13.1504C12.3898 12.882 12.3565 12.6382 12.3083 12.4154C12.2603 12.1961 12.2084 12.0406 12.1603 11.9523C12.1184 11.8723 12.0719 11.7937 12.0062 11.7317C11.8241 11.5597 11.5546 11.4483 11.1978 11.3973C11.1052 11.3836 11.1237 11.3021 11.2496 11.1535C11.368 11.0229 11.5013 10.9239 11.6494 10.8498C12.0233 10.6731 12.8637 10.5917 14.1742 10.6059C14.7518 10.6128 15.2257 10.6554 15.5996 10.7369C15.7402 10.7722 15.8587 10.8179 15.9549 10.8743C16.0512 10.9346 16.1252 11.0161 16.1734 11.1182C16.2215 11.2207 16.2585 11.3306 16.2844 11.44C16.3103 11.5529 16.3215 11.705 16.3215 11.8993C16.3215 12.0936 16.3178 12.281 16.3103 12.4542C16.3072 12.5292 16.3039 12.5231 16.3004 12.5171C16.2958 12.5085 16.2907 12.4994 16.2844 12.6696C16.2733 12.9703 16.2696 13.2495 16.2696 13.5037C16.2696 13.5782 16.2659 13.7196 16.2585 13.9281L16.2573 13.9979C16.2541 14.1732 16.2515 14.312 16.2548 14.4119C16.2585 14.5287 16.2696 14.6631 16.2919 14.8221C16.3141 14.9776 16.3548 15.1081 16.414 15.2146C16.4472 15.274 16.4863 15.3256 16.5318 15.3701C16.6031 15.4397 16.7014 15.4705 16.7985 15.4929L16.8323 15.5006C16.8953 15.5148 16.9878 15.4795 17.1063 15.3912C17.2285 15.3063 17.3617 15.1896 17.5098 15.0448C17.6579 14.8996 17.8393 14.6773 18.0578 14.3697C18.2762 14.0621 18.5168 13.7019 18.776 13.2848C19.2017 12.5852 19.5756 11.8286 19.9088 11.0161C19.9347 10.9488 19.9717 10.8885 20.0125 10.839C20.0532 10.7899 20.0902 10.7545 20.1272 10.733L20.1449 10.7192C20.1602 10.7072 20.1768 10.6969 20.1944 10.6886C20.2113 10.6806 20.229 10.6744 20.2472 10.6702L20.3567 10.6447C20.4953 10.6182 20.6401 10.6407 20.7812 10.6397L23.6109 10.6201C23.8849 10.5848 24.1107 10.5951 24.2884 10.6447C24.4624 10.6942 24.5735 10.7507 24.6142 10.811C24.656 10.8766 24.6951 10.9457 24.7029 11.0231C24.7509 11.4994 24.2132 12.451 23.0926 13.8751C22.9223 14.0905 22.6928 14.3766 22.404 14.7337C21.8561 15.405 21.5377 15.847 21.4526 16.0555C21.3341 16.3313 21.3822 16.6031 21.6007 16.872C21.7188 17.0129 22.0025 17.2874 22.4518 17.6951C22.4544 17.6974 22.4578 17.6988 22.4613 17.6988C22.4649 17.6988 22.4685 17.7002 22.4711 17.7027L22.4781 17.7095L22.4892 17.7199L22.5114 17.7414C23.5036 18.6212 24.1774 19.367 24.529 19.9714Z" />
</svg>
